{
.appVersion = "1312";
classes = (
{

glyphs = (
{
glyphname = .notdef;
lastChange = "2020-04-09 11:32:38 +0000";
layers = (
{
layerId = "FA2AC253-0460-4F3F-AE23-6289F77EFFDF";
paths = (
{
closed = 1;
nodes = (
"1023.78 0 LINE SMOOTH",
"1083.78 0 OFFCURVE",
"1119.78 35 OFFCURVE",
"1119.78 96 CURVE SMOOTH",
"1119.78 1274 LINE SMOOTH",
"1119.78 1335 OFFCURVE",
"1083.78 1370 OFFCURVE",
"1023.78 1370 CURVE SMOOTH",
"296.78 1370 LINE SMOOTH",
"236.78 1370 OFFCURVE",
"200.78 1335 OFFCURVE",
"200.78 1274 CURVE SMOOTH",
"200.78 96 LINE SMOOTH",
"200.78 35 OFFCURVE",
"236.78 0 OFFCURVE",
"296.78 0 CURVE SMOOTH"
);
},
{
closed = 1;
nodes = (
"676.78 608 LINE",
"726.78 664 LINE",
"947.78 1017 OFFCURVE",
"965.78 1050 OFFCURVE",
"1006.78 1147 CURVE",
"1093.78 1127 LINE",
"1011.78 1343 LINE",
"654.78 768 LINE",
"604.78 712 LINE",
"383.78 359 OFFCURVE",
"365.78 326 OFFCURVE",
"325.78 229 CURVE",
"237.78 249 LINE",
"309.78 17 LINE"
);
},
{
closed = 1;
nodes = (
"1101.78 247 LINE",
"1003.78 227 LINE",
"963.78 324 OFFCURVE",
"946.78 352 OFFCURVE",
"703.78 736 CURVE SMOOTH",
"317.78 1346 LINE",
"226.78 1127 LINE",
"323.78 1147 LINE",
"364.78 1050 OFFCURVE",
"381.78 1022 OFFCURVE",
"624.78 638 CURVE SMOOTH",
"1010.78 28 LINE"
);
},
{
closed = 1;
nodes = (
"325.78 304 OFFCURVE",
"329.78 368 OFFCURVE",
"329.78 680 CURVE SMOOTH",
"329.78 987 OFFCURVE",
"325.78 1069 OFFCURVE",
"304.78 1262 CURVE",
"388.78 1257 OFFCURVE",
"472.78 1250 OFFCURVE",
"662.78 1250 CURVE SMOOTH",
"852.78 1250 OFFCURVE",
"942.78 1257 OFFCURVE",
"1025.78 1262 CURVE",
"1004.78 1067 OFFCURVE",
"1000.78 986 OFFCURVE",
"1000.78 680 CURVE SMOOTH",
"1000.78 369 OFFCURVE",
"1004.78 306 OFFCURVE",
"1025.78 108 CURVE",
"941.78 117 OFFCURVE",
"852.78 120 OFFCURVE",
"662.78 120 CURVE SMOOTH",
"472.78 120 OFFCURVE",
"388.78 117 OFFCURVE",
"304.78 108 CURVE"
);
}
);
width = 1320.56;
},
{
layerId = "E5C657BD-868A-4531-8053-230689A73369";
paths = (
{
closed = 1;
nodes = (
"979.164 0 LINE SMOOTH",
"1039.164 0 OFFCURVE",
"1075.164 35 OFFCURVE",
"1075.164 96 CURVE SMOOTH",
"1075.164 1274 LINE SMOOTH",
"1075.164 1335 OFFCURVE",
"1039.164 1370 OFFCURVE",
"979.164 1370 CURVE SMOOTH",
"252.164 1370 LINE SMOOTH",
"192.164 1370 OFFCURVE",
"156.164 1335 OFFCURVE",
"156.164 1274 CURVE SMOOTH",
"156.164 96 LINE SMOOTH",
"156.164 35 OFFCURVE",
"192.164 0 OFFCURVE",
"252.164 0 CURVE SMOOTH"
);
},
{
closed = 1;
nodes = (
"632.164 608 LINE",
"682.164 664 LINE",
"903.164 1017 OFFCURVE",
"921.164 1050 OFFCURVE",
"962.164 1147 CURVE",
"1049.164 1127 LINE",
"967.164 1343 LINE",
"610.164 768 LINE",
"560.164 712 LINE",
"339.164 359 OFFCURVE",
"321.164 326 OFFCURVE",
"281.164 229 CURVE",
"193.164 249 LINE",
"265.164 17 LINE"
);
},
{
closed = 1;
nodes = (
"1057.164 247 LINE",
"959.164 227 LINE",
"919.164 324 OFFCURVE",
"902.164 352 OFFCURVE",
"659.164 736 CURVE SMOOTH",
"273.164 1346 LINE",
"182.164 1127 LINE",
"279.164 1147 LINE",
"320.164 1050 OFFCURVE",
"337.164 1022 OFFCURVE",
"580.164 638 CURVE SMOOTH",
"966.164 28 LINE"
);
},
{
closed = 1;
nodes = (
"281.164 304 OFFCURVE",
"285.164 368 OFFCURVE",
"285.164 680 CURVE SMOOTH",
"285.164 987 OFFCURVE",
"281.164 1069 OFFCURVE",
"260.164 1262 CURVE",
"344.164 1257 OFFCURVE",
"428.164 1250 OFFCURVE",
"618.164 1250 CURVE SMOOTH",
"808.164 1250 OFFCURVE",
"898.164 1257 OFFCURVE",
"981.164 1262 CURVE",
"960.164 1067 OFFCURVE",
"956.164 986 OFFCURVE",
"956.164 680 CURVE SMOOTH",
"956.164 369 OFFCURVE",
"960.164 306 OFFCURVE",
"981.164 108 CURVE",
"897.164 117 OFFCURVE",
"808.164 120 OFFCURVE",
"618.164 120 CURVE SMOOTH",
"428.164 120 OFFCURVE",
"344.164 117 OFFCURVE",
"260.164 108 CURVE"
);
}
);
width = 1231.328;
}
);
leftMetricsKey = H;
rightMetricsKey = H;
},
{
glyphname = A;
lastChange = "2020-04-09 11:32:38 +0000";
layers = (
{
anchors = (
{
name = bottom;
position = "{594, 0}";
},
{
name = ogonek;
position = "{1132, 8}";
},
{
name = top;
position = "{593, 1464}";
}
);
layerId = "FA2AC253-0460-4F3F-AE23-6289F77EFFDF";
paths = (
{
closed = 1;
nodes = (
"54.6 7.73 LINE",
"58.48 1.91 LINE",
"80.24 -3.97 OFFCURVE",
"97.4 -7.91 OFFCURVE",
"127.1 -7.91 CURVE SMOOTH",
"148.65 -7.91 OFFCURVE",
"172.29 -5.91 OFFCURVE",
"189.93 -2 CURVE",
"513.85 982.65 LINE SMOOTH",
"529.61 1031.69 OFFCURVE",
"559.34 1134.76 OFFCURVE",
"579.34 1210.19 CURVE",
"589.31 1210.19 LINE",
"613.16 1122.91 OFFCURVE",
"651.04 999.6 OFFCURVE",
"691.19 881.51 CURVE SMOOTH",
"963.26 60.47 LINE SMOOTH",
"982.96 3.76 OFFCURVE",
"1002.45 -11.91 OFFCURVE",
"1047.55 -11.91 CURVE SMOOTH",
"1083.16 -11.91 OFFCURVE",
"1110.32 -6.03 OFFCURVE",
"1131.96 7.79 CURVE",
"671.48 1366.03 LINE",
"656.05 1369.94 OFFCURVE",
"616.74 1371.91 OFFCURVE",
"595.22 1371.91 CURVE SMOOTH",
"571.7 1371.91 OFFCURVE",
"534.39 1369.94 OFFCURVE",
"512.87 1366 CURVE"
);
},
{
closed = 1;
nodes = (
"719.22 359.17 LINE SMOOTH",
"730.95 359.17 OFFCURVE",
"862.33 361.17 OFFCURVE",
"876.09 361.17 CURVE SMOOTH",
"928.23 361.17 LINE",
"886.86 483.13 LINE",
"840.57 483.13 LINE SMOOTH",
"826.81 483.13 OFFCURVE",
"715.73 485.13 OFFCURVE",
"704 485.13 CURVE SMOOTH",
"468.56 485.13 LINE SMOOTH",
"456.83 485.13 OFFCURVE",
"349.81 483.13 OFFCURVE",
"336.05 483.13 CURVE SMOOTH",
"289.67 483.13 LINE",
"244.51 361.17 LINE",
"296.65 361.17 LINE SMOOTH",
"310.41 361.17 OFFCURVE",
"439.76 359.17 OFFCURVE",
"451.49 359.17 CURVE SMOOTH"
);
}
);
width = 1187.575;
},
{
anchors = (
{
name = bottom;
position = "{640, 0}";
},
{
name = ogonek;
position = "{1249, 20}";
},
{
name = top;
position = "{640, 1464}";
}
);
layerId = "E5C657BD-868A-4531-8053-230689A73369";
paths = (
{
closed = 1;
nodes = (
"20.28 23.174 LINE",
"31.024 7.058 LINE",
"66.512 -5.686 OFFCURVE",
"131.72 -13.058 OFFCURVE",
"178.58 -13.058 CURVE SMOOTH",
"225.87 -13.058 OFFCURVE",
"270.102 -11.058 OFFCURVE",
"308.334 -2 CURVE",
"522.43 716.67 LINE SMOOTH",
"551.918 820.622 OFFCURVE",
"597.092 976.888 OFFCURVE",
"617.092 1084.922 CURVE",
"628.778 1084.922 LINE",
"661.208 956.458 OFFCURVE",
"705.952 793.68 OFFCURVE",
"737.522 680.738 CURVE SMOOTH",
"891.188 147.986 LINE SMOOTH",
"928.048 17.488 OFFCURVE",
"976.71 -17.058 OFFCURVE",
"1073.29 -17.058 CURVE SMOOTH",
"1131.208 -17.058 OFFCURVE",
"1206.416 -4.314 OFFCURVE",
"1248.648 19.802 CURVE",
"815.624 1364.314 LINE",
"767.59 1373.372 OFFCURVE",
"688.812 1377.058 OFFCURVE",
"639.836 1377.058 CURVE SMOOTH",
"588.86 1377.058 OFFCURVE",
"512.082 1373.372 OFFCURVE",
"463.106 1366 CURVE"
);
},
{
closed = 1;
nodes = (
"763.836 292.246 LINE SMOOTH",
"791.01 292.246 OFFCURVE",
"843.454 294.246 OFFCURVE",
"870.942 294.246 CURVE SMOOTH",
"1029.474 294.246 LINE",
"952.068 532.894 LINE",
"807.966 532.894 LINE SMOOTH",
"780.478 532.894 OFFCURVE",
"731.174 534.894 OFFCURVE",
"704 534.894 CURVE SMOOTH",
"550.928 534.894 LINE SMOOTH",
"523.754 534.894 OFFCURVE",
"475.078 532.894 OFFCURVE",
"447.59 532.894 CURVE SMOOTH",
"308.546 532.894 LINE",
"215.338 294.246 LINE",
"373.87 294.246 LINE SMOOTH",
"401.358 294.246 OFFCURVE",
"453.488 292.246 OFFCURVE",
"480.662 292.246 CURVE SMOOTH"
);
}
);
width = 1269.085;
}
);
leftKerningGroup = A;
rightKerningGroup = A;
unicode = 0041;
},
{
glyphname = B;
lastChange = "2020-04-09 11:32:38 +0000";
layers = (
{
anchors = (
{
name = bottom;
position = "{590, 0}";
},
{
name = top;
position = "{556, 1464}";
}
);
layerId = "FA2AC253-0460-4F3F-AE23-6289F77EFFDF";
paths = (
{
closed = 1;
nodes = (
"200.78 1353.97 LINE",
"200.78 12.03 LINE",
"212.75 0.06 LINE",
"350.21 -1.91 OFFCURVE",
"453.19 -5.91 OFFCURVE",
"619.37 -5.91 CURVE SMOOTH",
"970.09 -5.91 OFFCURVE",
"1080.74 191.26 OFFCURVE",
"1080.74 375.73 CURVE SMOOTH",
"1080.74 590.18 OFFCURVE",
"908.32 737.91 OFFCURVE",
"740.23 737.76 CURVE",
"740.23 709.82 LINE",
"908.8 727.85 OFFCURVE",
"1014.71 855.82 OFFCURVE",
"1014.71 1011.97 CURVE SMOOTH",
"1014.71 1219.25 OFFCURVE",
"903.97 1371.91 OFFCURVE",
"597.52 1371.91 CURVE SMOOTH",
"471.79 1371.91 OFFCURVE",
"350.39 1367.91 OFFCURVE",
"212.75 1365.94 CURVE"
);
},
{
closed = 1;
nodes = (
"341.99 1253.62 LINE",
"416.38 1251.62 OFFCURVE",
"533.31 1251.62 OFFCURVE",
"601.85 1251.62 CURVE SMOOTH",
"827.32 1251.62 OFFCURVE",
"865.32 1126.9 OFFCURVE",
"865.32 1016.39 CURVE SMOOTH",
"865.32 909.94 OFFCURVE",
"819.17 779.19 OFFCURVE",
"595.76 779.19 CURVE SMOOTH",
"282.98 779.19 LINE",
"282.98 656.87 LINE",
"613.67 656.87 LINE SMOOTH",
"865.14 656.87 OFFCURVE",
"931.5 494 OFFCURVE",
"931.5 385.67 CURVE SMOOTH",
"931.5 273.22 OFFCURVE",
"885.38 114.41 OFFCURVE",
"633.97 114.41 CURVE SMOOTH",
"537.1 114.41 OFFCURVE",
"438.5 112.38 OFFCURVE",
"341.99 112.41 CURVE"
);
}
);
width = 1197.49;
},
{
anchors = (
{
name = bottom;
position = "{597, 0}";
},
{
name = top;
position = "{578, 1464}";
}
);
layerId = "E5C657BD-868A-4531-8053-230689A73369";
paths = (
{
closed = 1;
nodes = (
"156.164 1355.686 LINE",
"156.164 10.314 LINE",
"169.85 -3.372 LINE",
"338.198 -7.058 OFFCURVE",
"499.522 -11.058 OFFCURVE",
"655.406 -11.058 CURVE SMOOTH",
"964.942 -11.058 OFFCURVE",
"1152.812 119.188 OFFCURVE",
"1152.812 391.174 CURVE SMOOTH",
"1152.812 579.884 OFFCURVE",
"1004.416 743.058 OFFCURVE",
"841.474 751.488 CURVE",
"841.474 720.116 LINE",
"977.44 736.43 OFFCURVE",
"1088.498 866.116 OFFCURVE",
"1088.498 1013.686 CURVE SMOOTH",
"1088.498 1262.15 OFFCURVE",
"905.686 1377.058 OFFCURVE",
"624.976 1377.058 CURVE SMOOTH",
"483.802 1377.058 OFFCURVE",
"328.082 1373.058 OFFCURVE",
"169.85 1369.372 CURVE"
);
},
{
closed = 1;
nodes = (
"456.962 1160.956 LINE",
"509.044 1158.956 OFFCURVE",
"572.778 1158.956 OFFCURVE",
"610.43 1158.956 CURVE SMOOTH",
"751.816 1158.956 OFFCURVE",
"789.816 1075.42 OFFCURVE",
"789.816 994.082 CURVE SMOOTH",
"789.816 913.372 OFFCURVE",
"752.246 825.522 OFFCURVE",
"609.488 825.522 CURVE SMOOTH",
"341.324 825.522 LINE",
"341.324 607.106 LINE",
"632.546 607.106 LINE SMOOTH",
"799.932 607.106 OFFCURVE",
"845.7 494 OFFCURVE",
"845.7 404.546 CURVE SMOOTH",
"845.7 317.836 OFFCURVE",
"806.444 205.358 OFFCURVE",
"635.686 205.358 CURVE SMOOTH",
"588.58 205.358 OFFCURVE",
"524.3 205.044 OFFCURVE",
"456.962 203.358 CURVE"
);
}
);
width = 1226.662;
}
);
unicode = 0042;
},
{
glyphname = C;
lastChange = "2020-04-09 11:32:38 +0000";
layers = (
{
anchors = (
{
name = bottom;
position = "{632, 0}";
},
{
name = top;
position = "{636, 1466}";
}
);
layerId = "FA2AC253-0460-4F3F-AE23-6289F77EFFDF";
paths = (
{
closed = 1;
nodes = (
"985.29 933.95 OFFCURVE",
"998.93 932.04 OFFCURVE",
"1022.57 932.04 CURVE SMOOTH",
"1089.82 932.04 OFFCURVE",
"1100.89 977.95 OFFCURVE",
"1100.89 1016.57 CURVE SMOOTH",
"1100.89 1195.67 OFFCURVE",
"927.37 1389.88 OFFCURVE",
"639.73 1389.88 CURVE SMOOTH",
"360.36 1389.88 OFFCURVE",
"116.72 1169.82 OFFCURVE",
"116.72 675.97 CURVE SMOOTH",
"116.72 313.67 OFFCURVE",
"256.87 -23.91 OFFCURVE",
"615.88 -23.91 CURVE SMOOTH",
"809.43 -23.91 OFFCURVE",
"976.77 59.85 OFFCURVE",
"1082.62 167.76 CURVE",
"1070.65 201.1 OFFCURVE",
"1039.28 238.26 OFFCURVE",
"1003.7 259.93 CURVE",
"873.1 145.195 OFFCURVE",
"750.89 99.6 OFFCURVE",
"635.25 99.6 CURVE SMOOTH",
"406.38 99.6 OFFCURVE",
"265.72 314.77 OFFCURVE",
"265.72 676 CURVE SMOOTH",
"265.72 1065.38 OFFCURVE",
"402.86 1270.04 OFFCURVE",
"639.91 1270.04 CURVE SMOOTH",
"880.93 1270.04 OFFCURVE",
"957.41 1083.53 OFFCURVE",
"957.47 941.92 CURVE"
);
}
);
width = 1199.7;
},
{
anchors = (
{
name = bottom;
position = "{652, 0}";
},
{
name = top;
position = "{651, 1466}";
}
);
layerId = "E5C657BD-868A-4531-8053-230689A73369";
paths = (
{
closed = 1;
nodes = (
"911.502 822.41 OFFCURVE",
"945.734 815.352 OFFCURVE",
"989.966 815.352 CURVE SMOOTH",
"1100.116 815.352 OFFCURVE",
"1164.382 866.41 OFFCURVE",
"1164.382 983.966 CURVE SMOOTH",
"1164.382 1214.546 OFFCURVE",
"963.406 1396.744 OFFCURVE",
"655.174 1396.744 CURVE SMOOTH",
"339.768 1396.744 OFFCURVE",
"75.536 1180.116 OFFCURVE",
"75.536 677.686 CURVE SMOOTH",
"75.536 332.546 OFFCURVE",
"207.106 -29.058 OFFCURVE",
"622.744 -29.058 CURVE SMOOTH",
"842.034 -29.058 OFFCURVE",
"1047.126 68.43 OFFCURVE",
"1161.556 181.488 CURVE",
"1147.87 252.58 OFFCURVE",
"1080.464 337.788 OFFCURVE",
"1020.86 378.334 CURVE",
"924.58 305.641 OFFCURVE",
"814.382 236.88 OFFCURVE",
"678.15 236.88 CURVE SMOOTH",
"499.044 236.88 OFFCURVE",
"396.136 385.126 OFFCURVE",
"396.136 676 CURVE SMOOTH",
"396.136 986.444 OFFCURVE",
"468.068 1153.352 OFFCURVE",
"645.058 1153.352 CURVE SMOOTH",
"827.734 1153.352 OFFCURVE",
"876.758 996.014 OFFCURVE",
"873.386 832.096 CURVE"
);
}
);
width = 1216.86;
}
);
leftKerningGroup = C;
rightKerningGroup = C;
unicode = 0043;
},
{
glyphname = D;
lastChange = "2020-04-09 11:32:38 +0000";
layers = (
{
anchors = (
{
name = bottom;
position = "{602, 0}";
},
{
name = top;
position = "{601, 1464}";
}
);
layerId = "FA2AC253-0460-4F3F-AE23-6289F77EFFDF";
paths = (
{
closed = 1;
nodes = (
"1150.23 913.97 OFFCURVE",
"1118.29 1121.88 OFFCURVE",
"946.56 1269.88 CURVE SMOOTH",
"862.68 1341.88 OFFCURVE",
"712.92 1371.91 OFFCURVE",
"611.07 1371.91 CURVE SMOOTH",
"455.34 1371.91 OFFCURVE",
"386.78 1371.94 OFFCURVE",
"212.75 1365.94 CURVE",
"200.78 1353.97 LINE",
"200.78 12.03 LINE",
"212.75 0.06 LINE",
"386.75 -3.94 OFFCURVE",
"455.34 -7.94 OFFCURVE",
"611.07 -7.94 CURVE SMOOTH",
"712.92 -7.94 OFFCURVE",
"862.695 22.09 OFFCURVE",
"946.56 94.09 CURVE SMOOTH",
"1120.29 242.09 OFFCURVE",
"1150.23 447.97 OFFCURVE",
"1150.23 681.97 CURVE SMOOTH"
);
},
{
closed = 1;
nodes = (
"1001.11 421.04 OFFCURVE",
"950.84 111.99 OFFCURVE",
"609.04 111.99 CURVE SMOOTH",
"514.62 111.99 OFFCURVE",
"446.47 114.02 OFFCURVE",
"341.93 114.05 CURVE",
"341.93 1253.98 LINE",
"446.47 1254.01 OFFCURVE",
"514.62 1251.98 OFFCURVE",
"609.04 1251.98 CURVE SMOOTH",
"950.84 1251.98 OFFCURVE",
"1001.11 944.93 OFFCURVE",
"1001.11 681.97 CURVE SMOOTH"
);
}
);
width = 1270.98;
},
{
anchors = (
{
name = bottom;
position = "{629, 0}";
},
{
name = top;
position = "{637, 1464}";
}
);
layerId = "E5C657BD-868A-4531-8053-230689A73369";
paths = (
{
closed = 1;
nodes = (
"1251.474 915.686 OFFCURVE",
"1216.102 1128.744 OFFCURVE",
"1028.928 1276.744 CURVE SMOOTH",
"938.184 1348.744 OFFCURVE",
"774.696 1377.058 OFFCURVE",
"664.266 1377.058 CURVE SMOOTH",
"493.092 1377.058 OFFCURVE",
"342.164 1375.372 OFFCURVE",
"169.85 1369.372 CURVE",
"156.164 1355.686 LINE",
"156.164 10.314 LINE",
"169.85 -3.372 LINE",
"343.85 -7.372 OFFCURVE",
"493.092 -11.372 OFFCURVE",
"664.266 -11.372 CURVE SMOOTH",
"774.696 -11.372 OFFCURVE",
"937.341 16.942 OFFCURVE",
"1028.928 88.942 CURVE SMOOTH",
"1218.102 236.942 OFFCURVE",
"1251.474 449.686 OFFCURVE",
"1251.474 683.686 CURVE SMOOTH"
);
},
{
closed = 1;
nodes = (
"937.618 475.952 OFFCURVE",
"902.792 226.962 OFFCURVE",
"663.952 226.962 CURVE SMOOTH",
"593.556 226.962 OFFCURVE",
"533.986 227.276 OFFCURVE",
"460.334 225.59 CURVE",
"460.334 1140.724 LINE",
"533.986 1139.038 OFFCURVE",
"593.556 1138.724 OFFCURVE",
"663.952 1138.724 CURVE SMOOTH",
"902.792 1138.724 OFFCURVE",
"937.618 891.734 OFFCURVE",
"937.618 683.686 CURVE SMOOTH"
);
}
);
width = 1329.324;
}
);
rightKerningGroup = D;
unicode = 0044;
},
{
glyphname = E;
lastChange = "2020-04-09 11:32:39 +0000";
layers = (
{
anchors = (
{
name = bottom;
position = "{614, 0}";
},
{
name = ogonek;
position = "{916, 0}";
},
{
name = top;
position = "{598, 1464}";
}
);
layerId = "FA2AC253-0460-4F3F-AE23-6289F77EFFDF";
paths = (
{
closed = 1;
nodes = (
"200.81 94.62 LINE SMOOTH",
"200.81 35.52 OFFCURVE",
"232.21 0.09 OFFCURVE",
"281.16 0.09 CURVE SMOOTH",
"335.93 0.09 LINE",
"335.93 117.72 LINE SMOOTH",
"335.93 145.3 OFFCURVE",
"337.93 165 OFFCURVE",
"337.93 190.58 CURVE SMOOTH",
"337.93 1122.7 LINE SMOOTH",
"337.93 1176.7 OFFCURVE",
"335.93 1194.37 OFFCURVE",
"335.93 1250.37 CURVE SMOOTH",
"335.93 1366 LINE",
"212.78 1366 LINE",
"200.81 1354.03 LINE"
);
},
{
closed = 1;
nodes = (
"455.66 752.98 LINE SMOOTH",
"411.75 752.98 OFFCURVE",
"346.83 750.98 OFFCURVE",
"288.92 751.01 CURVE",
"288.92 633.17 LINE",
"346.83 633.2 OFFCURVE",
"411.75 631.2 OFFCURVE",
"455.66 631.2 CURVE SMOOTH",
"877.52 631.2 LINE",
"881.37 652.9 OFFCURVE",
"883.31 676.42 OFFCURVE",
"883.31 692.09 CURVE SMOOTH",
"883.31 707.79 OFFCURVE",
"881.37 731.25 OFFCURVE",
"877.52 752.98 CURVE"
);
},
{
closed = 1;
nodes = (
"288.92 1366 LINE",
"288.92 1246.31 LINE",
"346.83 1244.31 OFFCURVE",
"411.75 1244.34 OFFCURVE",
"455.66 1244.34 CURVE SMOOTH",
"973.4 1244.34 LINE",
"981.25 1265.92 OFFCURVE",
"983.13 1293.44 OFFCURVE",
"983.13 1309.11 CURVE SMOOTH",
"983.13 1324.78 OFFCURVE",
"983.16 1344.42 OFFCURVE",
"979.25 1366 CURVE"
);
},
{
closed = 1;
nodes = (
"457.51 123.78 LINE SMOOTH",
"385.93 123.78 OFFCURVE",
"338.32 119.81 OFFCURVE",
"288.92 115.81 CURVE",
"288.92 0.09 LINE",
"916.81 0.09 LINE SMOOTH",
"983.16 0.09 OFFCURVE",
"1010.95 25.025 OFFCURVE",
"1010.95 123.78 CURVE"
);
}
);
width = 1123.64;
},
{
anchors = (
{
name = bottom;
position = "{621, 0}";
},
{
name = ogonek;
position = "{928, 0}";
},
{
name = top;
position = "{598, 1464}";
}
);
layerId = "E5C657BD-868A-4531-8053-230689A73369";
paths = (
{
closed = 1;
nodes = (
"154.478 173.556 LINE SMOOTH",
"154.478 62.976 OFFCURVE",
"220.198 -5.058 OFFCURVE",
"329.208 -5.058 CURVE SMOOTH",
"454.334 -5.058 LINE",
"454.334 248.136 LINE SMOOTH",
"454.334 299.74 OFFCURVE",
"456.334 336.6 OFFCURVE",
"456.334 386.204 CURVE SMOOTH",
"456.334 968.26 LINE SMOOTH",
"456.334 1022.26 OFFCURVE",
"454.334 1058.806 OFFCURVE",
"454.334 1114.806 CURVE SMOOTH",
"454.334 1366 LINE",
"168.164 1366 LINE",
"154.478 1352.314 LINE"
);
},
{
closed = 1;
nodes = (
"589.508 811.324 LINE SMOOTH",
"540.45 811.324 OFFCURVE",
"413.754 809.324 OFFCURVE",
"350.696 807.638 CURVE",
"350.696 566.246 LINE",
"413.754 564.56 OFFCURVE",
"540.45 562.56 OFFCURVE",
"589.508 562.56 CURVE SMOOTH",
"904.976 562.56 LINE",
"917.406 601.42 OFFCURVE",
"922.778 652.396 OFFCURVE",
"922.778 686.942 CURVE SMOOTH",
"922.778 719.802 OFFCURVE",
"917.406 774.15 OFFCURVE",
"904.976 811.324 CURVE"
);
},
{
closed = 1;
nodes = (
"350.696 1366 LINE",
"350.696 1114.178 LINE",
"413.754 1112.178 OFFCURVE",
"540.45 1110.492 OFFCURVE",
"589.508 1110.492 CURVE SMOOTH",
"1007.72 1110.492 LINE",
"1024.15 1156.096 OFFCURVE",
"1032.894 1211.072 OFFCURVE",
"1032.894 1245.618 CURVE SMOOTH",
"1032.894 1280.164 OFFCURVE",
"1031.208 1320.396 OFFCURVE",
"1022.15 1366 CURVE"
);
},
{
closed = 1;
nodes = (
"599.938 250.764 LINE SMOOTH",
"504.334 250.764 OFFCURVE",
"434.416 245.078 OFFCURVE",
"350.696 241.078 CURVE",
"350.696 -5.058 LINE",
"870.478 -5.058 LINE SMOOTH",
"1031.208 -5.058 OFFCURVE",
"1071.01 80.795 OFFCURVE",
"1071.01 250.764 CURVE"
);
}
);
width = 1144.232;
}
);
rightKerningGroup = E;
unicode = 0045;
},
{
glyphname = F;
lastChange = "2020-04-09 11:32:39 +0000";
layers = (
{
anchors = (
{
name = top;
position = "{598, 1464}";
}
);
layerId = "FA2AC253-0460-4F3F-AE23-6289F77EFFDF";
paths = (
{
closed = 1;
nodes = (
"341.9 958.33 LINE SMOOTH",
"341.9 1056.21 OFFCURVE",
"339.9 1155.94 OFFCURVE",
"339.9 1253.73 CURVE SMOOTH",
"339.9 1366 LINE",
"212.75 1366 LINE",
"200.78 1354 LINE",
"200.78 0 LINE",
"218.18 -3.91 OFFCURVE",
"243.55 -5.91 OFFCURVE",
"269.25 -5.91 CURVE SMOOTH",
"296.98 -5.91 OFFCURVE",
"322.47 -3.91 OFFCURVE",
"341.9 0 CURVE"
);
},
{
closed = 1;
nodes = (
"289.19 1366 LINE",
"289.19 1250.46 LINE",
"356.86 1244.37 OFFCURVE",
"446.92 1242.37 OFFCURVE",
"563.19 1242.37 CURVE SMOOTH",
"886.36 1242.37 LINE SMOOTH",
"945.46 1242.37 OFFCURVE",
"973.01 1261.98 OFFCURVE",
"973.01 1307.02 CURVE SMOOTH",
"973.01 1326.75 OFFCURVE",
"969.01 1348.27 OFFCURVE",
"963.07 1366 CURVE"
);
},
{
closed = 1;
nodes = (
"457.13 753.07 LINE SMOOTH",
"413.34 753.07 OFFCURVE",
"347.31 751.07 OFFCURVE",
"289.01 751.1 CURVE",
"289.01 633.29 LINE",
"347.31 633.32 OFFCURVE",
"413.34 631.32 OFFCURVE",
"457.13 631.32 CURVE SMOOTH",
"867.49 631.32 LINE",
"871.37 653.05 OFFCURVE",
"873.31 676.51 OFFCURVE",
"873.31 692.18 CURVE SMOOTH",
"873.31 707.88 OFFCURVE",
"871.37 731.31 OFFCURVE",
"867.49 753.07 CURVE"
);
}
);
width = 1025.28;
},
{
anchors = (
{
name = top;
position = "{591, 1464}";
}
);
layerId = "E5C657BD-868A-4531-8053-230689A73369";
paths = (
{
closed = 1;
nodes = (
"462.02 939.454 LINE SMOOTH",
"462.02 1044.198 OFFCURVE",
"460.02 1159.372 OFFCURVE",
"460.02 1269.174 CURVE SMOOTH",
"460.02 1366 LINE",
"169.85 1366 LINE",
"156.164 1354 LINE",
"156.164 0 LINE",
"207.884 -9.058 OFFCURVE",
"269.29 -11.058 OFFCURVE",
"312.15 -11.058 CURVE SMOOTH",
"355.324 -11.058 OFFCURVE",
"409.986 -9.058 OFFCURVE",
"462.02 0 CURVE"
);
},
{
closed = 1;
nodes = (
"335.522 1366 LINE",
"335.522 1109.748 LINE",
"422.068 1108.806 OFFCURVE",
"508.696 1106.806 OFFCURVE",
"609.522 1106.806 CURVE SMOOTH",
"865.768 1106.806 LINE SMOOTH",
"976.348 1106.806 OFFCURVE",
"1029.638 1148.724 OFFCURVE",
"1029.638 1248.676 CURVE SMOOTH",
"1029.638 1283.85 OFFCURVE",
"1025.638 1332.826 OFFCURVE",
"1016.266 1366 CURVE"
);
},
{
closed = 1;
nodes = (
"506.894 806.266 LINE SMOOTH",
"451.092 806.266 OFFCURVE",
"386.778 804.266 OFFCURVE",
"345.638 802.58 CURVE",
"345.638 559.502 LINE",
"386.778 557.816 OFFCURVE",
"451.092 555.816 OFFCURVE",
"506.894 555.816 CURVE SMOOTH",
"896.662 555.816 LINE",
"907.406 592.99 OFFCURVE",
"912.778 647.338 OFFCURVE",
"912.778 681.884 CURVE SMOOTH",
"912.778 714.744 OFFCURVE",
"907.406 770.778 OFFCURVE",
"896.662 806.266 CURVE"
);
}
);
width = 1066.464;
}
);
unicode = 0046;
},
{
glyphname = G;
lastChange = "2020-04-09 11:32:39 +0000";
layers = (
{
anchors = (
{
name = bottom;
position = "{670, 0}";
},
{
name = top;
position = "{682, 1464}";
}
);
layerId = "FA2AC253-0460-4F3F-AE23-6289F77EFFDF";
paths = (
{
closed = 1;
nodes = (
"1019.25 1332.925 OFFCURVE",
"840.145 1389.91 OFFCURVE",
"686.625 1389.91 CURVE SMOOTH",
"402.27 1389.91 OFFCURVE",
"116.72 1196.6 OFFCURVE",
"116.72 672.985 CURVE SMOOTH",
"116.72 337.53 OFFCURVE",
"234.475 -23.91 OFFCURVE",
"676.985 -23.91 CURVE SMOOTH",
"818.74 -23.91 OFFCURVE",
"1006.68 14 OFFCURVE",
"1128.77 62.15 CURVE",
"1058.33 180.53 LINE",
"996.42 148.32 OFFCURVE",
"850.805 102.08 OFFCURVE",
"702.505 102.08 CURVE SMOOTH",
"406.2 102.08 OFFCURVE",
"265.87 286.83 OFFCURVE",
"265.87 669.97 CURVE SMOOTH",
"265.87 1115.98 OFFCURVE",
"455.86 1262.1 OFFCURVE",
"679.205 1262.1 CURVE SMOOTH",
"817.625 1262.1 OFFCURVE",
"956.925 1205.89 OFFCURVE",
"1049.85 1129.71 CURVE",
"1079.28 1149.35 OFFCURVE",
"1114.71 1190.45 OFFCURVE",
"1126.8 1239.79 CURVE"
);
},
{
closed = 1;
nodes = (
"989.35 60.18 LINE",
"1128.77 62.15 LINE",
"1128.77 582.06 LINE",
"1003.11 627.34 LINE",
"993.35 584.09 OFFCURVE",
"989.35 524.96 OFFCURVE",
"989.35 432.99 CURVE SMOOTH"
);
},
{
closed = 1;
nodes = (
"712.51 680.47 LINE",
"706.63 662.8 OFFCURVE",
"700.69 638.235 OFFCURVE",
"700.69 616.565 CURVE SMOOTH",
"700.69 552.15 OFFCURVE",
"755.765 552.69 OFFCURVE",
"774.415 552.69 CURVE SMOOTH",
"1128.77 552.69 LINE",
"1128.77 582.06 LINE SMOOTH",
"1128.77 651.31 OFFCURVE",
"1099.13 680.47 OFFCURVE",
"1016.36 680.47 CURVE SMOOTH"
);
}
);
width = 1271.4;
},
{
anchors = (
{
name = bottom;
position = "{687, 0}";
},
{
name = top;
position = "{699, 1464}";
}
);
layerId = "E5C657BD-868A-4531-8053-230689A73369";
paths = (
{
closed = 1;
nodes = (
"1062.15 1337.215 OFFCURVE",
"889.051 1395.058 OFFCURVE",
"708.075 1395.058 CURVE SMOOTH",
"386.826 1395.058 OFFCURVE",
"75.536 1162.28 OFFCURVE",
"75.536 673.843 CURVE SMOOTH",
"75.536 250.014 OFFCURVE",
"264.505 -29.058 OFFCURVE",
"677.843 -29.058 CURVE SMOOTH",
"890.812 -29.058 OFFCURVE",
"1082.184 14 OFFCURVE",
"1199.126 53.57 CURVE",
"1039.454 264.614 LINE",
"972.396 244.416 OFFCURVE",
"861.959 211.904 OFFCURVE",
"730.819 211.904 CURVE SMOOTH",
"509.16 211.904 OFFCURVE",
"387.706 353.754 OFFCURVE",
"387.706 671.686 CURVE SMOOTH",
"387.706 1002.724 OFFCURVE",
"521.068 1141.98 OFFCURVE",
"724.679 1141.98 CURVE SMOOTH",
"839.075 1141.98 OFFCURVE",
"961.215 1097.782 OFFCURVE",
"1058.43 1031.898 CURVE",
"1120.464 1072.13 OFFCURVE",
"1188.498 1164.71 OFFCURVE",
"1195.44 1251.802 CURVE"
);
},
{
closed = 1;
nodes = (
"912.13 49.884 LINE",
"1199.126 53.57 LINE",
"1199.126 578.628 LINE",
"939.618 665.092 LINE",
"916.13 578.942 OFFCURVE",
"912.13 470.048 OFFCURVE",
"912.13 376.362 CURVE SMOOTH"
);
},
{
closed = 1;
nodes = (
"683.338 767.986 LINE",
"670.594 731.44 OFFCURVE",
"661.222 681.993 OFFCURVE",
"661.222 641.447 CURVE SMOOTH",
"661.222 543.57 OFFCURVE",
"712.007 513.222 OFFCURVE",
"807.877 513.222 CURVE SMOOTH",
"1199.126 513.222 LINE",
"1199.126 578.628 LINE SMOOTH",
"1199.126 690.778 OFFCURVE",
"1148.894 767.986 OFFCURVE",
"995.768 767.986 CURVE SMOOTH"
);
}
);
width = 1305.72;
}
);
leftKerningGroup = C;
rightKerningGroup = G;
unicode = 0047;
},
{
glyphname = H;
lastChange = "2020-04-09 11:32:39 +0000";
layers = (
{
anchors = (
{
name = bottom;
position = "{667, 0}";
},
{
name = top;
position = "{666, 1464}";
}
);
layerId = "FA2AC253-0460-4F3F-AE23-6289F77EFFDF";
paths = (
{
closed = 1;
nodes = (
"871.11 643.17 LINE",
"882.84 643.17 OFFCURVE",
"979.71 645.17 OFFCURVE",
"993.47 645.17 CURVE SMOOTH",
"1020.9 645.17 OFFCURVE",
"1048.27 643.17 OFFCURVE",
"1075.7 643.17 CURVE",
"1075.7 768.89 LINE",
"1048.27 768.89 OFFCURVE",
"1020.9 766.89 OFFCURVE",
"993.47 766.89 CURVE SMOOTH",
"979.71 766.89 OFFCURVE",
"882.84 768.89 OFFCURVE",
"871.11 768.89 CURVE SMOOTH",
"462.26 768.89 LINE SMOOTH",
"450.53 768.89 OFFCURVE",
"353.66 766.89 OFFCURVE",
"339.9 766.89 CURVE SMOOTH",
"312.47 766.89 OFFCURVE",
"285.1 768.89 OFFCURVE",
"257.67 768.89 CURVE",
"257.67 643.17 LINE",
"285.1 643.17 OFFCURVE",
"312.47 645.17 OFFCURVE",
"339.9 645.17 CURVE SMOOTH",
"353.66 645.17 OFFCURVE",
"450.53 643.17 OFFCURVE",
"462.26 643.17 CURVE SMOOTH"
);
},
{
closed = 1;
nodes = (
"341.9 497.17 LINE SMOOTH",
"341.9 553.17 OFFCURVE",
"339.9 591.17 OFFCURVE",
"339.9 645.17 CURVE SMOOTH",
"339.9 766.89 LINE SMOOTH",
"339.9 820.89 OFFCURVE",
"341.9 858.89 OFFCURVE",
"341.9 914.89 CURVE SMOOTH",
"341.9 1366 LINE",
"322.44 1369.91 OFFCURVE",
"297.07 1371.91 OFFCURVE",
"269.31 1371.91 CURVE SMOOTH",
"243.52 1371.91 OFFCURVE",
"218.24 1369.91 OFFCURVE",
"200.78 1366 CURVE",
"200.78 0 LINE",
"218.24 -3.91 OFFCURVE",
"243.52 -5.91 OFFCURVE",
"269.31 -5.91 CURVE SMOOTH",
"297.07 -5.91 OFFCURVE",
"322.44 -3.91 OFFCURVE",
"341.9 0 CURVE"
);
},
{
closed = 1;
nodes = (
"991.47 0 LINE",
"1008.87 -3.91 OFFCURVE",
"1034.24 -5.91 OFFCURVE",
"1059.94 -5.91 CURVE SMOOTH",
"1087.67 -5.91 OFFCURVE",
"1113.16 -3.91 OFFCURVE",
"1132.59 0 CURVE",
"1132.59 1366 LINE",
"1113.1 1369.91 OFFCURVE",
"1087.82 1371.91 OFFCURVE",
"1060 1371.91 CURVE SMOOTH",
"1034.27 1371.91 OFFCURVE",
"1008.9 1369.91 OFFCURVE",
"991.47 1366 CURVE",
"991.47 914.89 LINE SMOOTH",
"991.47 858.89 OFFCURVE",
"993.47 820.89 OFFCURVE",
"993.47 766.89 CURVE SMOOTH",
"993.47 645.17 LINE SMOOTH",
"993.47 591.17 OFFCURVE",
"991.47 553.17 OFFCURVE",
"991.47 497.17 CURVE SMOOTH"
);
}
);
width = 1333.37;
},
{
anchors = (
{
name = bottom;
position = "{685, 0}";
},
{
name = top;
position = "{685, 1466}";
}
);
layerId = "E5C657BD-868A-4531-8053-230689A73369";
paths = (
{
closed = 1;
nodes = (
"807.618 576.246 LINE",
"834.792 576.246 OFFCURVE",
"881.898 578.246 OFFCURVE",
"909.386 578.246 CURVE SMOOTH",
"969.42 578.246 OFFCURVE",
"1032.826 576.246 OFFCURVE",
"1092.86 576.246 CURVE",
"1092.86 832.382 LINE",
"1032.826 832.382 OFFCURVE",
"969.42 830.382 OFFCURVE",
"909.386 830.382 CURVE SMOOTH",
"881.898 830.382 OFFCURVE",
"834.792 832.382 OFFCURVE",
"807.618 832.382 CURVE SMOOTH",
"561.788 832.382 LINE SMOOTH",
"534.614 832.382 OFFCURVE",
"487.508 830.382 OFFCURVE",
"460.02 830.382 CURVE SMOOTH",
"399.986 830.382 OFFCURVE",
"336.58 832.382 OFFCURVE",
"276.546 832.382 CURVE",
"276.546 576.246 LINE",
"336.58 576.246 OFFCURVE",
"399.986 578.246 OFFCURVE",
"460.02 578.246 CURVE SMOOTH",
"487.508 578.246 OFFCURVE",
"534.614 576.246 OFFCURVE",
"561.788 576.246 CURVE SMOOTH"
);
},
{
closed = 1;
nodes = (
"462.02 430.246 LINE SMOOTH",
"462.02 486.246 OFFCURVE",
"460.02 524.246 OFFCURVE",
"460.02 578.246 CURVE SMOOTH",
"460.02 830.382 LINE SMOOTH",
"460.02 884.382 OFFCURVE",
"462.02 922.382 OFFCURVE",
"462.02 978.382 CURVE SMOOTH",
"462.02 1366 LINE",
"411.672 1375.058 OFFCURVE",
"350.266 1377.058 OFFCURVE",
"308.778 1377.058 CURVE SMOOTH",
"270.976 1377.058 OFFCURVE",
"204.512 1375.058 OFFCURVE",
"156.164 1366 CURVE",
"156.164 0 LINE",
"204.512 -9.058 OFFCURVE",
"270.976 -11.058 OFFCURVE",
"308.778 -11.058 CURVE SMOOTH",
"350.266 -11.058 OFFCURVE",
"411.672 -9.058 OFFCURVE",
"462.02 0 CURVE"
);
},
{
closed = 1;
nodes = (
"907.386 0 LINE",
"959.106 -9.058 OFFCURVE",
"1020.512 -11.058 OFFCURVE",
"1063.372 -11.058 CURVE SMOOTH",
"1106.546 -11.058 OFFCURVE",
"1161.208 -9.058 OFFCURVE",
"1213.242 0 CURVE",
"1213.242 1366 LINE",
"1164.58 1375.058 OFFCURVE",
"1098.116 1377.058 OFFCURVE",
"1060 1377.058 CURVE SMOOTH",
"1018.826 1377.058 OFFCURVE",
"957.42 1375.058 OFFCURVE",
"907.386 1366 CURVE",
"907.386 978.382 LINE SMOOTH",
"907.386 922.382 OFFCURVE",
"909.386 884.382 OFFCURVE",
"909.386 830.382 CURVE SMOOTH",
"909.386 578.246 LINE SMOOTH",
"909.386 524.246 OFFCURVE",
"907.386 486.246 OFFCURVE",
"907.386 430.246 CURVE SMOOTH"
);
}
);
width = 1369.406;
}
);
unicode = 0048;
},
{
glyphname = I;
lastChange = "2020-04-09 11:32:39 +0000";
layers = (
{
anchors = (
{
name = bottom;
position = "{277, 0}";
},
{
name = ogonek;
position = "{350, 0}";
},
{
name = top;
position = "{279, 1464}";
}
);
layerId = "FA2AC253-0460-4F3F-AE23-6289F77EFFDF";
paths = (
{
closed = 1;
nodes = (
"208.84 0 LINE",
"226.3 -3.91 OFFCURVE",
"251.58 -5.91 OFFCURVE",
"277.37 -5.91 CURVE SMOOTH",
"305.13 -5.91 OFFCURVE",
"330.5 -3.91 OFFCURVE",
"349.96 0 CURVE",
"349.96 1366 LINE",
"330.5 1369.91 OFFCURVE",
"305.13 1371.91 OFFCURVE",
"277.37 1371.91 CURVE SMOOTH",
"251.58 1371.91 OFFCURVE",
"226.3 1369.91 OFFCURVE",
"208.84 1366 CURVE"
);
}
);
width = 558.8;
},
{
anchors = (
{
name = bottom;
position = "{313, 0}";
},
{
name = ogonek;
position = "{467, 0}";
},
{
name = top;
position = "{314, 1466}";
}
);
layerId = "E5C657BD-868A-4531-8053-230689A73369";
paths = (
{
closed = 1;
nodes = (
"160.792 0 LINE",
"209.14 -9.058 OFFCURVE",
"275.604 -11.058 OFFCURVE",
"313.406 -11.058 CURVE SMOOTH",
"354.894 -11.058 OFFCURVE",
"416.3 -9.058 OFFCURVE",
"466.648 0 CURVE",
"466.648 1366 LINE",
"416.3 1375.058 OFFCURVE",
"354.894 1377.058 OFFCURVE",
"313.406 1377.058 CURVE SMOOTH",
"275.604 1377.058 OFFCURVE",
"209.14 1375.058 OFFCURVE",
"160.792 1366 CURVE"
);
}
);
width = 627.44;
}
);
unicode = 0049;
},
{
glyphname = J;
lastChange = "2020-04-09 11:32:39 +0000";
layers = (
{
anchors = (
{
name = top;
position = "{626, 1464}";
}
);
layerId = "FA2AC253-0460-4F3F-AE23-6289F77EFFDF";
paths = (
{
closed = 1;
nodes = (
"49.64 140.41 OFFCURVE",
"29.97 105.31 OFFCURVE",
"20 61.91 CURVE",
"101.79 12.06 OFFCURVE",
"219.67 -20 OFFCURVE",
"321.61 -20 CURVE SMOOTH",
"648.83 -20 OFFCURVE",
"694.14 201.88 OFFCURVE",
"694.14 479.28 CURVE SMOOTH",
"694.14 1366 LINE",
"676.71 1369.91 OFFCURVE",
"651.34 1371.91 OFFCURVE",
"625.61 1371.91 CURVE SMOOTH",
"597.79 1371.91 OFFCURVE",
"572.51 1369.91 OFFCURVE",
"553.02 1366 CURVE",
"553.02 449.28 LINE SMOOTH",
"553.02 197.78 OFFCURVE",
"492.6 101.72 OFFCURVE",
"316.09 101.72 CURVE SMOOTH",
"235.82 101.72 OFFCURVE",
"141.28 131.78 OFFCURVE",
"79.19 169.84 CURVE"
);
}
);
width = 866.8;
},
{
anchors = (
{
name = top;
position = "{648, 1464}";
}
);
layerId = "E5C657BD-868A-4531-8053-230689A73369";
paths = (
{
closed = 1;
nodes = (
"70.232 231.358 OFFCURVE",
"31.686 144.778 OFFCURVE",
"20 67.058 CURVE",
"113.802 8.628 OFFCURVE",
"238.546 -20 OFFCURVE",
"343.918 -20 CURVE SMOOTH",
"715.754 -20 OFFCURVE",
"800.532 208.744 OFFCURVE",
"800.532 520.464 CURVE SMOOTH",
"800.532 1366 LINE",
"750.498 1375.058 OFFCURVE",
"689.092 1377.058 OFFCURVE",
"647.918 1377.058 CURVE SMOOTH",
"609.802 1377.058 OFFCURVE",
"543.338 1375.058 OFFCURVE",
"494.676 1366 CURVE",
"494.676 490.464 LINE SMOOTH",
"494.676 324.764 OFFCURVE",
"458.28 232.136 OFFCURVE",
"310.942 232.136 CURVE SMOOTH",
"246.116 232.136 OFFCURVE",
"182.464 258.764 OFFCURVE",
"125.522 293.392 CURVE"
);
}
);
width = 935.44;
}
);
leftKerningGroup = J;
rightKerningGroup = U;
unicode = 004A;
},
{
glyphname = K;
lastChange = "2020-04-09 11:32:39 +0000";
layers = (
{
anchors = (
{
name = bottom;
position = "{605, 0}";
},
{
name = top;
position = "{599, 1464}";
}
);
layerId = "FA2AC253-0460-4F3F-AE23-6289F77EFFDF";
paths = (
{
closed = 1;
nodes = (
"200.78 0 LINE",
"218.24 -3.91 OFFCURVE",
"243.52 -5.91 OFFCURVE",
"269.31 -5.91 CURVE SMOOTH",
"297.07 -5.91 OFFCURVE",
"322.44 -3.91 OFFCURVE",
"341.9 0 CURVE",
"341.9 1366 LINE",
"322.44 1369.91 OFFCURVE",
"297.07 1371.91 OFFCURVE",
"269.31 1371.91 CURVE SMOOTH",
"243.52 1371.91 OFFCURVE",
"218.24 1369.91 OFFCURVE",
"200.78 1366 CURVE"
);
},
{
closed = 1;
nodes = (
"1086.47 61.04 OFFCURVE",
"1060.35 93.085 OFFCURVE",
"1034.56 156.23 CURVE SMOOTH",
"907.84 473.34 LINE SMOOTH",
"834.36 658.18 OFFCURVE",
"765.3 737.76 OFFCURVE",
"573.84 737.76 CURVE SMOOTH",
"267.31 737.76 LINE",
"267.31 635.26 LINE",
"401.85 641.2 OFFCURVE",
"479.67 641.08 OFFCURVE",
"509.19 641.08 CURVE SMOOTH",
"643.82 641.08 OFFCURVE",
"714.12 584.96 OFFCURVE",
"780.54 416.27 CURVE SMOOTH",
"911.44 84.71 LINE SMOOTH",
"935.2 23.7 OFFCURVE",
"952.84 -9.88 OFFCURVE",
"1016 -9.88 CURVE SMOOTH",
"1047.13 -9.88 OFFCURVE",
"1094.53 7.85 OFFCURVE",
"1114.17 39.37 CURVE"
);
},
{
closed = 1;
nodes = (
"561.16 814.5 LINE SMOOTH",
"541.28 782.86 OFFCURVE",
"527.25 766.83 OFFCURVE",
"493.52 766.83 CURVE SMOOTH",
"432.67 766.845 OFFCURVE",
"332.22 764.845 OFFCURVE",
"267.31 760.8 CURVE",
"267.31 676.33 LINE",
"499.13 676.33 LINE SMOOTH",
"591.45 676.33 OFFCURVE",
"660.82 725.73 OFFCURVE",
"708.37 800.62 CURVE SMOOTH",
"1051.99 1350.06 LINE",
"1040.08 1365.97 LINE",
"1012.65 1367.91 OFFCURVE",
"991.55 1369.88 OFFCURVE",
"965.97 1369.88 CURVE SMOOTH",
"908.54 1369.88 OFFCURVE",
"890.78 1344.03 OFFCURVE",
"862.96 1298.51 CURVE SMOOTH"
);
}
);
width = 1160.71;
},
{
anchors = (
{
name = bottom;
position = "{653, 0}";
},
{
name = top;
position = "{646, 1464}";
}
);
layerId = "E5C657BD-868A-4531-8053-230689A73369";
paths = (
{
closed = 1;
nodes = (
"156.164 0 LINE",
"204.512 -9.058 OFFCURVE",
"270.976 -11.058 OFFCURVE",
"308.778 -11.058 CURVE SMOOTH",
"350.266 -11.058 OFFCURVE",
"411.672 -9.058 OFFCURVE",
"462.02 0 CURVE",
"462.02 1366 LINE",
"411.672 1375.058 OFFCURVE",
"350.266 1377.058 OFFCURVE",
"308.778 1377.058 CURVE SMOOTH",
"270.976 1377.058 OFFCURVE",
"204.512 1375.058 OFFCURVE",
"156.164 1366 CURVE"
);
},
{
closed = 1;
nodes = (
"1173.986 115.952 OFFCURVE",
"1154.73 145.423 OFFCURVE",
"1116.928 257.474 CURVE SMOOTH",
"1031.392 511.092 LINE SMOOTH",
"985.368 647.884 OFFCURVE",
"919.74 751.488 OFFCURVE",
"697.392 751.488 CURVE SMOOTH",
"306.778 751.488 LINE",
"306.778 563.188 LINE",
"410.43 572.56 OFFCURVE",
"498.546 579.304 OFFCURVE",
"555.522 579.304 CURVE SMOOTH",
"654.116 579.304 OFFCURVE",
"707.256 530.048 OFFCURVE",
"749.652 400.826 CURVE SMOOTH",
"829.072 158.498 LINE SMOOTH",
"866.56 40.86 OFFCURVE",
"904.792 -16.744 OFFCURVE",
"1016 -16.744 CURVE SMOOTH",
"1096.894 -16.744 OFFCURVE",
"1178.614 16.43 OFFCURVE",
"1218.846 75.406 CURVE"
);
},
{
closed = 1;
nodes = (
"609.208 900.3 LINE SMOOTH",
"582.464 848.068 OFFCURVE",
"570.15 833.754 OFFCURVE",
"520.976 833.754 CURVE SMOOTH",
"451.546 832.911 OFFCURVE",
"376.836 830.911 OFFCURVE",
"306.778 829.44 CURVE",
"306.778 657.454 LINE",
"548.894 657.454 LINE SMOOTH",
"737.31 657.454 OFFCURVE",
"842.716 741.174 OFFCURVE",
"916.006 879.556 CURVE SMOOTH",
"1166.962 1346.628 LINE",
"1149.904 1367.686 LINE",
"1089.87 1373.058 OFFCURVE",
"1017.29 1376.744 OFFCURVE",
"967.686 1376.744 CURVE SMOOTH",
"877.652 1376.744 OFFCURVE",
"846.164 1342.314 OFFCURVE",
"808.048 1269.338 CURVE SMOOTH"
);
}
);
width = 1234.498;
}
);
rightKerningGroup = K;
unicode = 004B;
},
{
glyphname = L;
lastChange = "2020-04-09 11:32:39 +0000";
layers = (
{
anchors = (
{
name = bottom;
position = "{578, 0}";
},
{
name = periodcentered;
position = "{1008, 786}";
},
{
name = top;
position = "{269, 1464}";
},
{
name = topright;
position = "{457, 870}";
}
);
layerId = "FA2AC253-0460-4F3F-AE23-6289F77EFFDF";
paths = (
{
closed = 1;
nodes = (
"341.93 1279.65 LINE SMOOTH",
"341.93 1340.33 OFFCURVE",
"332.86 1371.88 OFFCURVE",
"269.82 1371.88 CURVE SMOOTH",
"212.78 1371.88 LINE",
"200.81 1359.91 LINE",
"200.81 96.65 LINE SMOOTH",
"200.81 31.46 OFFCURVE",
"238.27 0.09 OFFCURVE",
"283.16 0.09 CURVE SMOOTH",
"341.93 0.09 LINE"
);
},
{
closed = 1;
nodes = (
"513.69 125.69 LINE SMOOTH",
"424.53 125.69 OFFCURVE",
"303.43 119.81 OFFCURVE",
"214.81 106.08 CURVE",
"283.16 0.09 LINE",
"851.02 0.09 LINE SMOOTH",
"916.535 0.09 OFFCURVE",
"945.04 22.28 OFFCURVE",
"945.04 125.69 CURVE"
);
}
);
width = 1009.43;
},
{
anchors = (
{
name = bottom;
position = "{571, 0}";
},
{
name = periodcentered;
position = "{1042, 786}";
},
{
name = top;
position = "{305, 1456}";
},
{
name = topright;
position = "{508, 894}";
}
);
layerId = "E5C657BD-868A-4531-8053-230689A73369";
paths = (
{
closed = 1;
nodes = (
"460.334 1185.27 LINE SMOOTH",
"460.334 1321.454 OFFCURVE",
"398.068 1378.744 OFFCURVE",
"280.116 1378.744 CURVE SMOOTH",
"168.164 1378.744 LINE",
"154.478 1365.058 LINE",
"154.478 173.87 LINE SMOOTH",
"154.478 62.348 OFFCURVE",
"222.826 -5.058 OFFCURVE",
"331.208 -5.058 CURVE SMOOTH",
"460.334 -5.058 LINE"
);
},
{
closed = 1;
nodes = (
"645.822 257.822 LINE SMOOTH",
"508.614 257.822 OFFCURVE",
"336.034 245.078 OFFCURVE",
"168.478 215.904 CURVE",
"331.208 -5.058 LINE",
"792.676 -5.058 LINE SMOOTH",
"943.133 -5.058 OFFCURVE",
"999.952 63.464 OFFCURVE",
"999.952 257.822 CURVE"
);
}
);
width = 1042.034;
}
);
rightKerningGroup = L;
unicode = 004C;
},
{
glyphname = M;
lastChange = "2020-04-09 11:32:39 +0000";
layers = (
{
anchors = (
{
name = bottom;
position = "{790, 0}";
},
{
name = top;
position = "{789, 1464}";
}
);
layerId = "FA2AC253-0460-4F3F-AE23-6289F77EFFDF";
paths = (
{
closed = 1;
nodes = (
"173.02 1.97 LINE",
"190.57 -3.94 OFFCURVE",
"217.97 -7.94 OFFCURVE",
"241.52 -7.94 CURVE SMOOTH",
"265.13 -7.94 OFFCURVE",
"288.77 -5.94 OFFCURVE",
"310.38 -2 CURVE",
"368.83 846.68 LINE SMOOTH",
"374.8 933.81 OFFCURVE",
"378.74 1105.54 OFFCURVE",
"384.83 1217.24 CURVE",
"394.77 1217.24 LINE",
"720.84 214.21 LINE",
"740.39 210.27 OFFCURVE",
"763.55 208.3 OFFCURVE",
"789.31 208.3 CURVE SMOOTH",
"812.98 208.3 OFFCURVE",
"838.2 210.27 OFFCURVE",
"859.78 214.21 CURVE",
"1185.85 1217.24 LINE",
"1195.79 1217.24 LINE",
"1199.85 1105.54 OFFCURVE",
"1205.82 933.81 OFFCURVE",
"1211.79 846.68 CURVE SMOOTH",
"1270.24 -2 LINE",
"1291.85 -5.94 OFFCURVE",
"1311.43 -7.94 OFFCURVE",
"1335.04 -7.94 CURVE SMOOTH",
"1358.59 -7.94 OFFCURVE",
"1388.02 -3.94 OFFCURVE",
"1407.6 1.97 CURVE",
"1301.6 1366.03 LINE",
"1262.05 1371.94 OFFCURVE",
"1222.86 1371.88 OFFCURVE",
"1205.52 1371.88 CURVE SMOOTH",
"1186.15 1371.88 OFFCURVE",
"1154.87 1371.94 OFFCURVE",
"1115.32 1366.03 CURVE",
"877.4 648.37 LINE SMOOTH",
"853.19 578.01 OFFCURVE",
"799.07 386.37 OFFCURVE",
"795.28 361.6 CURVE",
"785.34 361.6 LINE",
"781.55 386.37 OFFCURVE",
"727.43 578.01 OFFCURVE",
"703.22 648.37 CURVE SMOOTH",
"465.3 1366.03 LINE",
"431.84 1371.94 OFFCURVE",
"394.47 1371.88 OFFCURVE",
"375.1 1371.88 CURVE SMOOTH",
"357.76 1371.88 OFFCURVE",
"314.51 1371.94 OFFCURVE",
"279.02 1366.03 CURVE"
);
}
);
width = 1580.62;
},
{
anchors = (
{
name = bottom;
position = "{830, 0}";
},
{
name = top;
position = "{830, 1464}";
}
);
layerId = "E5C657BD-868A-4531-8053-230689A73369";
paths = (
{
closed = 1;
nodes = (
"114.676 3.686 LINE",
"157.966 -7.372 OFFCURVE",
"219.686 -11.372 OFFCURVE",
"268.976 -11.372 CURVE SMOOTH",
"314.894 -11.372 OFFCURVE",
"359.126 -9.372 OFFCURVE",
"403.044 -2 CURVE",
"435.754 578.984 LINE SMOOTH",
"443.44 715.878 OFFCURVE",
"450.812 903.052 OFFCURVE",
"451.754 1031.912 CURVE",
"465.126 1031.912 LINE",
"672.792 202.198 LINE",
"718.082 194.826 OFFCURVE",
"789.29 191.14 OFFCURVE",
"828.778 191.14 CURVE SMOOTH",
"871.324 191.14 OFFCURVE",
"941.16 194.826 OFFCURVE",
"986.764 202.198 CURVE",
"1194.43 1031.912 LINE",
"1207.802 1031.912 LINE",
"1208.43 903.052 OFFCURVE",
"1216.116 715.878 OFFCURVE",
"1223.802 578.984 CURVE SMOOTH",
"1256.512 -2 LINE",
"1300.43 -9.372 OFFCURVE",
"1344.034 -11.372 OFFCURVE",
"1389.952 -11.372 CURVE SMOOTH",
"1439.242 -11.372 OFFCURVE",
"1501.276 -7.372 OFFCURVE",
"1544.88 3.686 CURVE",
"1438.88 1364.314 LINE",
"1373.59 1375.372 OFFCURVE",
"1288.068 1378.744 OFFCURVE",
"1232.976 1378.744 CURVE SMOOTH",
"1177.57 1378.744 OFFCURVE",
"1105.106 1375.372 OFFCURVE",
"1039.816 1364.314 CURVE",
"911.72 856.006 LINE SMOOTH",
"899.522 806.238 OFFCURVE",
"852.266 594.006 OFFCURVE",
"836.464 498.88 CURVE",
"823.092 498.88 LINE",
"807.29 594.006 OFFCURVE",
"760.034 806.238 OFFCURVE",
"747.836 856.006 CURVE SMOOTH",
"619.74 1364.314 LINE",
"555.392 1375.372 OFFCURVE",
"481.986 1378.744 OFFCURVE",
"426.58 1378.744 CURVE SMOOTH",
"371.488 1378.744 OFFCURVE",
"285.338 1375.372 OFFCURVE",
"220.676 1364.314 CURVE"
);
}
);
width = 1659.556;
}
);
leftKerningGroup = M;
rightKerningGroup = M;
unicode = 004D;
},
{
glyphname = N;
lastChange = "2020-04-09 11:32:39 +0000";
layers = (
{
anchors = (
{
name = bottom;
position = "{670, 0}";
},
{
name = top;
position = "{674, 1464}";
}
);
layerId = "FA2AC253-0460-4F3F-AE23-6289F77EFFDF";
paths = (
{
closed = 1;
nodes = (
"200.78 0 LINE",
"224.36 -3.91 OFFCURVE",
"245.67 -5.91 OFFCURVE",
"265.37 -5.91 CURVE SMOOTH",
"285.04 -5.91 OFFCURVE",
"306.53 -3.91 OFFCURVE",
"332.11 0 CURVE",
"332.11 776.06 LINE SMOOTH",
"332.11 913.61 OFFCURVE",
"324.14 1076.02 OFFCURVE",
"320.32 1195.21 CURVE",
"334.2 1195.09 LINE",
"373.54 1366 LINE",
"350.29 1369.91 OFFCURVE",
"304.77 1371.91 OFFCURVE",
"285.1 1371.91 CURVE SMOOTH",
"269.49 1371.91 OFFCURVE",
"224.36 1369.97 OFFCURVE",
"200.78 1366.09 CURVE"
);
},
{
closed = 1;
nodes = (
"963.65 0 LINE",
"1138.38 39.91 LINE",
"1012.84 165.06 LINE",
"968.6 253.3 OFFCURVE",
"924.63 349.03 OFFCURVE",
"872.6 444.67 CURVE SMOOTH",
"373.54 1366 LINE",
"200.78 1346.39 LINE",
"326.29 1195.15 LINE",
"370.56 1104.94 OFFCURVE",
"412.59 1017.18 OFFCURVE",
"464.71 921.3 CURVE SMOOTH"
);
},
{
closed = 1;
nodes = (
"1126.41 1371.88 LINE",
"1079.31 1371.88 LINE SMOOTH",
"1016.27 1371.88 OFFCURVE",
"1007.02 1340.18 OFFCURVE",
"1007.02 1279.5 CURVE SMOOTH",
"1007.02 610.69 LINE SMOOTH",
"1007.02 472.69 OFFCURVE",
"1012.99 308.31 OFFCURVE",
"1018.81 165 CURVE",
"1004.96 165.12 LINE",
"963.65 0 LINE",
"986.9 -3.91 OFFCURVE",
"1034.45 -5.91 OFFCURVE",
"1052.09 -5.91 CURVE SMOOTH",
"1069.73 -5.91 OFFCURVE",
"1114.83 -3.97 OFFCURVE",
"1138.38 -0.09 CURVE",
"1138.38 1361.94 LINE"
);
}
);
width = 1339.16;
},
{
anchors = (
{
name = bottom;
position = "{694, 0}";
},
{
name = top;
position = "{701, 1464}";
}
);
layerId = "E5C657BD-868A-4531-8053-230689A73369";
paths = (
{
closed = 1;
nodes = (
"156.164 0 LINE",
"203.768 -9.058 OFFCURVE",
"264.546 -11.058 OFFCURVE",
"301.406 -11.058 CURVE SMOOTH",
"339.952 -11.058 OFFCURVE",
"390.614 -9.058 OFFCURVE",
"440.218 0 CURVE",
"440.218 429.428 LINE SMOOTH",
"440.218 592.718 OFFCURVE",
"430.532 846.076 OFFCURVE",
"416.416 1011.598 CURVE",
"437.16 1018.342 LINE",
"514.252 1366 LINE",
"448.102 1375.058 OFFCURVE",
"375.126 1377.058 OFFCURVE",
"336.58 1377.058 CURVE SMOOTH",
"298.662 1377.058 OFFCURVE",
"203.768 1371.686 OFFCURVE",
"156.164 1360.942 CURVE"
);
},
{
closed = 1;
nodes = (
"869.27 0 LINE",
"1231.044 45.058 LINE",
"964.792 333.228 LINE",
"934.28 407.74 OFFCURVE",
"888.594 518.914 OFFCURVE",
"838.28 635.146 CURVE SMOOTH",
"514.252 1366 LINE",
"156.164 1324.082 LINE",
"424.102 1014.97 LINE",
"452.928 936.772 OFFCURVE",
"493.242 835.284 OFFCURVE",
"538.498 732.54 CURVE SMOOTH"
);
},
{
closed = 1;
nodes = (
"1217.358 1378.744 LINE",
"1118.778 1378.744 LINE SMOOTH",
"1000.826 1378.744 OFFCURVE",
"948.676 1329.884 OFFCURVE",
"948.676 1193.7 CURVE SMOOTH",
"948.676 914.422 LINE SMOOTH",
"948.676 776.422 OFFCURVE",
"956.362 519.378 OFFCURVE",
"972.478 336.6 CURVE",
"950.048 329.856 LINE",
"869.27 0 LINE",
"935.42 -9.058 OFFCURVE",
"1008.71 -11.058 OFFCURVE",
"1046.942 -11.058 CURVE SMOOTH",
"1085.174 -11.058 OFFCURVE",
"1181.754 -5.686 OFFCURVE",
"1231.044 5.058 CURVE",
"1231.044 1365.372 LINE"
);
}
);
width = 1387.208;
}
);
unicode = 004E;
},
{
glyphname = O;
lastChange = "2020-04-09 11:32:39 +0000";
layers = (
{
anchors = (
{
name = bottom;
position = "{652, 0}";
},
{
name = ogonek;
position = "{835, 8}";
},
{
name = top;
position = "{652, 1464}";
},
{
name = topright;
position = "{994, 1346}";
}
);
layerId = "FA2AC253-0460-4F3F-AE23-6289F77EFFDF";
paths = (
{
closed = 1;
nodes = (
"265.75 946.84 OFFCURVE",
"340.47 1269.92 OFFCURVE",
"651.76 1269.92 CURVE SMOOTH",
"963.05 1269.92 OFFCURVE",
"1035.74 946.84 OFFCURVE",
"1035.74 684 CURVE SMOOTH",
"1035.74 421.16 OFFCURVE",
"963.05 96.08 OFFCURVE",
"651.76 96.08 CURVE SMOOTH",
"340.47 96.08 OFFCURVE",
"265.75 421.16 OFFCURVE",
"265.75 684 CURVE SMOOTH"
);
},
{
closed = 1;
nodes = (
"116.72 297.63 OFFCURVE",
"285.405 -23.91 OFFCURVE",
"651.76 -23.91 CURVE SMOOTH",
"1016.13 -23.91 OFFCURVE",
"1186.8 294.645 OFFCURVE",
"1186.8 684 CURVE SMOOTH",
"1186.8 1069.37 OFFCURVE",
"1017.1 1389.91 OFFCURVE",
"651.76 1389.91 CURVE SMOOTH",
"288.405 1389.91 OFFCURVE",
"116.72 1071.34 OFFCURVE",
"116.72 684 CURVE SMOOTH"
);
}
);
width = 1303.52;
},
{
anchors = (
{
name = bottom;
position = "{665, 0}";
},
{
name = ogonek;
position = "{871, 1}";
},
{
name = top;
position = "{665, 1464}";
},
{
name = topright;
position = "{1094, 1338}";
}
);
layerId = "E5C657BD-868A-4531-8053-230689A73369";
paths = (
{
closed = 1;
nodes = (
"394.45 898.792 OFFCURVE",
"427.986 1160.096 OFFCURVE",
"665.488 1160.096 CURVE SMOOTH",
"902.99 1160.096 OFFCURVE",
"936.212 898.792 OFFCURVE",
"936.212 684 CURVE SMOOTH",
"936.212 469.208 OFFCURVE",
"902.99 205.904 OFFCURVE",
"665.488 205.904 CURVE SMOOTH",
"427.986 205.904 OFFCURVE",
"394.45 469.208 OFFCURVE",
"394.45 684 CURVE SMOOTH"
);
},
{
closed = 1;
nodes = (
"75.536 261.594 OFFCURVE",
"262.239 -29.058 OFFCURVE",
"665.488 -29.058 CURVE SMOOTH",
"1065.894 -29.058 OFFCURVE",
"1255.44 257.751 OFFCURVE",
"1255.44 684 CURVE SMOOTH",
"1255.44 1105.406 OFFCURVE",
"1068.58 1395.058 OFFCURVE",
"665.488 1395.058 CURVE SMOOTH",
"265.239 1395.058 OFFCURVE",
"75.536 1109.092 OFFCURVE",
"75.536 684 CURVE SMOOTH"
);
}
);
width = 1330.976;
}
);
leftKerningGroup = C;
rightKerningGroup = O;
unicode = 004F;
},
{
glyphname = P;
lastChange = "2020-04-09 11:32:39 +0000";
layers = (
{
anchors = (
{
name = top;
position = "{576, 1464}";
}
);
layerId = "FA2AC253-0460-4F3F-AE23-6289F77EFFDF";
paths = (
{
closed = 1;
nodes = (
"1026.5 1228.03 OFFCURVE",
"842.86 1371.91 OFFCURVE",
"589.34 1371.91 CURVE SMOOTH",
"463.76 1371.91 OFFCURVE",
"350.21 1367.91 OFFCURVE",
"212.75 1365.94 CURVE",
"200.78 1353.97 LINE",
"200.78 0 LINE",
"218.24 -3.91 OFFCURVE",
"243.52 -5.91 OFFCURVE",
"269.31 -5.91 CURVE SMOOTH",
"297.07 -5.91 OFFCURVE",
"322.44 -3.91 OFFCURVE",
"341.9 0 CURVE",
"341.9 1253.92 LINE",
"416.23 1251.92 OFFCURVE",
"527.43 1251.92 OFFCURVE",
"595.88 1251.92 CURVE SMOOTH",
"820.93 1251.92 OFFCURVE",
"875.32 1087.47 OFFCURVE",
"875.32 946.72 CURVE SMOOTH",
"875.32 810.06 OFFCURVE",
"820.93 639.49 OFFCURVE",
"595.88 639.49 CURVE SMOOTH",
"527.43 639.49 OFFCURVE",
"357.46 639.58 OFFCURVE",
"283.13 637.61 CURVE",
"283.13 519.47 LINE",
"589.34 519.47 LINE SMOOTH",
"846.92 519.47 OFFCURVE",
"1026.5 667.26 OFFCURVE",
"1026.5 946.72 CURVE SMOOTH"
);
}
);
width = 1106.86;
},
{
anchors = (
{
name = top;
position = "{598, 1464}";
}
);
layerId = "E5C657BD-868A-4531-8053-230689A73369";
paths = (
{
closed = 1;
nodes = (
"1112.3 1226.314 OFFCURVE",
"908.068 1377.058 OFFCURVE",
"627.092 1377.058 CURVE SMOOTH",
"477.488 1377.058 OFFCURVE",
"338.198 1373.058 OFFCURVE",
"169.85 1369.372 CURVE",
"156.164 1355.686 LINE",
"156.164 0 LINE",
"204.512 -9.058 OFFCURVE",
"270.976 -11.058 OFFCURVE",
"308.778 -11.058 CURVE SMOOTH",
"350.266 -11.058 OFFCURVE",
"411.672 -9.058 OFFCURVE",
"462.02 0 CURVE",
"462.02 1144.096 LINE",
"517.474 1142.096 OFFCURVE",
"560.034 1142.096 OFFCURVE",
"602.744 1142.096 CURVE SMOOTH",
"767.734 1142.096 OFFCURVE",
"799.816 1003.386 OFFCURVE",
"799.816 905.536 CURVE SMOOTH",
"799.816 806.628 OFFCURVE",
"767.734 668.662 OFFCURVE",
"602.744 668.662 CURVE SMOOTH",
"560.034 668.662 OFFCURVE",
"388.348 663.604 OFFCURVE",
"332.894 659.918 CURVE",
"332.894 435.386 LINE",
"627.092 435.386 LINE SMOOTH",
"908.696 435.386 OFFCURVE",
"1112.3 595.188 OFFCURVE",
"1112.3 905.536 CURVE SMOOTH"
);
}
);
width = 1172.068;
}
);
unicode = 0050;
},
{
glyphname = Q;
lastChange = "2020-04-09 11:32:38 +0000";
layers = (
{
layerId = "FA2AC253-0460-4F3F-AE23-6289F77EFFDF";
paths = (
{
closed = 1;
nodes = (
"265.84 950.87 OFFCURVE",
"328.26 1269.92 OFFCURVE",
"639.52 1269.92 CURVE SMOOTH",
"950.78 1269.92 OFFCURVE",
"1011.2 950.87 OFFCURVE",
"1011.2 684 CURVE SMOOTH",
"1011.2 417.1 OFFCURVE",
"950.78 102.17 OFFCURVE",
"639.52 102.17 CURVE SMOOTH",
"328.26 102.17 OFFCURVE",
"265.84 417.1 OFFCURVE",
"265.84 684 CURVE SMOOTH"
);
},
{
closed = 1;
nodes = (
"116.72 282.255 OFFCURVE",
"265.075 -23.91 OFFCURVE",
"651.73 -23.91 CURVE SMOOTH",
"715.67 -23.91 OFFCURVE",
"731.01 -8.18 OFFCURVE",
"764.77 7.46 CURVE SMOOTH",
"1035.29 15.58 OFFCURVE",
"1162.32 373.39 OFFCURVE",
"1162.32 684.03 CURVE SMOOTH",
"1162.32 1076.595 OFFCURVE",
"1012.935 1389.91 OFFCURVE",
"639.52 1389.91 CURVE SMOOTH",
"268.105 1389.91 OFFCURVE",
"116.72 1079.595 OFFCURVE",
"116.72 684 CURVE SMOOTH"
);
},
{
closed = 1;
nodes = (
"928.93 -195.79 LINE SMOOTH",
"964.63 -219.4 OFFCURVE",
"998.12 -233.1 OFFCURVE",
"1043.34 -233.1 CURVE SMOOTH",
"1088.35 -233.1 OFFCURVE",
"1141.72 -206.06 OFFCURVE",
"1147.78 -127.05 CURVE",
"1086.11 -125.02 OFFCURVE",
"1034.32 -105.02 OFFCURVE",
"893.75 -4.6 CURVE SMOOTH",
"780.95 76.56 LINE",
"612.9 25.31 LINE"
);
}
);
width = 1279.04;
},
{
layerId = "E5C657BD-868A-4531-8053-230689A73369";
paths = (
{
closed = 1;
nodes = (
"389.392 901.106 OFFCURVE",
"427.788 1160.096 OFFCURVE",
"666.976 1160.096 CURVE SMOOTH",
"906.164 1160.096 OFFCURVE",
"942.56 901.106 OFFCURVE",
"942.56 684 CURVE SMOOTH",
"942.56 468.58 OFFCURVE",
"906.164 206.846 OFFCURVE",
"666.976 206.846 CURVE SMOOTH",
"427.788 206.846 OFFCURVE",
"389.392 468.58 OFFCURVE",
"389.392 684 CURVE SMOOTH"
);
},
{
closed = 1;
nodes = (
"75.536 267.669 OFFCURVE",
"260.785 -29.058 OFFCURVE",
"667.174 -29.058 CURVE SMOOTH",
"734.546 -29.058 OFFCURVE",
"787.638 2.116 OFFCURVE",
"835.126 38.348 CURVE SMOOTH",
"1133.102 39.604 OFFCURVE",
"1258.416 351.082 OFFCURVE",
"1258.416 682.314 CURVE SMOOTH",
"1258.416 1099.761 OFFCURVE",
"1073.853 1395.058 OFFCURVE",
"666.976 1395.058 CURVE SMOOTH",
"262.099 1395.058 OFFCURVE",
"75.536 1102.761 OFFCURVE",
"75.536 684 CURVE SMOOTH"
);
},
{
closed = 1;
nodes = (
"875.734 -207.802 LINE SMOOTH",
"928.594 -253.72 OFFCURVE",
"991.256 -284.58 OFFCURVE",
"1081.092 -284.58 CURVE SMOOTH",
"1182.73 -284.58 OFFCURVE",
"1272.136 -202.628 OFFCURVE",
"1274.764 -66.99 CURVE",
"1194.218 -66.676 OFFCURVE",
"1130.416 -46.676 OFFCURVE",
"1022.45 29.72 CURVE SMOOTH",
"841.01 158.928 LINE",
"561.42 64.778 LINE"
);
}
);
width = 1333.952;
}
);
leftKerningGroup = C;
rightKerningGroup = O;
unicode = 0051;
},
{
glyphname = Q.ss02;
lastChange = "2020-04-09 11:32:38 +0000";
layers = (
{
layerId = "FA2AC253-0460-4F3F-AE23-6289F77EFFDF";
paths = (
{
closed = 1;
nodes = (
"274.57 -42.77 LINE",
"427.94 -42.77 OFFCURVE",
"528.03 -92.8 OFFCURVE",
"674.24 -162.71 CURVE SMOOTH",
"828.42 -236.59 OFFCURVE",
"918.15 -270.26 OFFCURVE",
"1017.76 -270.26 CURVE SMOOTH",
"1100.8 -270.26 OFFCURVE",
"1152.17 -235.04 OFFCURVE",
"1152.17 -157.88 CURVE SMOOTH",
"1152.17 -142.27 OFFCURVE",
"1150.23 -126.6 OFFCURVE",
"1148.29 -118.69 CURVE",
"1116.65 -128.6 OFFCURVE",
"1087.07 -130.54 OFFCURVE",
"1055.37 -130.54 CURVE SMOOTH",
"919.22 -130.54 OFFCURVE",
"780.89 -70.27 OFFCURVE",
"626.38 -13.91 CURVE",
"1080.56 29.7 OFFCURVE",
"1148.29 466.51 OFFCURVE",
"1148.29 686.12 CURVE SMOOTH",
"1148.29 896.06 OFFCURVE",
"1092.29 1130 OFFCURVE",
"944.56 1267.94 CURVE SMOOTH",
"864.71 1343.94 OFFCURVE",
"764.98 1389.91 OFFCURVE",
"605.31 1389.91 CURVE SMOOTH",
"294.03 1389.91 OFFCURVE",
"90.39 1146.12 OFFCURVE",
"90.39 763.64 CURVE SMOOTH",
"90.39 450.09 OFFCURVE",
"241.82 229.4 OFFCURVE",
"464.09 229.4 CURVE SMOOTH",
"553.34 229.4 OFFCURVE",
"588.86 274.98 OFFCURVE",
"588.86 326.05 CURVE SMOOTH",
"588.86 341.84 OFFCURVE",
"586.92 357.57 OFFCURVE",
"582.95 369.45 CURVE",
"367.99 327.03 OFFCURVE",
"239.66 478.02 OFFCURVE",
"239.66 773.25 CURVE SMOOTH",
"239.66 1038.78 OFFCURVE",
"338.17 1269.95 OFFCURVE",
"607.31 1269.95 CURVE SMOOTH",
"926.78 1269.95 OFFCURVE",
"995.11 950.9 OFFCURVE",
"995.11 686.12 CURVE SMOOTH",
"995.11 283.19 OFFCURVE",
"831.08 98.77 OFFCURVE",
"498.75 86.83 CURVE SMOOTH",
"412.6 82.83 OFFCURVE",
"389.11 92.92 OFFCURVE",
"272.57 84.92 CURVE",
"262.66 59.25 OFFCURVE",
"256.72 41.88 OFFCURVE",
"256.72 18.36 CURVE SMOOTH",
"256.72 2.63 OFFCURVE",
"258.69 -15.07 OFFCURVE",
"262.63 -30.86 CURVE"
);
}
);
width = 1268.8;
},
{
layerId = "E5C657BD-868A-4531-8053-230689A73369";
paths = (
{
closed = 1;
nodes = (
"241.966 -113.126 LINE",
"431.372 -113.126 OFFCURVE",
"526.314 -161.44 OFFCURVE",
"660.512 -236.498 CURVE SMOOTH",
"804.396 -317.242 OFFCURVE",
"909.57 -369.788 OFFCURVE",
"1031.488 -369.788 CURVE SMOOTH",
"1169.44 -369.788 OFFCURVE",
"1256.846 -289.952 OFFCURVE",
"1256.846 -164.744 CURVE SMOOTH",
"1256.846 -126.826 OFFCURVE",
"1251.474 -92.28 OFFCURVE",
"1246.102 -79.222 CURVE",
"1193.87 -94.28 OFFCURVE",
"1140.266 -99.652 OFFCURVE",
"1091.406 -99.652 CURVE SMOOTH",
"963.836 -99.652 OFFCURVE",
"844.382 -54.826 OFFCURVE",
"719.044 -19.058 CURVE",
"1162.928 46.86 OFFCURVE",
"1246.102 437.338 OFFCURVE",
"1246.102 679.256 CURVE SMOOTH",
"1246.102 892.628 OFFCURVE",
"1190.102 1130 OFFCURVE",
"1026.928 1271.372 CURVE SMOOTH",
"938.498 1347.372 OFFCURVE",
"823.324 1395.058 OFFCURVE",
"644.778 1395.058 CURVE SMOOTH",
"292.314 1395.058 OFFCURVE",
"68.082 1139.256 OFFCURVE",
"68.082 784.232 CURVE SMOOTH",
"68.082 444.942 OFFCURVE",
"252.116 263.72 OFFCURVE",
"458.942 263.72 CURVE SMOOTH",
"591.092 263.72 OFFCURVE",
"654.068 333.324 OFFCURVE",
"654.068 437.59 CURVE SMOOTH",
"654.068 465.392 OFFCURVE",
"648.696 496.566 OFFCURVE",
"643.01 515.31 CURVE",
"482.962 496.914 OFFCURVE",
"373.508 591.276 OFFCURVE",
"373.508 816.15 CURVE SMOOTH",
"373.508 994.164 OFFCURVE",
"442.846 1158.41 OFFCURVE",
"646.778 1158.41 CURVE SMOOTH",
"882.164 1158.41 OFFCURVE",
"931.618 899.42 OFFCURVE",
"931.618 679.256 CURVE SMOOTH",
"931.618 329.522 OFFCURVE",
"769.304 169.126 OFFCURVE",
"455.85 153.754 CURVE SMOOTH",
"378.28 149.754 OFFCURVE",
"325.618 154.696 OFFCURVE",
"239.966 146.696 CURVE",
"224.908 102.15 OFFCURVE",
"215.536 48.744 OFFCURVE",
"215.536 -2.232 CURVE SMOOTH",
"215.536 -33.406 OFFCURVE",
"219.222 -68.266 OFFCURVE",
"226.594 -96.068 CURVE"
);
}
);
width = 1337.44;
}
);
leftKerningGroup = C;
rightKerningGroup = O;
},
{
glyphname = R;
lastChange = "2020-04-09 11:32:39 +0000";
layers = (
{
anchors = (
{
name = bottom;
position = "{605, 0}";
},
{
name = top;
position = "{590, 1464}";
}
);
layerId = "FA2AC253-0460-4F3F-AE23-6289F77EFFDF";
paths = (
{
closed = 1;
nodes = (
"1042.56 1219.58 OFFCURVE",
"889.46 1371.91 OFFCURVE",
"611.46 1371.91 CURVE SMOOTH",
"485.88 1371.91 OFFCURVE",
"350.21 1367.91 OFFCURVE",
"212.75 1365.94 CURVE",
"200.78 1353.97 LINE",
"200.78 0 LINE",
"218.24 -3.91 OFFCURVE",
"243.55 -5.91 OFFCURVE",
"269.34 -5.91 CURVE SMOOTH",
"297.1 -5.91 OFFCURVE",
"322.5 -3.91 OFFCURVE",
"341.96 0 CURVE",
"341.96 1253.86 LINE",
"416.23 1251.86 OFFCURVE",
"543.46 1251.86 OFFCURVE",
"611.91 1251.86 CURVE SMOOTH",
"837.08 1251.86 OFFCURVE",
"893.41 1111.02 OFFCURVE",
"893.41 978.57 CURVE SMOOTH",
"893.41 850.12 OFFCURVE",
"837.08 705.28 OFFCURVE",
"611.91 705.28 CURVE SMOOTH",
"510.98 705.28 OFFCURVE",
"377.37 703.34 OFFCURVE",
"283.1 699.34 CURVE",
"283.1 581.29 LINE",
"558.09 581.29 LINE SMOOTH",
"694.57 581.29 OFFCURVE",
"742.72 500.9 OFFCURVE",
"782.99 394.3 CURVE SMOOTH",
"901.74 82.65 LINE SMOOTH",
"925.44 21.64 OFFCURVE",
"947.17 -11.91 OFFCURVE",
"1004.24 -11.91 CURVE SMOOTH",
"1035.37 -11.91 OFFCURVE",
"1082.74 1.67 OFFCURVE",
"1102.41 35.34 CURVE",
"1070.59 60.205 OFFCURVE",
"1052.845 87.83 OFFCURVE",
"1018.65 177.25 CURVE SMOOTH",
"911.9 454.99 LINE SMOOTH",
"883.945 526.735 OFFCURVE",
"837.99 594.72 OFFCURVE",
"778.23 614.6 CURVE",
"943.04 662.66 OFFCURVE",
"1042.56 798.78 OFFCURVE",
"1042.56 978.57 CURVE SMOOTH"
);
}
);
width = 1181.22;
},
{
anchors = (
{
name = bottom;
position = "{646, 0}";
},
{
name = top;
position = "{603, 1464}";
}
);
layerId = "E5C657BD-868A-4531-8053-230689A73369";
paths = (
{
closed = 1;
nodes = (
"1124.928 1243.604 OFFCURVE",
"920.348 1377.058 OFFCURVE",
"642.348 1377.058 CURVE SMOOTH",
"492.744 1377.058 OFFCURVE",
"338.198 1373.058 OFFCURVE",
"169.85 1369.372 CURVE",
"156.164 1355.686 LINE",
"156.164 0 LINE",
"204.512 -9.058 OFFCURVE",
"269.29 -11.058 OFFCURVE",
"307.092 -11.058 CURVE SMOOTH",
"348.58 -11.058 OFFCURVE",
"408.3 -9.058 OFFCURVE",
"458.648 0 CURVE",
"458.648 1147.468 LINE",
"517.474 1145.468 OFFCURVE",
"574.348 1145.468 OFFCURVE",
"617.058 1145.468 CURVE SMOOTH",
"775.304 1145.468 OFFCURVE",
"812.758 1052.676 OFFCURVE",
"812.758 945.966 CURVE SMOOTH",
"812.758 843.256 OFFCURVE",
"775.304 746.464 OFFCURVE",
"617.058 746.464 CURVE SMOOTH",
"569.324 746.464 OFFCURVE",
"413.406 741.092 OFFCURVE",
"334.58 737.092 CURVE",
"334.58 507.502 LINE",
"552.942 507.502 LINE SMOOTH",
"661.966 507.502 OFFCURVE",
"701.536 449.42 OFFCURVE",
"726.362 377.14 CURVE SMOOTH",
"802.212 159.87 LINE SMOOTH",
"843.072 42.232 OFFCURVE",
"880.246 -17.058 OFFCURVE",
"990.512 -17.058 CURVE SMOOTH",
"1071.406 -17.058 OFFCURVE",
"1154.812 20.546 OFFCURVE",
"1193.358 73.092 CURVE",
"1151.242 105.679 OFFCURVE",
"1118.911 154.754 OFFCURVE",
"1095.87 220.15 CURVE SMOOTH",
"1032.02 398.362 LINE SMOOTH",
"1001.491 484.693 OFFCURVE",
"952.962 553.536 OFFCURVE",
"879.474 580.28 CURVE",
"997.952 624.908 OFFCURVE",
"1124.928 754.164 OFFCURVE",
"1124.928 945.966 CURVE SMOOTH"
);
}
);
width = 1225.836;
}
);
rightKerningGroup = R;
unicode = 0052;
},
{
glyphname = S;
lastChange = "2020-04-09 11:32:39 +0000";
layers = (
{
anchors = (
{
name = bottom;
position = "{556, 0}";
},
{
name = top;
position = "{565, 1464}";
}
);
layerId = "FA2AC253-0460-4F3F-AE23-6289F77EFFDF";
paths = (
{
closed = 1;
nodes = (
"204.42 36.21 OFFCURVE",
"374 -23.91 OFFCURVE",
"542.09 -23.91 CURVE SMOOTH",
"859.58 -23.91 OFFCURVE",
"1009.16 137.7 OFFCURVE",
"1009.16 359.37 CURVE SMOOTH",
"1009.16 543.55 OFFCURVE",
"866.605 654.04 OFFCURVE",
"711.22 718.8 CURVE SMOOTH",
"477.415 816.74 LINE SMOOTH",
"371.115 860.86 OFFCURVE",
"278.095 921.22 OFFCURVE",
"278.095 1034.21 CURVE SMOOTH",
"278.095 1173.59 OFFCURVE",
"399.325 1268.07 OFFCURVE",
"570.225 1268.07 CURVE SMOOTH",
"670.105 1268.07 OFFCURVE",
"793.655 1230.25 OFFCURVE",
"899.715 1176.16 CURVE",
"933.265 1203.68 OFFCURVE",
"956.995 1253.02 OFFCURVE",
"956.905 1294.21 CURVE",
"852.905 1344.15 OFFCURVE",
"715.535 1389.91 OFFCURVE",
"564.135 1389.91 CURVE SMOOTH",
"298.225 1389.91 OFFCURVE",
"135.065 1219.88 OFFCURVE",
"135.065 1022.72 CURVE SMOOTH",
"135.065 865.26 OFFCURVE",
"232.69 761.335 OFFCURVE",
"402.765 689.29 CURVE SMOOTH",
"644.78 587.26 LINE SMOOTH",
"764.915 536.185 OFFCURVE",
"864.28 454.84 OFFCURVE",
"864.28 327.49 CURVE SMOOTH",
"864.28 186.26 OFFCURVE",
"739.02 101.99 OFFCURVE",
"547.82 101.99 CURVE SMOOTH",
"413.97 101.99 OFFCURVE",
"266 157.87 OFFCURVE",
"147.91 240.11 CURVE",
"116.39 216.59 OFFCURVE",
"84.75 169.37 OFFCURVE",
"80.81 126.12 CURVE"
);
}
);
width = 1109.94;
},
{
anchors = (
{
name = bottom;
position = "{551, 0}";
},
{
name = top;
position = "{565, 1464}";
}
);
layerId = "E5C657BD-868A-4531-8053-230689A73369";
paths = (
{
closed = 1;
nodes = (
"180.396 24.198 OFFCURVE",
"374 -29.058 OFFCURVE",
"536.942 -29.058 CURVE SMOOTH",
"883.604 -29.058 OFFCURVE",
"1057.208 154.86 OFFCURVE",
"1057.208 395.406 CURVE SMOOTH",
"1057.208 569.29 OFFCURVE",
"946.399 708.952 OFFCURVE",
"755.836 787.44 CURVE SMOOTH",
"510.877 888.812 LINE SMOOTH",
"421.737 926.068 OFFCURVE",
"387.061 965.836 OFFCURVE",
"387.061 1022.198 CURVE SMOOTH",
"387.061 1082.642 OFFCURVE",
"437.935 1149.666 OFFCURVE",
"557.355 1149.666 CURVE SMOOTH",
"664.099 1149.666 OFFCURVE",
"813.389 1101.55 OFFCURVE",
"916.017 1052.608 CURVE",
"975.307 1107.584 OFFCURVE",
"1014.481 1194.676 OFFCURVE",
"1019.539 1282.198 CURVE",
"915.539 1335.57 OFFCURVE",
"742.133 1395.058 OFFCURVE",
"556.413 1395.058 CURVE SMOOTH",
"285.355 1395.058 OFFCURVE",
"74.147 1226.744 OFFCURVE",
"74.147 981.536 CURVE SMOOTH",
"74.147 793.188 OFFCURVE",
"193.222 684.973 OFFCURVE",
"359.007 615.502 CURVE SMOOTH",
"600.164 515.188 LINE SMOOTH",
"712.577 468.403 OFFCURVE",
"733.864 406.792 OFFCURVE",
"733.864 356.662 CURVE SMOOTH",
"733.864 285.788 OFFCURVE",
"680.676 216.962 OFFCURVE",
"558.116 216.962 CURVE SMOOTH",
"415.686 216.962 OFFCURVE",
"266 279.706 OFFCURVE",
"153.058 348.218 CURVE",
"94.082 297.242 OFFCURVE",
"41.85 205.406 OFFCURVE",
"34.478 119.256 CURVE"
);
}
);
width = 1113.372;
}
);
leftKerningGroup = S;
rightKerningGroup = S;
unicode = 0053;
},
{
glyphname = T;
lastChange = "2020-04-09 11:32:39 +0000";
layers = (
{
anchors = (
{
name = bottom;
position = "{482, 0}";
},
{
name = top;
position = "{479, 1464}";
}
);
layerId = "FA2AC253-0460-4F3F-AE23-6289F77EFFDF";
paths = (
{
closed = 1;
nodes = (
"303.26 1244.31 LINE SMOOTH",
"329.2 1244.31 OFFCURVE",
"385.02 1246.31 OFFCURVE",
"410.96 1246.31 CURVE SMOOTH",
"552.08 1246.31 LINE SMOOTH",
"578.02 1246.31 OFFCURVE",
"635.87 1244.31 OFFCURVE",
"659.78 1244.31 CURVE SMOOTH",
"839.73 1244.31 LINE SMOOTH",
"898.83 1244.31 OFFCURVE",
"926.44 1261.98 OFFCURVE",
"926.44 1307.02 CURVE SMOOTH",
"926.44 1326.69 OFFCURVE",
"922.47 1348.24 OFFCURVE",
"916.53 1366 CURVE",
"44.42 1366 LINE",
"40.51 1344.42 OFFCURVE",
"38.51 1324.9 OFFCURVE",
"38.51 1305.17 CURVE SMOOTH",
"38.51 1285.44 OFFCURVE",
"40.51 1263.86 OFFCURVE",
"44.42 1244.31 CURVE"
);
},
{
closed = 1;
nodes = (
"410.96 0 LINE",
"430.39 -3.91 OFFCURVE",
"457.85 -5.91 OFFCURVE",
"481.52 -5.91 CURVE SMOOTH",
"505.19 -5.91 OFFCURVE",
"532.65 -3.91 OFFCURVE",
"552.08 0 CURVE",
"552.08 1098.31 LINE SMOOTH",
"552.08 1152.31 OFFCURVE",
"552.11 1190.31 OFFCURVE",
"552.11 1246.31 CURVE SMOOTH",
"552.11 1305.14 LINE",
"410.93 1305.14 LINE",
"410.93 1246.31 LINE SMOOTH",
"410.93 1190.31 OFFCURVE",
"410.96 1152.31 OFFCURVE",
"410.96 1098.31 CURVE SMOOTH"
);
}
);
width = 961.07;
},
{
anchors = (
{
name = bottom;
position = "{509, 0}";
},
{
name = top;
position = "{509, 1464}";
}
);
layerId = "E5C657BD-868A-4531-8053-230689A73369";
paths = (
{
closed = 1;
nodes = (
"231.188 1112.178 LINE SMOOTH",
"260.56 1112.178 OFFCURVE",
"326.676 1114.178 OFFCURVE",
"356.048 1114.178 CURVE SMOOTH",
"661.904 1114.178 LINE SMOOTH",
"691.276 1114.178 OFFCURVE",
"757.706 1112.178 OFFCURVE",
"786.764 1112.178 CURVE SMOOTH",
"855.174 1112.178 LINE SMOOTH",
"965.754 1112.178 OFFCURVE",
"1015.672 1148.724 OFFCURVE",
"1015.672 1248.676 CURVE SMOOTH",
"1015.672 1287.222 OFFCURVE",
"1009.986 1334.512 OFFCURVE",
"1000.614 1366 CURVE",
"20.396 1366 LINE",
"11.338 1320.396 OFFCURVE",
"9.338 1273.42 OFFCURVE",
"9.338 1238.246 CURVE SMOOTH",
"9.338 1203.072 OFFCURVE",
"11.338 1157.468 OFFCURVE",
"20.396 1112.178 CURVE"
);
},
{
closed = 1;
nodes = (
"356.048 0 LINE",
"408.082 -9.058 OFFCURVE",
"466.43 -11.058 OFFCURVE",
"508.976 -11.058 CURVE SMOOTH",
"551.522 -11.058 OFFCURVE",
"609.87 -9.058 OFFCURVE",
"661.904 0 CURVE",
"661.904 966.178 LINE SMOOTH",
"661.904 1020.178 OFFCURVE",
"660.218 1058.178 OFFCURVE",
"660.218 1114.178 CURVE SMOOTH",
"660.218 1239.932 LINE",
"357.734 1239.932 LINE",
"357.734 1114.178 LINE SMOOTH",
"357.734 1058.178 OFFCURVE",
"356.048 1020.178 OFFCURVE",
"356.048 966.178 CURVE SMOOTH"
);
}
);
width = 1014.266;
}
);
leftKerningGroup = T;
rightKerningGroup = T;
unicode = 0054;
},
{
glyphname = U;
lastChange = "2020-04-09 11:32:39 +0000";
layers = (
{
anchors = (
{
name = bottom;
position = "{666, 0}";
},
{
name = ogonek;
position = "{859, 8}";
},
{
name = top;
position = "{666, 1464}";
},
{
name = topright;
position = "{1147, 1366}";
}
);
layerId = "FA2AC253-0460-4F3F-AE23-6289F77EFFDF";
paths = (
{
closed = 1;
nodes = (
"1146.92 1366 LINE",
"1127.43 1369.91 OFFCURVE",
"1102.21 1371.91 OFFCURVE",
"1074.39 1371.91 CURVE SMOOTH",
"1048.66 1371.91 OFFCURVE",
"1023.23 1369.91 OFFCURVE",
"1005.8 1366 CURVE",
"1005.8 465.43 LINE SMOOTH",
"1005.8 222.47 OFFCURVE",
"878.72 93.9 OFFCURVE",
"665.88 93.9 CURVE SMOOTH",
"453.04 93.9 OFFCURVE",
"325.96 222.47 OFFCURVE",
"325.96 465.43 CURVE SMOOTH",
"325.96 1279.65 LINE SMOOTH",
"325.96 1340.33 OFFCURVE",
"316.89 1371.88 OFFCURVE",
"253.85 1371.88 CURVE SMOOTH",
"196.81 1371.88 LINE",
"184.84 1359.91 LINE",
"184.84 463.34 LINE SMOOTH",
"184.84 137.55 OFFCURVE",
"386.96 -23.91 OFFCURVE",
"663.85 -23.91 CURVE SMOOTH",
"944.8 -23.91 OFFCURVE",
"1146.92 137.55 OFFCURVE",
"1146.92 463.34 CURVE SMOOTH"
);
}
);
width = 1331.76;
},
{
anchors = (
{
name = bottom;
position = "{673, 0}";
},
{
name = ogonek;
position = "{904, 8}";
},
{
name = top;
position = "{668, 1464}";
},
{
name = topright;
position = "{1209, 1366}";
}
);
layerId = "E5C657BD-868A-4531-8053-230689A73369";
paths = (
{
closed = 1;
nodes = (
"1208.696 1366 LINE",
"1160.034 1375.058 OFFCURVE",
"1090.198 1377.058 OFFCURVE",
"1052.082 1377.058 CURVE SMOOTH",
"1010.908 1377.058 OFFCURVE",
"952.874 1375.058 OFFCURVE",
"902.84 1366 CURVE",
"902.84 498.034 LINE SMOOTH",
"902.84 309.986 OFFCURVE",
"837.536 214.02 OFFCURVE",
"672.744 214.02 CURVE SMOOTH",
"507.952 214.02 OFFCURVE",
"442.648 309.986 OFFCURVE",
"442.648 498.034 CURVE SMOOTH",
"442.648 1185.27 LINE SMOOTH",
"442.648 1321.454 OFFCURVE",
"380.382 1378.744 OFFCURVE",
"262.43 1378.744 CURVE SMOOTH",
"150.478 1378.744 LINE",
"136.792 1365.058 LINE",
"136.792 501.092 LINE SMOOTH",
"136.792 163.29 OFFCURVE",
"332.048 -29.058 OFFCURVE",
"672.43 -29.058 CURVE SMOOTH",
"1013.44 -29.058 OFFCURVE",
"1208.696 163.29 OFFCURVE",
"1208.696 501.092 CURVE SMOOTH"
);
}
);
width = 1345.488;
}
);
leftKerningGroup = U;
rightKerningGroup = U;
unicode = 0055;
},
{
glyphname = V;
lastChange = "2020-04-09 11:32:39 +0000";
layers = (
{
anchors = (
{
name = bottom;
position = "{557, 0}";
},
{
name = top;
position = "{567, 1464}";
}
);
layerId = "FA2AC253-0460-4F3F-AE23-6289F77EFFDF";
paths = (
{
closed = 1;
nodes = (
"577.1 139.96 LINE",
"569.16 139.96 OFFCURVE",
"565.19 141.93 OFFCURVE",
"561.19 155.81 CURVE SMOOTH",
"533.04 253.51 OFFCURVE",
"492.8 401.81 OFFCURVE",
"466.89 487.3 CURVE SMOOTH",
"223.45 1309.35 LINE SMOOTH",
"207.66 1364.48 OFFCURVE",
"179.99 1377.91 OFFCURVE",
"144.95 1377.91 CURVE SMOOTH",
"115.61 1377.91 OFFCURVE",
"84.15 1368.09 OFFCURVE",
"56.63 1354.27 CURVE",
"447.56 66.95 LINE SMOOTH",
"464.32 9.85 OFFCURVE",
"490.72 -7.94 OFFCURVE",
"547.7 -7.94 CURVE SMOOTH",
"584.98 -7.94 OFFCURVE",
"613.87 -5.97 OFFCURVE",
"651.27 -2.03 CURVE",
"1061.84 1352.21 LINE",
"1055.96 1364.12 LINE",
"1040.41 1367.94 OFFCURVE",
"1017.07 1371.91 OFFCURVE",
"991.28 1371.91 CURVE SMOOTH",
"965.55 1371.91 OFFCURVE",
"946.03 1369.88 OFFCURVE",
"930.54 1366 CURVE"
);
}
);
width = 1106.29;
},
{
anchors = (
{
name = bottom;
position = "{600, 0}";
},
{
name = top;
position = "{607, 1464}";
}
);
layerId = "E5C657BD-868A-4531-8053-230689A73369";
paths = (
{
closed = 1;
nodes = (
"628.58 256.648 LINE",
"617.208 256.648 OFFCURVE",
"611.522 260.334 OFFCURVE",
"607.522 281.078 CURVE SMOOTH",
"587.952 395.938 OFFCURVE",
"561.44 527.078 OFFCURVE",
"530.382 641.74 CURVE SMOOTH",
"369.31 1232.13 LINE SMOOTH",
"341.508 1337.024 OFFCURVE",
"294.962 1383.058 OFFCURVE",
"205.01 1383.058 CURVE SMOOTH",
"137.918 1383.058 OFFCURVE",
"75.57 1362.942 OFFCURVE",
"20.594 1338.826 CURVE",
"358.328 127.01 LINE SMOOTH",
"388.816 18.43 OFFCURVE",
"449.536 -11.372 OFFCURVE",
"564.86 -11.372 CURVE SMOOTH",
"643.324 -11.372 OFFCURVE",
"735.706 -7.686 OFFCURVE",
"807.426 -0.314 CURVE",
"1185.392 1340.198 LINE",
"1172.648 1357.256 LINE",
"1131.358 1371.372 OFFCURVE",
"1070.266 1377.058 OFFCURVE",
"1032.464 1377.058 CURVE SMOOTH",
"991.29 1377.058 OFFCURVE",
"944.314 1376.744 OFFCURVE",
"899.652 1366 CURVE"
);
}
);
width = 1204.102;
}
);
unicode = 0056;
},
{
glyphname = W;
lastChange = "2020-04-09 11:32:39 +0000";
layers = (
{
anchors = (
{
name = bottom;
position = "{823, 0}";
},
{
name = top;
position = "{823, 1464}";
}
);
layerId = "FA2AC253-0460-4F3F-AE23-6289F77EFFDF";
paths = (
{
closed = 1;
nodes = (
"341.2 71.01 LINE SMOOTH",
"355.02 4 OFFCURVE",
"398.51 -7.94 OFFCURVE",
"441.55 -7.94 CURVE SMOOTH",
"474.68 -7.94 OFFCURVE",
"531.93 -6 OFFCURVE",
"567.27 -0.03 CURVE",
"712.14 673.74 LINE SMOOTH",
"738.14 791.08 OFFCURVE",
"776.35 985.32 OFFCURVE",
"814.74 1186.52 CURVE",
"826.68 1186.52 LINE",
"863.1 985.32 OFFCURVE",
"901.34 787.05 OFFCURVE",
"923.31 673.74 CURVE SMOOTH",
"1038.06 68.98 LINE SMOOTH",
"1049.94 4 OFFCURVE",
"1083.19 -7.94 OFFCURVE",
"1126.35 -7.94 CURVE SMOOTH",
"1161.57 -7.94 OFFCURVE",
"1224.73 -6 OFFCURVE",
"1262.16 2 CURVE",
"1562.73 1354.27 LINE",
"1554.85 1364.12 LINE",
"1533.18 1370 OFFCURVE",
"1507.72 1371.91 OFFCURVE",
"1486.17 1371.91 CURVE SMOOTH",
"1464.53 1371.91 OFFCURVE",
"1438.95 1369.91 OFFCURVE",
"1421.43 1366 CURVE",
"1240.35 517.15 LINE SMOOTH",
"1222.44 431.96 OFFCURVE",
"1184.23 245.9 OFFCURVE",
"1162.05 115.57 CURVE",
"1152.08 115.57 OFFCURVE",
"1150.14 117.6 OFFCURVE",
"1146.14 135.45 CURVE SMOOTH",
"914.88 1335.94 LINE",
"895.54 1339.82 OFFCURVE",
"848.05 1341.79 OFFCURVE",
"822.68 1341.79 CURVE SMOOTH",
"799.31 1341.79 OFFCURVE",
"755.88 1339.82 OFFCURVE",
"728.45 1335.94 CURVE",
"475.04 115.57 LINE",
"465.1 115.57 OFFCURVE",
"463.13 115.54 OFFCURVE",
"459.1 135.45 CURVE SMOOTH",
"440.95 231.45 OFFCURVE",
"404.77 431.93 OFFCURVE",
"388.86 517.21 CURVE SMOOTH",
"235.75 1303.53 LINE SMOOTH",
"225.93 1356.18 OFFCURVE",
"206.32 1377.91 OFFCURVE",
"163.43 1377.91 CURVE SMOOTH",
"137.94 1377.91 OFFCURVE",
"114.6 1376.15 OFFCURVE",
"80.81 1360.21 CURVE"
);
}
);
width = 1629.15;
},
{
anchors = (
{
name = bottom;
position = "{898, 0}";
},
{
name = top;
position = "{898, 1464}";
}
);
layerId = "E5C657BD-868A-4531-8053-230689A73369";
paths = (
{
closed = 1;
nodes = (
"272.56 127.638 LINE SMOOTH",
"296.676 4 OFFCURVE",
"369.338 -11.372 OFFCURVE",
"467.29 -11.372 CURVE SMOOTH",
"550.184 -11.372 OFFCURVE",
"650.334 -6 OFFCURVE",
"723.426 1.686 CURVE",
"818.532 574.212 LINE SMOOTH",
"844.532 729.304 OFFCURVE",
"870.73 909.816 OFFCURVE",
"886.812 1042.376 CURVE",
"902.184 1042.376 LINE",
"914.58 909.816 OFFCURVE",
"939.092 726.99 OFFCURVE",
"962.778 574.212 CURVE SMOOTH",
"1034.628 127.324 LINE SMOOTH",
"1053.372 4 OFFCURVE",
"1129.522 -11.372 OFFCURVE",
"1220.73 -11.372 CURVE SMOOTH",
"1300.566 -11.372 OFFCURVE",
"1411.774 -6 OFFCURVE",
"1481.808 2 CURVE",
"1749.774 1338.826 LINE",
"1735.03 1357.256 LINE",
"1694.484 1370 OFFCURVE",
"1638.136 1377.058 OFFCURVE",
"1590.846 1377.058 CURVE SMOOTH",
"1548.614 1377.058 OFFCURVE",
"1499.01 1375.058 OFFCURVE",
"1454.034 1366 CURVE",
"1334.73 680.17 LINE SMOOTH",
"1311.672 548.648 OFFCURVE",
"1285.474 366.02 OFFCURVE",
"1273.59 254.566 CURVE",
"1261.904 254.566 OFFCURVE",
"1256.532 254.88 OFFCURVE",
"1252.532 281.31 CURVE SMOOTH",
"1093.344 1339.372 LINE",
"1036.252 1350.116 OFFCURVE",
"959.59 1353.802 OFFCURVE",
"898.184 1353.802 CURVE SMOOTH",
"838.778 1353.802 OFFCURVE",
"762.744 1350.116 OFFCURVE",
"702.71 1339.372 CURVE",
"529.952 254.566 LINE",
"516.58 254.566 OFFCURVE",
"512.894 256.252 OFFCURVE",
"510.58 281.31 CURVE SMOOTH",
"501.01 377.31 OFFCURVE",
"475.126 550.334 OFFCURVE",
"454.068 676.798 CURVE SMOOTH",
"364.45 1216.014 LINE SMOOTH",
"344.334 1345.884 OFFCURVE",
"302.416 1383.058 OFFCURVE",
"196.034 1383.058 CURVE SMOOTH",
"141.372 1383.058 OFFCURVE",
"80.28 1367.57 OFFCURVE",
"34.478 1348.198 CURVE"
);
}
);
width = 1792.17;
}
);
leftKerningGroup = W;
rightKerningGroup = W;
unicode = 0057;
},
{
glyphname = X;
lastChange = "2020-04-09 11:32:39 +0000";
layers = (
{
anchors = (
{
name = top;
position = "{575, 1464}";
}
);
layerId = "FA2AC253-0460-4F3F-AE23-6289F77EFFDF";
paths = (
{
closed = 1;
nodes = (
"903.65 47.04 LINE",
"931.11 3.88 OFFCURVE",
"962.75 -11.88 OFFCURVE",
"991.76 -11.88 CURVE SMOOTH",
"1021.16 -11.88 OFFCURVE",
"1056.47 -2.15 OFFCURVE",
"1087.96 21.55 CURVE",
"291.3 1318.93 LINE SMOOTH",
"263.81 1362.12 OFFCURVE",
"232.14 1377.88 OFFCURVE",
"203.13 1377.88 CURVE SMOOTH",
"173.73 1377.88 OFFCURVE",
"138.42 1368.15 OFFCURVE",
"106.93 1344.45 CURVE"
);
},
{
closed = 1;
nodes = (
"565.22 809.93 LINE",
"506.36 749.28 LINE",
"48.51 17.76 LINE",
"54.48 5.85 LINE",
"67.97 -2.03 OFFCURVE",
"97.4 -7.94 OFFCURVE",
"126.89 -7.94 CURVE SMOOTH",
"146.32 -7.94 OFFCURVE",
"180.14 -3.94 OFFCURVE",
"189.75 0 CURVE",
"579.37 638.43 LINE",
"638.23 697.02 LINE",
"1043.9 1348.21 LINE",
"1037.93 1360.15 LINE",
"1024.38 1368.03 OFFCURVE",
"994.95 1373.94 OFFCURVE",
"965.46 1373.94 CURVE SMOOTH",
"946.03 1373.94 OFFCURVE",
"916.27 1369.94 OFFCURVE",
"906.66 1366 CURVE"
);
}
);
width = 1136.47;
},
{
anchors = (
{
name = top;
position = "{609, 1464}";
}
);
layerId = "E5C657BD-868A-4531-8053-230689A73369";
paths = (
{
closed = 1;
nodes = (
"809.27 101.952 LINE",
"867.618 10.744 OFFCURVE",
"919.85 -18.744 OFFCURVE",
"1005.488 -18.744 CURVE SMOOTH",
"1069.208 -18.744 OFFCURVE",
"1143.986 6.43 OFFCURVE",
"1204.648 47.29 CURVE",
"445.74 1265.734 LINE SMOOTH",
"389.078 1355.256 OFFCURVE",
"338.532 1384.744 OFFCURVE",
"252.894 1384.744 CURVE SMOOTH",
"189.174 1384.744 OFFCURVE",
"114.396 1359.57 OFFCURVE",
"53.734 1318.71 CURVE"
);
},
{
closed = 1;
nodes = (
"609.836 928.334 LINE",
"485.768 790.464 LINE",
"19.338 31.488 LINE",
"27.024 14.43 LINE",
"69.686 -0.314 OFFCURVE",
"131.72 -11.372 OFFCURVE",
"190.382 -11.372 CURVE SMOOTH",
"242.416 -11.372 OFFCURVE",
"286.532 -7.372 OFFCURVE",
"318.45 0 CURVE",
"615.406 499.434 LINE",
"739.474 638.676 LINE",
"1164.02 1336.198 LINE",
"1156.334 1351.57 LINE",
"1117.044 1366.314 OFFCURVE",
"1055.01 1377.372 OFFCURVE",
"996.348 1377.372 CURVE SMOOTH",
"944.314 1377.372 OFFCURVE",
"900.826 1373.372 OFFCURVE",
"868.908 1366 CURVE"
);
}
);
width = 1223.986;
}
);
unicode = 0058;
},
{
glyphname = Y;
lastChange = "2020-04-09 11:32:39 +0000";
layers = (
{
anchors = (
{
name = bottom;
position = "{477, 0}";
},
{
name = top;
position = "{485, 1464}";
}
);
layerId = "FA2AC253-0460-4F3F-AE23-6289F77EFFDF";
paths = (
{
closed = 1;
nodes = (
"408.42 0 LINE",
"425.88 -3.91 OFFCURVE",
"451.13 -5.91 OFFCURVE",
"476.92 -5.91 CURVE SMOOTH",
"504.68 -5.91 OFFCURVE",
"530.08 -3.91 OFFCURVE",
"549.54 0 CURVE",
"549.54 536.8 LINE",
"408.42 536.8 LINE"
);
},
{
closed = 1;
nodes = (
"574.71 828.82 LINE SMOOTH",
"561.07 793.72 OFFCURVE",
"512.89 669.42 OFFCURVE",
"492.98 603.99 CURVE",
"483.01 603.99 LINE",
"463.13 667.27 OFFCURVE",
"429.07 767.36 OFFCURVE",
"403.19 829 CURVE SMOOTH",
"203.51 1310.9 LINE SMOOTH",
"185.81 1356.18 OFFCURVE",
"164.14 1379.97 OFFCURVE",
"124.95 1379.97 CURVE SMOOTH",
"101.67 1379.97 OFFCURVE",
"74.39 1374.24 OFFCURVE",
"32.6 1350.36 CURVE",
"428.42 404.36 LINE",
"531.51 404.36 LINE",
"925.36 1352.24 LINE",
"919.48 1364.15 LINE",
"897.81 1370 OFFCURVE",
"876.44 1373.94 OFFCURVE",
"850.89 1373.94 CURVE SMOOTH",
"831.25 1373.94 OFFCURVE",
"807.58 1371.94 OFFCURVE",
"787.97 1366 CURVE"
);
}
);
width = 953.9;
},
{
anchors = (
{
name = bottom;
position = "{539, 0}";
},
{
name = top;
position = "{543, 1464}";
}
);
layerId = "E5C657BD-868A-4531-8053-230689A73369";
paths = (
{
closed = 1;
nodes = (
"384.396 0 LINE",
"432.744 -9.058 OFFCURVE",
"500.894 -11.058 OFFCURVE",
"538.696 -11.058 CURVE SMOOTH",
"580.184 -11.058 OFFCURVE",
"639.904 -9.058 OFFCURVE",
"690.252 0 CURVE",
"690.252 605.44 LINE",
"384.396 605.44 LINE"
);
},
{
closed = 1;
nodes = (
"648.498 1010.716 LINE SMOOTH",
"614.266 924.136 OFFCURVE",
"576.382 816.996 OFFCURVE",
"551.324 718.962 CURVE",
"539.638 718.962 LINE",
"512.894 823.426 OFFCURVE",
"482.266 918.368 OFFCURVE",
"449.522 1000.6 CURVE SMOOTH",
"345.938 1259.42 LINE SMOOTH",
"311.078 1345.884 OFFCURVE",
"270.532 1381.686 OFFCURVE",
"185.01 1381.686 CURVE SMOOTH",
"120.546 1381.686 OFFCURVE",
"52.082 1360.512 OFFCURVE",
"-1.72 1329.768 CURVE",
"404.396 383.768 LINE",
"673.938 383.768 LINE",
"1076.368 1338.512 LINE",
"1063.624 1355.57 LINE",
"1023.078 1370 OFFCURVE",
"965.672 1377.372 OFFCURVE",
"914.382 1377.372 CURVE SMOOTH",
"874.15 1377.372 OFFCURVE",
"831.604 1375.372 OFFCURVE",
"789.686 1366 CURVE"
);
}
);
width = 1074.02;
}
);
leftKerningGroup = Y;
rightKerningGroup = Y;
unicode = 0059;
},
{
glyphname = Z;
lastChange = "2020-04-09 11:32:39 +0000";
layers = (
{
anchors = (
{
name = bottom;
position = "{556, 0}";
},
{
name = top;
position = "{562, 1464}";
}
);
layerId = "FA2AC253-0460-4F3F-AE23-6289F77EFFDF";
paths = (
{
closed = 1;
nodes = (
"130.27 169.75 LINE SMOOTH",
"114.435 143.9 OFFCURVE",
"108.54 118.2 OFFCURVE",
"108.54 96.47 CURVE SMOOTH",
"108.54 78.62 OFFCURVE",
"110.51 60.71 OFFCURVE",
"130.33 0 CURVE",
"886.18 0 LINE SMOOTH",
"967.52 0 OFFCURVE",
"992.53 33.67 OFFCURVE",
"992.53 84.65 CURVE SMOOTH",
"992.53 110.26 OFFCURVE",
"986.59 135.78 OFFCURVE",
"978.65 159.54 CURVE",
"926.68 135.57 OFFCURVE",
"846.59 127.78 OFFCURVE",
"736.38 127.78 CURVE SMOOTH",
"463.8 127.78 LINE SMOOTH",
"416.4 127.78 OFFCURVE",
"345.33 125.87 OFFCURVE",
"261.36 117.84 CURVE",
"255.36 123.84 LINE",
"307.36 200.2 OFFCURVE",
"367.27 284.26 OFFCURVE",
"413.39 356.56 CURVE SMOOTH",
"952.89 1200.28 LINE SMOOTH",
"968.71 1226.07 OFFCURVE",
"976.71 1247.83 OFFCURVE",
"976.71 1267.56 CURVE SMOOTH",
"976.71 1285.47 OFFCURVE",
"972.68 1307.47 OFFCURVE",
"955.07 1366 CURVE",
"170.69 1366 LINE",
"162.78 1340.45 OFFCURVE",
"158.84 1314.75 OFFCURVE",
"158.84 1289.23 CURVE SMOOTH",
"158.84 1273.53 OFFCURVE",
"160.84 1255.8 OFFCURVE",
"164.75 1240.16 CURVE",
"509.68 1240.16 LINE SMOOTH",
"557.14 1240.16 OFFCURVE",
"778.55 1244.13 OFFCURVE",
"823.77 1254.1 CURVE",
"829.77 1248.1 LINE",
"769.62 1161.59 OFFCURVE",
"719.98 1093.92 OFFCURVE",
"675.89 1025.68 CURVE SMOOTH"
);
}
);
width = 1101.07;
},
{
anchors = (
{
name = bottom;
position = "{569, 0}";
},
{
name = top;
position = "{575, 1464}";
}
);
layerId = "E5C657BD-868A-4531-8053-230689A73369";
paths = (
{
closed = 1;
nodes = (
"114.826 298.45 LINE SMOOTH",
"89.553 264.02 OFFCURVE",
"77.652 221.16 OFFCURVE",
"77.652 183.986 CURVE SMOOTH",
"77.652 157.556 OFFCURVE",
"81.338 134.498 OFFCURVE",
"111.454 0 CURVE",
"875.884 0 LINE SMOOTH",
"994.976 0 OFFCURVE",
"1076.614 52.546 OFFCURVE",
"1076.614 161.87 CURVE SMOOTH",
"1076.614 209.788 OFFCURVE",
"1067.242 262.764 OFFCURVE",
"1055.87 300.252 CURVE",
"1002.184 274.566 OFFCURVE",
"927.242 254.764 OFFCURVE",
"829.044 254.764 CURVE SMOOTH",
"704.04 254.764 LINE SMOOTH",
"622.32 254.764 OFFCURVE",
"498.054 247.706 OFFCURVE",
"412.368 241.392 CURVE",
"406.368 247.392 LINE",
"458.368 303.16 OFFCURVE",
"523.426 383.788 OFFCURVE",
"562.682 438.928 CURVE SMOOTH",
"1016.382 1069.864 LINE SMOOTH",
"1042.498 1107.666 OFFCURVE",
"1050.498 1143.154 OFFCURVE",
"1050.498 1178.328 CURVE SMOOTH",
"1050.498 1201.386 OFFCURVE",
"1048.184 1223.386 OFFCURVE",
"1008.266 1366 CURVE",
"131.222 1366 LINE",
"118.164 1314.71 OFFCURVE",
"110.792 1271.85 OFFCURVE",
"110.792 1218.874 CURVE SMOOTH",
"110.792 1186.014 OFFCURVE",
"112.792 1152.84 OFFCURVE",
"121.85 1116.608 CURVE",
"413.584 1116.608 LINE SMOOTH",
"491.932 1116.608 OFFCURVE",
"632.69 1122.294 OFFCURVE",
"722.526 1133.98 CURVE",
"728.526 1127.98 LINE",
"676.956 1070.642 OFFCURVE",
"606.724 984.096 OFFCURVE",
"567.782 929.584 CURVE SMOOTH"
);
}
);
width = 1154.266;
}
);
leftKerningGroup = Z;
rightKerningGroup = Z;
unicode = 005A;
},
{
glyphname = a;
lastChange = "2020-04-09 11:32:39 +0000";
layers = (
{
anchors = (
{
name = bottom;
position = "{492, 0}";
},
{
name = ogonek;
position = "{825, -14}";
},
{
name = top;
position = "{482, 1084}";
}
);
layerId = "FA2AC253-0460-4F3F-AE23-6289F77EFFDF";
paths = (
{
closed = 1;
nodes = (
"104.72 123.91 OFFCURVE",
"198.66 -23.91 OFFCURVE",
"392.45 -23.91 CURVE SMOOTH",
"564.33 -23.91 OFFCURVE",
"696.78 110.63 OFFCURVE",
"764.6 190.42 CURVE",
"740.93 321.34 LINE",
"654.45 168.5 OFFCURVE",
"515.67 94.29 OFFCURVE",
"407.22 94.29 CURVE SMOOTH",
"300.41 94.29 OFFCURVE",
"244.08 174.95 OFFCURVE",
"244.08 275.7 CURVE SMOOTH",
"244.08 406.6 OFFCURVE",
"334.95 480.96 OFFCURVE",
"477.82 480.96 CURVE SMOOTH",
"570.45 480.96 OFFCURVE",
"670.57 474.87 OFFCURVE",
"750.93 456.78 CURVE",
"750.93 555.19 LINE",
"664.72 577.31 OFFCURVE",
"562.75 585.43 OFFCURVE",
"478.36 585.43 CURVE SMOOTH",
"254.06 585.43 OFFCURVE",
"104.72 485.55 OFFCURVE",
"104.72 265.88 CURVE SMOOTH"
);
},
{
closed = 1;
nodes = (
"840.59 104.92 OFFCURVE",
"834.77 169.25 OFFCURVE",
"834.77 255.7 CURVE SMOOTH",
"834.77 667.79 LINE SMOOTH",
"834.77 881.16 OFFCURVE",
"738.12 999.64 OFFCURVE",
"527.55 999.64 CURVE SMOOTH",
"387.37 999.64 OFFCURVE",
"238.09 949.37 OFFCURVE",
"140.69 905.55 CURVE",
"140.585 868.18 OFFCURVE",
"164.57 818.81 OFFCURVE",
"190.27 797.29 CURVE",
"296.3 845.56 OFFCURVE",
"408.42 881.62 OFFCURVE",
"518.81 881.62 CURVE SMOOTH",
"631.17 881.62 OFFCURVE",
"703.68 825.41 OFFCURVE",
"703.68 672.3 CURVE SMOOTH",
"703.68 205.67 LINE",
"703.38 101.7 OFFCURVE",
"732.6 24.6 OFFCURVE",
"825.25 -13.97 CURVE",
"855.1 -0.24 OFFCURVE",
"880.8 31.07 OFFCURVE",
"890.77 56.59 CURVE"
);
}
);
width = 1005.67;
},
{
anchors = (
{
name = bottom;
position = "{509, 0}";
},
{
name = ogonek;
position = "{868, -16}";
},
{
name = top;
position = "{499, 1084}";
}
);
layerId = "E5C657BD-868A-4531-8053-230689A73369";
paths = (
{
closed = 1;
nodes = (
"63.536 129.058 OFFCURVE",
"160.908 -29.058 OFFCURVE",
"366.71 -29.058 CURVE SMOOTH",
"545.454 -29.058 OFFCURVE",
"652.164 74.594 OFFCURVE",
"730.28 166.396 CURVE",
"687.734 359.092 LINE",
"628.71 254.3 OFFCURVE",
"534.546 192.102 OFFCURVE",
"451.836 192.102 CURVE SMOOTH",
"391.358 192.102 OFFCURVE",
"353.904 235.01 OFFCURVE",
"353.904 292.86 CURVE SMOOTH",
"353.904 372.28 OFFCURVE",
"395.01 426.048 OFFCURVE",
"488.116 426.048 CURVE SMOOTH",
"544.71 426.048 OFFCURVE",
"637.966 425.106 OFFCURVE",
"697.734 412.164 CURVE",
"697.734 601.522 LINE",
"623.536 616.778 OFFCURVE",
"519.85 618.034 OFFCURVE",
"457.768 618.034 CURVE SMOOTH",
"250.628 618.034 OFFCURVE",
"63.536 511.29 OFFCURVE",
"63.536 272.744 CURVE SMOOTH"
);
},
{
closed = 1;
nodes = (
"921.242 166.696 OFFCURVE",
"905.126 212.15 OFFCURVE",
"905.126 272.86 CURVE SMOOTH",
"905.126 679.802 LINE SMOOTH",
"905.126 929.208 OFFCURVE",
"731.256 1020.232 OFFCURVE",
"553.29 1020.232 CURVE SMOOTH",
"423.406 1020.232 OFFCURVE",
"232.942 985.406 OFFCURVE",
"101.222 931.29 CURVE",
"107.123 857.884 OFFCURVE",
"131.966 772.478 OFFCURVE",
"174.826 723.502 CURVE",
"279.14 756.328 OFFCURVE",
"384.396 788.956 OFFCURVE",
"472.478 788.956 CURVE SMOOTH",
"564.246 788.956 OFFCURVE",
"607.584 744.758 OFFCURVE",
"607.584 655.14 CURVE SMOOTH",
"607.584 224.546 LINE",
"624.444 118.86 OFFCURVE",
"698.28 -9.72 OFFCURVE",
"868.15 -15.686 CURVE",
"906.58 13.488 OFFCURVE",
"949.44 84.266 OFFCURVE",
"961.126 137.242 CURVE"
);
}
);
width = 1024.546;
}
);
leftKerningGroup = a;
rightKerningGroup = a;
unicode = 0061;
},
{
glyphname = b;
lastChange = "2020-04-09 11:32:39 +0000";
layers = (
{
anchors = (
{
name = bottom;
position = "{522, 0}";
},
{
name = top;
position = "{551, 1520}";
}
);
layerId = "FA2AC253-0460-4F3F-AE23-6289F77EFFDF";
paths = (
{
closed = 1;
nodes = (
"314.23 1375.47 LINE SMOOTH",
"314.23 1436.21 OFFCURVE",
"304.89 1469.97 OFFCURVE",
"241.85 1469.97 CURVE SMOOTH",
"192.96 1469.97 LINE",
"180.99 1458 LINE",
"180.99 50 LINE",
"314.23 50 LINE"
);
},
{
closed = 1;
nodes = (
"940.89 791.79 OFFCURVE",
"824.92 995.64 OFFCURVE",
"601.13 995.64 CURVE SMOOTH",
"430.65 995.64 OFFCURVE",
"304.2 874.68 OFFCURVE",
"256.74 798.74 CURVE",
"278.38 674.54 LINE",
"336.53 782.81 OFFCURVE",
"459.28 875.71 OFFCURVE",
"584.36 875.74 CURVE SMOOTH",
"698.81 875.77 OFFCURVE",
"803.83 767.26 OFFCURVE",
"803.83 501.91 CURVE SMOOTH",
"803.83 220.38 OFFCURVE",
"672.54 92.17 OFFCURVE",
"524.12 92.17 CURVE SMOOTH",
"415.85 92.17 OFFCURVE",
"339.97 112.08 OFFCURVE",
"251.76 162.11 CURVE",
"180.99 50 LINE",
"295.11 8 OFFCURVE",
"408.69 -13.94 OFFCURVE",
"526.24 -13.94 CURVE SMOOTH",
"730.62 -13.94 OFFCURVE",
"940.86 135.16 OFFCURVE",
"940.89 501.82 CURVE SMOOTH"
);
}
);
width = 1045.61;
},
{
anchors = (
{
name = bottom;
position = "{522, 0}";
},
{
name = top;
position = "{563, 1520}";
}
);
layerId = "E5C657BD-868A-4531-8053-230689A73369";
paths = (
{
closed = 1;
nodes = (
"415.474 1291.386 LINE SMOOTH",
"415.474 1424.198 OFFCURVE",
"368.382 1471.686 OFFCURVE",
"250.43 1471.686 CURVE SMOOTH",
"138.048 1471.686 LINE",
"124.362 1458 LINE",
"124.362 50 LINE",
"415.474 50 LINE"
);
},
{
closed = 1;
nodes = (
"1004.382 803.802 OFFCURVE",
"886.696 1016.232 OFFCURVE",
"650.894 1016.232 CURVE SMOOTH",
"507.87 1016.232 OFFCURVE",
"407.16 950.184 OFFCURVE",
"328.812 870.812 CURVE",
"371.044 643.652 LINE",
"420.614 736.478 OFFCURVE",
"500.464 777.898 OFFCURVE",
"563.768 776.212 CURVE SMOOTH",
"652.478 774.526 OFFCURVE",
"699.154 695.188 OFFCURVE",
"699.154 507.058 CURVE SMOOTH",
"699.154 313.044 OFFCURVE",
"641.652 196.846 OFFCURVE",
"517.256 196.846 CURVE SMOOTH",
"424.43 196.846 OFFCURVE",
"341.686 221.904 OFFCURVE",
"265.488 270.218 CURVE",
"124.362 50 LINE",
"231.618 8 OFFCURVE",
"369.222 -17.372 OFFCURVE",
"512.512 -17.372 CURVE SMOOTH",
"809.556 -17.372 OFFCURVE",
"1006.068 183.208 OFFCURVE",
"1004.382 512.116 CURVE SMOOTH"
);
}
);
width = 1067.918;
}
);
leftKerningGroup = h;
unicode = 0062;
},
{
glyphname = c;
lastChange = "2020-04-09 11:32:39 +0000";
layers = (
{
anchors = (
{
name = bottom;
position = "{494, 0}";
},
{
name = top;
position = "{502, 1084}";
}
);
layerId = "FA2AC253-0460-4F3F-AE23-6289F77EFFDF";
paths = (
{
closed = 1;
nodes = (
"739.32 635.41 OFFCURVE",
"757.05 633.44 OFFCURVE",
"776.51 633.44 CURVE SMOOTH",
"840.12 633.44 OFFCURVE",
"849.22 675.35 OFFCURVE",
"849.22 722.42 CURVE SMOOTH",
"849.22 820.83 OFFCURVE",
"762.48 1003.61 OFFCURVE",
"505.97 1003.61 CURVE SMOOTH",
"300.18 1003.61 OFFCURVE",
"106.75 841.31 OFFCURVE",
"106.75 481.76 CURVE SMOOTH",
"106.75 234.93 OFFCURVE",
"207.91 -23.91 OFFCURVE",
"493.88 -23.91 CURVE SMOOTH",
"633.76 -23.91 OFFCURVE",
"745.1 34.06 OFFCURVE",
"837.16 119.94 CURVE",
"829.25 153.49 OFFCURVE",
"797.61 190.74 OFFCURVE",
"769.97 208.56 CURVE",
"695.79 152.38 OFFCURVE",
"611.7 96.11 OFFCURVE",
"511.34 96.11 CURVE SMOOTH",
"348.56 96.11 OFFCURVE",
"249.93 223.01 OFFCURVE",
"249.93 481.76 CURVE SMOOTH",
"249.93 750.72 OFFCURVE",
"353.1 893.56 OFFCURVE",
"502 893.56 CURVE SMOOTH",
"675.11 893.56 OFFCURVE",
"725.71 752.69 OFFCURVE",
"717.59 639.35 CURVE"
);
}
);
width = 937.82;
},
{
anchors = (
{
name = bottom;
position = "{501, 0}";
},
{
name = top;
position = "{504, 1084}";
}
);
layerId = "E5C657BD-868A-4531-8053-230689A73369";
paths = (
{
closed = 1;
nodes = (
"663.816 554.758 OFFCURVE",
"696.99 551.072 OFFCURVE",
"747.338 551.072 CURVE SMOOTH",
"833.256 551.072 OFFCURVE",
"893.836 598.13 OFFCURVE",
"893.836 698.396 CURVE SMOOTH",
"893.836 887.754 OFFCURVE",
"735.024 1025.918 OFFCURVE",
"507.686 1025.918 CURVE SMOOTH",
"289.884 1025.918 OFFCURVE",
"63.85 880.778 OFFCURVE",
"63.85 495.488 CURVE SMOOTH",
"63.85 181.734 OFFCURVE",
"213.058 -29.058 OFFCURVE",
"500.744 -29.058 CURVE SMOOTH",
"647.488 -29.058 OFFCURVE",
"796.58 30.628 OFFCURVE",
"885.208 123.372 CURVE",
"872.15 182.662 OFFCURVE",
"819.918 262.812 OFFCURVE",
"771.686 290.928 CURVE",
"707.802 245.044 OFFCURVE",
"628.86 204.218 OFFCURVE",
"549.092 204.218 CURVE SMOOTH",
"430.928 204.218 OFFCURVE",
"368.334 279.638 OFFCURVE",
"368.334 495.488 CURVE SMOOTH",
"368.334 709.536 OFFCURVE",
"404.58 804.328 OFFCURVE",
"502 804.328 CURVE SMOOTH",
"611.618 804.328 OFFCURVE",
"627.898 713.222 OFFCURVE",
"626.642 562.13 CURVE"
);
}
);
width = 948.116;
}
);
leftKerningGroup = c;
rightKerningGroup = c;
unicode = 0063;
},
{
glyphname = d;
lastChange = "2020-04-09 11:32:39 +0000";
layers = (
{
anchors = (
{
name = bottom;
position = "{536, 0}";
},
{
name = top;
position = "{485, 1520}";
},
{
name = topright;
position = "{865, 980}";
}
);
layerId = "FA2AC253-0460-4F3F-AE23-6289F77EFFDF";
paths = (
{
closed = 1;
nodes = (
"864.56 1375.47 LINE SMOOTH",
"864.56 1436.21 OFFCURVE",
"855.16 1469.97 OFFCURVE",
"792.12 1469.97 CURVE SMOOTH",
"743.29 1469.97 LINE",
"731.32 1458 LINE",
"731.32 225.04 LINE SMOOTH",
"731.32 122.06 OFFCURVE",
"754.24 26.63 OFFCURVE",
"855.04 -13.97 CURVE",
"884.89 -0.24 OFFCURVE",
"910.59 31.07 OFFCURVE",
"920.56 56.59 CURVE",
"870.29 104.98 OFFCURVE",
"864.56 189.43 OFFCURVE",
"864.56 275.79 CURVE SMOOTH"
);
},
{
closed = 1;
nodes = (
"104.66 179.94 OFFCURVE",
"220.66 -23.91 OFFCURVE",
"438.24 -23.91 CURVE SMOOTH",
"620 -23.91 OFFCURVE",
"753.58 103.49 OFFCURVE",
"804.09 220.77 CURVE",
"780.84 358.14 LINE",
"730.9 198.98 OFFCURVE",
"588.33 95.99 OFFCURVE",
"463.34 95.99 CURVE SMOOTH",
"348.62 95.99 OFFCURVE",
"241.72 204.47 OFFCURVE",
"241.72 477.88 CURVE SMOOTH",
"241.72 761.47 OFFCURVE",
"365.07 875.44 OFFCURVE",
"487.49 875.44 CURVE SMOOTH",
"610.42 875.44 OFFCURVE",
"716.78 797.02 OFFCURVE",
"792.75 739.11 CURVE",
"798.03 863.55 LINE",
"701.91 939.91 OFFCURVE",
"595.88 995.64 OFFCURVE",
"476.18 995.64 CURVE SMOOTH",
"304.96 995.64 OFFCURVE",
"104.66 844.21 OFFCURVE",
"104.66 477.85 CURVE SMOOTH"
);
}
);
width = 1047.52;
},
{
anchors = (
{
name = bottom;
position = "{563, 0}";
},
{
name = top;
position = "{507, 1520}";
},
{
name = topright;
position = "{947, 997}";
}
);
layerId = "E5C657BD-868A-4531-8053-230689A73369";
paths = (
{
closed = 1;
nodes = (
"946.928 1291.386 LINE SMOOTH",
"946.928 1424.198 OFFCURVE",
"903.208 1471.686 OFFCURVE",
"785.256 1471.686 CURVE SMOOTH",
"669.502 1471.686 LINE",
"655.816 1458 LINE",
"655.816 279.952 LINE SMOOTH",
"655.816 118.628 OFFCURVE",
"740.512 -9.406 OFFCURVE",
"909.952 -15.686 CURVE",
"948.382 13.488 OFFCURVE",
"991.242 84.266 OFFCURVE",
"1002.928 137.242 CURVE",
"968.102 163.324 OFFCURVE",
"946.928 222.034 OFFCURVE",
"946.928 287.802 CURVE SMOOTH"
);
},
{
closed = 1;
nodes = (
"66.908 183.372 OFFCURVE",
"182.908 -29.058 OFFCURVE",
"424.512 -29.058 CURVE SMOOTH",
"620 -29.058 OFFCURVE",
"777.604 132.662 OFFCURVE",
"798.942 291.126 CURVE",
"732.792 464.532 LINE",
"679.42 257.324 OFFCURVE",
"569.454 210.962 OFFCURVE",
"501.092 210.962 CURVE SMOOTH",
"427.556 210.962 OFFCURVE",
"372.136 291.986 OFFCURVE",
"372.136 484.744 CURVE SMOOTH",
"372.136 677.386 OFFCURVE",
"418.266 793.072 OFFCURVE",
"516.662 793.072 CURVE SMOOTH",
"586.396 793.072 OFFCURVE",
"672.164 738.676 OFFCURVE",
"749.85 675.618 CURVE",
"796.314 889.29 LINE",
"707.058 945.058 OFFCURVE",
"602.744 1016.232 OFFCURVE",
"465.884 1016.232 CURVE SMOOTH",
"250.048 1016.232 OFFCURVE",
"66.908 832.198 OFFCURVE",
"66.908 486.43 CURVE SMOOTH"
);
}
);
width = 1074.976;
}
);
leftKerningGroup = d;
unicode = 0064;
},
{
glyphname = e;
lastChange = "2020-04-09 11:32:39 +0000";
layers = (
{
anchors = (
{
name = bottom;
position = "{516, 0}";
},
{
name = ogonek;
position = "{666, 0}";
},
{
name = top;
position = "{510, 1084}";
}
);
layerId = "FA2AC253-0460-4F3F-AE23-6289F77EFFDF";
paths = (
{
closed = 1;
nodes = (
"879.7 448.81 LINE",
"885.49 496.51 OFFCURVE",
"887.4 528.21 OFFCURVE",
"887.4 575.55 CURVE SMOOTH",
"887.4 811.46 OFFCURVE",
"759.82 1003.61 OFFCURVE",
"503.94 1003.61 CURVE SMOOTH",
"253.02 1003.61 OFFCURVE",
"106.75 787.91 OFFCURVE",
"106.75 492 CURVE SMOOTH",
"106.75 217.85 OFFCURVE",
"202.78 -23.91 OFFCURVE",
"497.88 -23.91 CURVE SMOOTH",
"633.79 -23.91 OFFCURVE",
"767.52 24.21 OFFCURVE",
"859.37 88.06 CURVE",
"855.46 117.55 OFFCURVE",
"833.55 161.01 OFFCURVE",
"807.88 184.65 CURVE",
"719.76 134.38 OFFCURVE",
"623.64 98.23 OFFCURVE",
"515.34 98.23 CURVE SMOOTH",
"316.74 98.23 OFFCURVE",
"252.05 256.83 OFFCURVE",
"252.05 480.21 CURVE SMOOTH",
"252.05 523.4 LINE SMOOTH",
"252.05 746.3 OFFCURVE",
"340.92 897.47 OFFCURVE",
"503.97 897.47 CURVE SMOOTH",
"679.26 897.47 OFFCURVE",
"747.77 754.42 OFFCURVE",
"747.77 583.16 CURVE SMOOTH",
"747.77 555.07 LINE",
"188.86 555.07 LINE",
"188.86 448.81 LINE"
);
}
);
width = 1006.21;
},
{
anchors = (
{
name = bottom;
position = "{519, 0}";
},
{
name = ogonek;
position = "{713, 0}";
},
{
name = top;
position = "{510, 1084}";
}
);
layerId = "E5C657BD-868A-4531-8053-230689A73369";
paths = (
{
closed = 1;
nodes = (
"896.86 402.478 LINE",
"914.662 467.338 OFFCURVE",
"921.72 516.198 OFFCURVE",
"921.72 601.29 CURVE SMOOTH",
"921.72 842.348 OFFCURVE",
"770.116 1025.918 OFFCURVE",
"507.372 1025.918 CURVE SMOOTH",
"194.676 1025.918 OFFCURVE",
"63.85 793.058 OFFCURVE",
"63.85 492 CURVE SMOOTH",
"63.85 226.43 OFFCURVE",
"158.164 -29.058 OFFCURVE",
"504.744 -29.058 CURVE SMOOTH",
"645.802 -29.058 OFFCURVE",
"794.976 12.198 OFFCURVE",
"895.406 84.628 CURVE",
"886.348 143.29 OFFCURVE",
"859.29 217.638 OFFCURVE",
"814.744 261.87 CURVE",
"733.488 227.044 OFFCURVE",
"644.232 199.474 OFFCURVE",
"553.092 199.474 CURVE SMOOTH",
"388.812 199.474 OFFCURVE",
"363.59 323.754 OFFCURVE",
"363.59 468.198 CURVE SMOOTH",
"363.59 557.72 LINE SMOOTH",
"363.59 729.14 OFFCURVE",
"402.696 813.386 OFFCURVE",
"505.686 813.386 CURVE SMOOTH",
"607.188 813.386 OFFCURVE",
"646.526 730.396 OFFCURVE",
"646.526 631.208 CURVE SMOOTH",
"646.526 608.266 LINE",
"254.068 608.266 LINE",
"254.068 402.478 LINE"
);
}
);
width = 994.198;
}
);
leftKerningGroup = c;
rightKerningGroup = e;
unicode = 0065;
},
{
glyphname = f;
lastChange = "2020-04-09 11:32:39 +0000";
layers = (
{
anchors = (
{
name = top;
position = "{441, 1530}";
}
);
layerId = "FA2AC253-0460-4F3F-AE23-6289F77EFFDF";
paths = (
{
closed = 1;
nodes = (
"46.69 981.7 LINE",
"42.75 961.94 OFFCURVE",
"40.78 948.36 OFFCURVE",
"40.78 928.6 CURVE SMOOTH",
"40.78 908.84 OFFCURVE",
"42.75 893.29 OFFCURVE",
"46.69 875.56 CURVE",
"283.34 879.53 LINE",
"638.68 875.56 LINE",
"642.62 893.29 OFFCURVE",
"644.59 908.84 OFFCURVE",
"644.59 928.6 CURVE SMOOTH",
"644.59 948.36 OFFCURVE",
"642.62 961.94 OFFCURVE",
"638.68 981.7 CURVE",
"281.25 977.7 LINE"
);
},
{
closed = 1;
nodes = (
"218.69 0 LINE",
"238.24 -3.94 OFFCURVE",
"263.79 -5.91 OFFCURVE",
"285.34 -5.91 CURVE SMOOTH",
"306.86 -5.91 OFFCURVE",
"332.38 -3.94 OFFCURVE",
"351.93 0 CURVE",
"351.93 914.78 LINE",
"337.87 1015.2 OFFCURVE",
"326.02 1103.11 OFFCURVE",
"326.02 1185.23 CURVE SMOOTH",
"326.02 1305.71 OFFCURVE",
"386.2 1374.07 OFFCURVE",
"484.41 1374.07 CURVE SMOOTH",
"542.47 1374.07 OFFCURVE",
"608.56 1360.1 OFFCURVE",
"668.89 1341.98 CURVE",
"690.59 1365.68 OFFCURVE",
"702.32 1402.78 OFFCURVE",
"702.35 1436.18 CURVE",
"646.56 1458.12 OFFCURVE",
"548.8 1477.97 OFFCURVE",
"481.73 1477.97 CURVE SMOOTH",
"294.06 1477.97 OFFCURVE",
"198.78 1352.36 OFFCURVE",
"198.78 1190.96 CURVE SMOOTH",
"198.78 1115.2 OFFCURVE",
"210.69 1019.02 OFFCURVE",
"218.69 918.81 CURVE"
);
}
);
width = 634.71;
},
{
anchors = (
{
name = top;
position = "{465, 1522}";
}
);
layerId = "E5C657BD-868A-4531-8053-230689A73369";
paths = (
{
closed = 1;
nodes = (
"7.222 998.86 LINE",
"-0.15 965.372 OFFCURVE",
"-3.836 927.768 OFFCURVE",
"-3.836 894.28 CURVE SMOOTH",
"-3.836 860.792 OFFCURVE",
"-0.15 819.502 OFFCURVE",
"7.222 786.328 CURVE",
"321.092 792.014 LINE",
"714.184 786.328 LINE",
"721.556 819.502 OFFCURVE",
"725.242 860.792 OFFCURVE",
"725.242 894.28 CURVE SMOOTH",
"725.242 927.768 OFFCURVE",
"721.556 965.372 OFFCURVE",
"714.184 998.86 CURVE",
"324.15 994.86 LINE"
);
},
{
closed = 1;
nodes = (
"179.222 0 LINE",
"224.512 -7.372 OFFCURVE",
"275.802 -11.058 OFFCURVE",
"323.092 -11.058 CURVE SMOOTH",
"372.068 -11.058 OFFCURVE",
"425.044 -7.372 OFFCURVE",
"470.334 0 CURVE",
"470.334 870.164 LINE",
"459.706 946.56 OFFCURVE",
"439.276 1039.618 OFFCURVE",
"439.276 1114.874 CURVE SMOOTH",
"439.276 1207.898 OFFCURVE",
"489.16 1255.666 OFFCURVE",
"575.358 1255.666 CURVE SMOOTH",
"629.986 1255.666 OFFCURVE",
"690.928 1239.98 OFFCURVE",
"732.382 1228.724 CURVE",
"771.242 1269.584 OFFCURVE",
"798.416 1358.164 OFFCURVE",
"796.73 1425.884 CURVE",
"728.928 1451.256 OFFCURVE",
"617.44 1479.686 OFFCURVE",
"497.174 1479.686 CURVE SMOOTH",
"290.628 1479.686 OFFCURVE",
"154.164 1331.768 OFFCURVE",
"154.164 1136.048 CURVE SMOOTH",
"154.164 1046.56 OFFCURVE",
"171.222 960.676 OFFCURVE",
"179.222 872.478 CURVE"
);
}
);
width = 708.498;
}
);
leftKerningGroup = f;
unicode = 0066;
},
{
glyphname = g;
lastChange = "2020-04-09 11:32:39 +0000";
layers = (
{
anchors = (
{
name = bottom;
position = "{510, -418}";
},
{
name = top;
position = "{524, 1084}";
}
);
layerId = "FA2AC253-0460-4F3F-AE23-6289F77EFFDF";
paths = (
{
closed = 1;
nodes = (
"912.53 948.63 OFFCURVE",
"886.89 979.94 OFFCURVE",
"857.04 993.67 CURVE",
"756.24 953.07 OFFCURVE",
"737.38 857.64 OFFCURVE",
"737.38 754.66 CURVE",
"737.38 0.12 LINE SMOOTH",
"737.38 -172.69 OFFCURVE",
"703.74 -327.89 OFFCURVE",
"462.21 -327.89 CURVE SMOOTH",
"390.48 -327.89 OFFCURVE",
"270.09 -303.86 OFFCURVE",
"188.15 -263.83 CURVE",
"166.51 -289.41 OFFCURVE",
"150.78 -334.51 OFFCURVE",
"148.75 -371.94 CURVE",
"232.42 -407.88 OFFCURVE",
"354.03 -439.97 OFFCURVE",
"475.97 -439.97 CURVE SMOOTH",
"619.7 -439.97 OFFCURVE",
"723.19 -381.76 OFFCURVE",
"776.77 -316.33 CURVE SMOOTH",
"840.8 -238.36 OFFCURVE",
"866.56 -128.48 OFFCURVE",
"866.56 68.17 CURVE SMOOTH",
"866.56 703.91 LINE SMOOTH",
"866.56 790.27 OFFCURVE",
"872.29 874.72 OFFCURVE",
"922.56 923.11 CURVE"
);
},
{
closed = 1;
nodes = (
"104.66 183.85 OFFCURVE",
"220.66 -15.94 OFFCURVE",
"444.33 -15.94 CURVE SMOOTH",
"614.81 -15.94 OFFCURVE",
"740.75 108.72 OFFCURVE",
"788.45 184.12 CURVE",
"766.81 304.56 LINE",
"708.72 196.56 OFFCURVE",
"586.06 103.96 OFFCURVE",
"461.34 103.96 CURVE SMOOTH",
"342.53 103.96 OFFCURVE",
"241.72 214.47 OFFCURVE",
"241.72 487.88 CURVE SMOOTH",
"241.72 769.41 OFFCURVE",
"361.01 883.41 OFFCURVE",
"491.55 883.41 CURVE SMOOTH",
"610.3 883.41 OFFCURVE",
"730.69 807.44 OFFCURVE",
"796.51 722.4 CURVE",
"809.91 846.3 LINE",
"731.46 928.21 OFFCURVE",
"635.61 1003.61 OFFCURVE",
"474.15 1003.61 CURVE SMOOTH",
"304.93 1003.61 OFFCURVE",
"104.66 850.15 OFFCURVE",
"104.66 487.85 CURVE SMOOTH"
);
}
);
width = 1045.58;
},
{
anchors = (
{
name = bottom;
position = "{525, -418}";
},
{
name = top;
position = "{548, 1084}";
}
);
layerId = "E5C657BD-868A-4531-8053-230689A73369";
paths = (
{
closed = 1;
nodes = (
"996.614 912.594 OFFCURVE",
"950.382 983.372 OFFCURVE",
"911.952 1012.546 CURVE",
"742.512 1006.266 OFFCURVE",
"658.444 878.232 OFFCURVE",
"658.444 716.908 CURVE",
"658.444 -6.744 LINE SMOOTH",
"658.444 -133.222 OFFCURVE",
"604.212 -219.782 OFFCURVE",
"450.198 -219.782 CURVE SMOOTH",
"363.024 -219.782 OFFCURVE",
"264.942 -197.468 OFFCURVE",
"179.57 -159.154 CURVE",
"137.338 -208.758 OFFCURVE",
"106.164 -305.338 OFFCURVE",
"105.85 -375.372 CURVE",
"208.396 -414.744 OFFCURVE",
"352.314 -441.686 OFFCURVE",
"477.686 -441.686 CURVE SMOOTH",
"636.86 -441.686 OFFCURVE",
"769.522 -395.488 OFFCURVE",
"847.126 -297.454 CURVE SMOOTH",
"909.44 -217.768 OFFCURVE",
"948.928 -101.024 OFFCURVE",
"948.928 172.846 CURVE SMOOTH",
"948.928 709.058 LINE SMOOTH",
"948.928 774.826 OFFCURVE",
"970.102 833.536 OFFCURVE",
"1004.928 859.618 CURVE"
);
},
{
closed = 1;
nodes = (
"66.908 192.43 OFFCURVE",
"182.908 -19.372 OFFCURVE",
"425.454 -19.372 CURVE SMOOTH",
"568.478 -19.372 OFFCURVE",
"697.85 67.536 OFFCURVE",
"762.71 177.256 CURVE",
"720.478 386.928 LINE",
"667.536 278.928 OFFCURVE",
"582.628 220.648 OFFCURVE",
"499.092 220.648 CURVE SMOOTH",
"426.614 220.648 OFFCURVE",
"372.136 301.986 OFFCURVE",
"372.136 494.744 CURVE SMOOTH",
"372.136 688.758 OFFCURVE",
"417.638 802.758 OFFCURVE",
"517.29 802.758 CURVE SMOOTH",
"593.14 802.758 OFFCURVE",
"691.222 725.072 OFFCURVE",
"767.338 585.12 CURVE",
"815.058 829.14 LINE",
"762.348 916.198 OFFCURVE",
"657.918 1025.918 OFFCURVE",
"465.57 1025.918 CURVE SMOOTH",
"251.734 1025.918 OFFCURVE",
"66.908 841.57 OFFCURVE",
"66.908 496.43 CURVE SMOOTH"
);
}
);
width = 1069.604;
}
);
leftKerningGroup = d;
unicode = 0067;
},
{
glyphname = h;
lastChange = "2020-04-09 11:32:39 +0000";
layers = (
{
anchors = (
{
name = bottom;
position = "{552, 0}";
},
{
name = top;
position = "{550, 1520}";
}
);
layerId = "FA2AC253-0460-4F3F-AE23-6289F77EFFDF";
paths = (
{
closed = 1;
nodes = (
"314.23 1375.47 LINE SMOOTH",
"314.23 1436.21 OFFCURVE",
"304.83 1469.97 OFFCURVE",
"241.79 1469.97 CURVE SMOOTH",
"192.96 1469.97 LINE",
"180.99 1458 LINE",
"180.99 0 LINE",
"198.51 -3.94 OFFCURVE",
"220 -5.91 OFFCURVE",
"247.64 -5.91 CURVE SMOOTH",
"273.16 -5.91 OFFCURVE",
"296.65 -3.94 OFFCURVE",
"314.23 0 CURVE"
);
},
{
closed = 1;
nodes = (
"919.16 686.42 LINE SMOOTH",
"919.16 853.76 OFFCURVE",
"853.67 995.67 OFFCURVE",
"663.55 995.67 CURVE SMOOTH",
"517.49 995.67 OFFCURVE",
"362.71 917.82 OFFCURVE",
"276.83 807.52 CURVE",
"276.83 659.53 LINE",
"342.92 775.38 OFFCURVE",
"505.91 872.19 OFFCURVE",
"632.96 872.19 CURVE SMOOTH",
"751.8 872.19 OFFCURVE",
"784.01 803.77 OFFCURVE",
"784.01 640.6 CURVE SMOOTH",
"784.01 78.41 LINE SMOOTH",
"784.01 17.43 OFFCURVE",
"803.65 -11.94 OFFCURVE",
"854.45 -11.94 CURVE SMOOTH",
"885.7 -11.94 OFFCURVE",
"921.13 -0.21 OFFCURVE",
"940.71 17.46 CURVE",
"923.01 61.34 OFFCURVE",
"919.16 121.19 OFFCURVE",
"919.16 184.95 CURVE SMOOTH"
);
}
);
width = 1088.03;
},
{
anchors = (
{
name = bottom;
position = "{562, 0}";
},
{
name = top;
position = "{546, 1520}";
}
);
layerId = "E5C657BD-868A-4531-8053-230689A73369";
paths = (
{
closed = 1;
nodes = (
"415.474 1291.386 LINE SMOOTH",
"415.474 1424.198 OFFCURVE",
"371.754 1471.686 OFFCURVE",
"253.802 1471.686 CURVE SMOOTH",
"138.048 1471.686 LINE",
"124.362 1458 LINE",
"124.362 0 LINE",
"169.338 -7.372 OFFCURVE",
"220 -11.058 OFFCURVE",
"268.232 -11.058 CURVE SMOOTH",
"321.208 -11.058 OFFCURVE",
"373.87 -7.372 OFFCURVE",
"415.474 0 CURVE"
);
},
{
closed = 1;
nodes = (
"967.208 662.396 LINE SMOOTH",
"967.208 867.488 OFFCURVE",
"872.546 1014.546 OFFCURVE",
"689.29 1014.546 CURVE SMOOTH",
"546.662 1014.546 OFFCURVE",
"436.498 928.116 OFFCURVE",
"343.754 834.976 CURVE",
"343.754 572.014 LINE",
"404.696 696.444 OFFCURVE",
"511.058 746.922 OFFCURVE",
"578.048 746.922 CURVE SMOOTH",
"648.84 746.922 OFFCURVE",
"669.038 702.526 OFFCURVE",
"669.038 606.28 CURVE SMOOTH",
"669.038 169.358 LINE SMOOTH",
"669.038 50.034 OFFCURVE",
"709.27 -15.372 OFFCURVE",
"828.71 -15.372 CURVE SMOOTH",
"902.86 -15.372 OFFCURVE",
"970.894 11.802 OFFCURVE",
"1014.498 48.348 CURVE",
"979.638 99.092 OFFCURVE",
"967.208 167.522 OFFCURVE",
"967.208 245.01 CURVE SMOOTH"
);
}
);
width = 1086.314;
}
);
leftKerningGroup = h;
rightKerningGroup = h;
unicode = 0068;
},
{
glyphname = k;
lastChange = "2020-04-09 11:32:39 +0000";
layers = (
{
anchors = (
{
name = bottom;
position = "{529, 0}";
},
{
name = top;
position = "{529, 1084}";
}
);
layerId = "FA2AC253-0460-4F3F-AE23-6289F77EFFDF";
paths = (
{
closed = 1;
nodes = (
"314.23 1375.47 LINE SMOOTH",
"314.23 1436.21 OFFCURVE",
"304.83 1469.97 OFFCURVE",
"241.79 1469.97 CURVE SMOOTH",
"192.96 1469.97 LINE",
"180.99 1458 LINE",
"180.99 0 LINE",
"198.54 -3.94 OFFCURVE",
"220.03 -5.91 OFFCURVE",
"247.64 -5.91 CURVE SMOOTH",
"273.19 -5.91 OFFCURVE",
"296.65 -3.94 OFFCURVE",
"314.23 0 CURVE"
);
},
{
closed = 1;
nodes = (
"751.84 355.31 LINE SMOOTH",
"689.6 491.28 OFFCURVE",
"626.41 545.22 OFFCURVE",
"482.44 545.22 CURVE SMOOTH",
"245.67 545.22 LINE",
"245.67 438.96 LINE",
"311.43 444.9 LINE SMOOTH",
"359.49 448.87 OFFCURVE",
"399.52 450.81 OFFCURVE",
"425.01 450.81 CURVE SMOOTH",
"542 450.81 OFFCURVE",
"580.09 416.57 OFFCURVE",
"632.48 300.06 CURVE SMOOTH",
"727.05 89.46 LINE SMOOTH",
"754.96 28.09 OFFCURVE",
"774.69 -11.94 OFFCURVE",
"838.27 -11.94 CURVE SMOOTH",
"873.55 -11.94 OFFCURVE",
"912.89 7.7 OFFCURVE",
"928.35 29.16 CURVE",
"894.47 53.07 OFFCURVE",
"862.305 109.37 OFFCURVE",
"832.35 176.8 CURVE SMOOTH"
);
},
{
closed = 1;
nodes = (
"858.08 967.7 LINE",
"846.08 983.7 LINE",
"820.59 985.7 OFFCURVE",
"805.16 985.67 OFFCURVE",
"779.82 985.67 CURVE SMOOTH",
"720.21 985.67 OFFCURVE",
"700.75 959.88 OFFCURVE",
"670.87 916.39 CURVE SMOOTH",
"448.98 590.38 LINE SMOOTH",
"437.04 574.59 OFFCURVE",
"423.01 564.53 OFFCURVE",
"405.19 564.53 CURVE SMOOTH",
"255.22 556.44 LINE",
"255.22 493.73 LINE",
"417.04 493.73 LINE SMOOTH",
"491.45 493.73 OFFCURVE",
"546.52 517.16 OFFCURVE",
"596.34 590.44 CURVE SMOOTH"
);
}
);
width = 974.86;
},
{
anchors = (
{
name = bottom;
position = "{562, 0}";
},
{
name = top;
position = "{562, 1084}";
}
);
layerId = "E5C657BD-868A-4531-8053-230689A73369";
paths = (
{
closed = 1;
nodes = (
"415.474 1291.386 LINE SMOOTH",
"415.474 1424.198 OFFCURVE",
"371.754 1471.686 OFFCURVE",
"253.802 1471.686 CURVE SMOOTH",
"138.048 1471.686 LINE",
"124.362 1458 LINE",
"124.362 0 LINE",
"167.652 -7.372 OFFCURVE",
"218.314 -11.058 OFFCURVE",
"268.232 -11.058 CURVE SMOOTH",
"319.522 -11.058 OFFCURVE",
"373.87 -7.372 OFFCURVE",
"415.474 0 CURVE"
);
},
{
closed = 1;
nodes = (
"875.392 394.778 LINE SMOOTH",
"826.88 532.464 OFFCURVE",
"717.358 589.836 OFFCURVE",
"571.672 589.836 CURVE SMOOTH",
"264.546 589.836 LINE",
"264.546 384.048 LINE",
"344.034 393.42 LINE SMOOTH",
"388.662 399.106 OFFCURVE",
"426.976 404.478 OFFCURVE",
"481.638 404.478 CURVE SMOOTH",
"542 404.478 OFFCURVE",
"574.942 383.966 OFFCURVE",
"605.024 296.628 CURVE SMOOTH",
"666.99 120.348 LINE SMOOTH",
"700.048 22.942 OFFCURVE",
"735.222 -15.372 OFFCURVE",
"822.826 -15.372 CURVE SMOOTH",
"899.29 -15.372 OFFCURVE",
"976.382 24.86 OFFCURVE",
"1022.73 77.208 CURVE",
"981.986 106.266 OFFCURVE",
"959.259 145.406 OFFCURVE",
"926.73 245.44 CURVE SMOOTH"
);
},
{
closed = 1;
nodes = (
"967.904 984.86 LINE",
"955.904 1000.86 LINE",
"901.242 1002.86 OFFCURVE",
"853.208 1004.546 OFFCURVE",
"790.116 1004.546 CURVE SMOOTH",
"708.198 1004.546 OFFCURVE",
"657.85 966.744 OFFCURVE",
"621.106 894.082 CURVE SMOOTH",
"507.324 683.044 LINE SMOOTH",
"491.952 655.242 OFFCURVE",
"479.638 648.614 OFFCURVE",
"451.522 648.614 CURVE SMOOTH",
"299.836 645.672 LINE",
"299.836 509.174 LINE",
"471.952 509.174 LINE SMOOTH",
"637.31 509.174 OFFCURVE",
"745.576 565.208 OFFCURVE",
"805.692 679.672 CURVE SMOOTH"
);
}
);
width = 1040.068;
}
);
leftKerningGroup = h;
rightKerningGroup = k;
unicode = 006B;
},
{
glyphname = l;
lastChange = "2020-04-09 11:32:39 +0000";
layers = (
{
anchors = (
{
name = bottom;
position = "{328, 0}";
},
{
name = periodcentered;
position = "{561, 786}";
},
{
name = top;
position = "{238, 1564}";
},
{
name = topright;
position = "{310, 980}";
}
);
layerId = "FA2AC253-0460-4F3F-AE23-6289F77EFFDF";
paths = (
{
closed = 1;
nodes = (
"383.99 106.05 LINE",
"336.23 106.05 OFFCURVE",
"310.2 133.96 OFFCURVE",
"310.2 189.87 CURVE SMOOTH",
"310.2 1375.47 LINE SMOOTH",
"310.2 1436.21 OFFCURVE",
"300.8 1469.97 OFFCURVE",
"237.76 1469.97 CURVE SMOOTH",
"188.93 1469.97 LINE",
"176.96 1458 LINE",
"176.96 150.11 LINE SMOOTH",
"176.96 47.52 OFFCURVE",
"244.96 -7.97 OFFCURVE",
"339.58 -7.97 CURVE SMOOTH",
"378.98 -7.97 OFFCURVE",
"442.74 -2.03 OFFCURVE",
"480.38 3.91 CURVE",
"482.32 11.7 OFFCURVE",
"482.29 21.43 OFFCURVE",
"482.29 31.22 CURVE SMOOTH",
"482.29 58.86 OFFCURVE",
"478.38 86.44 OFFCURVE",
"470.5 106.05 CURVE"
);
}
);
width = 560.95;
},
{
anchors = (
{
name = bottom;
position = "{355, 0}";
},
{
name = periodcentered;
position = "{621.01, 786}";
},
{
name = top;
position = "{260, 1545}";
},
{
name = topright;
position = "{413, 997}";
}
);
layerId = "E5C657BD-868A-4531-8053-230689A73369";
paths = (
{
closed = 1;
nodes = (
"498.962 217.59 LINE",
"437.474 217.59 OFFCURVE",
"413.16 250.648 OFFCURVE",
"413.16 311.706 CURVE SMOOTH",
"413.16 1291.386 LINE SMOOTH",
"413.16 1424.198 OFFCURVE",
"369.44 1471.686 OFFCURVE",
"251.488 1471.686 CURVE SMOOTH",
"135.734 1471.686 LINE",
"122.048 1458 LINE",
"122.048 258.218 LINE SMOOTH",
"122.048 74.976 OFFCURVE",
"190.048 -9.686 OFFCURVE",
"363.604 -9.686 CURVE SMOOTH",
"437.324 -9.686 OFFCURVE",
"514.812 -0.314 OFFCURVE",
"573.044 9.058 CURVE",
"578.416 28.86 OFFCURVE",
"580.102 54.034 OFFCURVE",
"580.102 75.836 CURVE SMOOTH",
"580.102 124.068 OFFCURVE",
"571.044 175.672 OFFCURVE",
"556.3 217.59 CURVE"
);
}
);
width = 621.01;
}
);
leftKerningGroup = l;
rightKerningGroup = l;
unicode = 006C;
},
{
glyphname = m;
lastChange = "2020-04-09 11:32:39 +0000";
layers = (
{
anchors = (
{
name = bottom;
position = "{796, 0}";
},
{
name = top;
position = "{790, 1084}";
}
);
layerId = "FA2AC253-0460-4F3F-AE23-6289F77EFFDF";
paths = (
{
closed = 1;
nodes = (
"192.96 985.58 LINE",
"180.99 971.58 LINE",
"180.99 0 LINE",
"198.54 -3.94 OFFCURVE",
"221.97 -5.91 OFFCURVE",
"249.58 -5.91 CURVE SMOOTH",
"275.13 -5.91 OFFCURVE",
"298.56 -3.94 OFFCURVE",
"316.14 0 CURVE",
"316.14 891.71 LINE SMOOTH",
"316.14 952.45 OFFCURVE",
"307.01 985.58 OFFCURVE",
"243.91 985.58 CURVE SMOOTH"
);
},
{
closed = 1;
nodes = (
"727.17 0 LINE",
"744.72 -3.94 OFFCURVE",
"768.15 -5.91 OFFCURVE",
"795.76 -5.91 CURVE SMOOTH",
"821.31 -5.91 OFFCURVE",
"844.74 -3.94 OFFCURVE",
"862.32 0 CURVE",
"862.32 689.82 LINE SMOOTH",
"862.32 857.58 OFFCURVE",
"786.71 997.7 OFFCURVE",
"612.71 997.7 CURVE SMOOTH",
"484.98 997.7 OFFCURVE",
"348.77 918.24 OFFCURVE",
"266.98 783.79 CURVE",
"266.98 627.62 LINE",
"333.49 778.55 OFFCURVE",
"480.03 874.25 OFFCURVE",
"588.39 874.22 CURVE SMOOTH",
"691.35 874.22 OFFCURVE",
"727.17 805.56 OFFCURVE",
"727.17 642.66 CURVE SMOOTH"
);
},
{
closed = 1;
nodes = (
"1275.38 78.41 LINE SMOOTH",
"1275.38 17.43 OFFCURVE",
"1295.02 -11.94 OFFCURVE",
"1345.82 -11.94 CURVE SMOOTH",
"1377.07 -11.94 OFFCURVE",
"1412.5 -0.21 OFFCURVE",
"1432.08 17.46 CURVE",
"1414.38 61.34 OFFCURVE",
"1410.53 121.19 OFFCURVE",
"1410.53 184.95 CURVE SMOOTH",
"1410.53 689.88 LINE SMOOTH",
"1410.53 857.64 OFFCURVE",
"1334.77 997.7 OFFCURVE",
"1160.8 997.7 CURVE SMOOTH",
"1033.01 997.7 OFFCURVE",
"913.46 926.21 OFFCURVE",
"809.22 818.21 CURVE",
"809.22 627.8 LINE",
"887.73 788.73 OFFCURVE",
"1030.21 874.22 OFFCURVE",
"1136.66 874.22 CURVE SMOOTH",
"1239.62 874.22 OFFCURVE",
"1275.38 807.56 OFFCURVE",
"1275.38 644.66 CURVE"
);
}
);
width = 1579.4;
},
{
anchors = (
{
name = bottom;
position = "{809, 0}";
},
{
name = top;
position = "{793, 1084}";
}
);
layerId = "E5C657BD-868A-4531-8053-230689A73369";
paths = (
{
closed = 1;
nodes = (
"138.048 1009.604 LINE",
"124.362 995.604 LINE",
"124.362 0 LINE",
"167.652 -7.372 OFFCURVE",
"223.686 -11.058 OFFCURVE",
"273.604 -11.058 CURVE SMOOTH",
"324.894 -11.058 OFFCURVE",
"380.928 -7.372 OFFCURVE",
"422.532 0 CURVE",
"422.532 793.898 LINE SMOOTH",
"422.532 926.71 OFFCURVE",
"363.638 1009.604 OFFCURVE",
"249.058 1009.604 CURVE SMOOTH"
);
},
{
closed = 1;
nodes = (
"660.246 0 LINE",
"703.536 -7.372 OFFCURVE",
"759.57 -11.058 OFFCURVE",
"809.488 -11.058 CURVE SMOOTH",
"860.778 -11.058 OFFCURVE",
"916.812 -7.372 OFFCURVE",
"958.416 0 CURVE",
"958.416 700.116 LINE SMOOTH",
"958.416 881.604 OFFCURVE",
"860.498 1014.86 OFFCURVE",
"686.498 1014.86 CURVE SMOOTH",
"543.324 1014.86 OFFCURVE",
"419.126 904.512 OFFCURVE",
"325.324 795.802 CURVE",
"325.324 534.956 LINE",
"362.662 632.69 OFFCURVE",
"478.314 745.55 OFFCURVE",
"566.082 747.236 CURVE SMOOTH",
"614.13 747.236 OFFCURVE",
"660.246 716.328 OFFCURVE",
"660.246 604.908 CURVE SMOOTH"
);
},
{
closed = 1;
nodes = (
"1196.444 169.358 LINE SMOOTH",
"1196.444 50.034 OFFCURVE",
"1236.676 -15.372 OFFCURVE",
"1356.116 -15.372 CURVE SMOOTH",
"1430.266 -15.372 OFFCURVE",
"1498.3 11.802 OFFCURVE",
"1541.904 48.348 CURVE",
"1507.044 99.092 OFFCURVE",
"1494.614 167.522 OFFCURVE",
"1494.614 245.01 CURVE SMOOTH",
"1494.614 696.744 LINE SMOOTH",
"1494.614 878.232 OFFCURVE",
"1405.126 1014.86 OFFCURVE",
"1229.44 1014.86 CURVE SMOOTH",
"1089.638 1014.86 OFFCURVE",
"944.348 914.198 OFFCURVE",
"853.836 806.198 CURVE",
"853.836 524.84 LINE",
"903.174 632.574 OFFCURVE",
"1018.198 747.236 OFFCURVE",
"1098.908 747.236 CURVE SMOOTH",
"1146.956 747.236 OFFCURVE",
"1196.444 718.328 OFFCURVE",
"1196.444 606.908 CURVE"
);
}
);
width = 1613.72;
}
);
leftKerningGroup = m;
rightKerningGroup = h;
unicode = 006D;
},
{
glyphname = n;
lastChange = "2020-04-09 11:32:39 +0000";
layers = (
{
anchors = (
{
name = bottom;
position = "{552, 0}";
},
{
name = top;
position = "{554, 1084}";
}
);
layerId = "FA2AC253-0460-4F3F-AE23-6289F77EFFDF";
paths = (
{
closed = 1;
nodes = (
"192.96 985.58 LINE",
"180.99 973.61 LINE",
"180.99 0 LINE",
"198.54 -3.94 OFFCURVE",
"221.97 -5.91 OFFCURVE",
"249.58 -5.91 CURVE SMOOTH",
"275.13 -5.91 OFFCURVE",
"298.56 -3.94 OFFCURVE",
"316.14 0 CURVE",
"316.14 891.71 LINE SMOOTH",
"316.14 952.45 OFFCURVE",
"306.98 985.58 OFFCURVE",
"243.88 985.58 CURVE SMOOTH"
);
},
{
closed = 1;
nodes = (
"921.07 688.45 LINE SMOOTH",
"921.07 855.79 OFFCURVE",
"855.58 997.7 OFFCURVE",
"665.46 997.7 CURVE SMOOTH",
"519.4 997.7 OFFCURVE",
"364.62 919.85 OFFCURVE",
"278.74 809.55 CURVE",
"278.74 661.56 LINE",
"344.83 777.41 OFFCURVE",
"507.82 874.22 OFFCURVE",
"634.87 874.22 CURVE SMOOTH",
"753.71 874.22 OFFCURVE",
"785.92 805.8 OFFCURVE",
"785.92 642.63 CURVE SMOOTH",
"785.92 78.41 LINE SMOOTH",
"785.92 17.43 OFFCURVE",
"805.56 -11.94 OFFCURVE",
"856.36 -11.94 CURVE SMOOTH",
"887.61 -11.94 OFFCURVE",
"923.04 -0.21 OFFCURVE",
"942.62 17.46 CURVE",
"924.92 61.34 OFFCURVE",
"921.07 121.19 OFFCURVE",
"921.07 184.95 CURVE SMOOTH"
);
}
);
width = 1089.94;
},
{
anchors = (
{
name = bottom;
position = "{562, 0}";
},
{
name = top;
position = "{561, 1084}";
}
);
layerId = "E5C657BD-868A-4531-8053-230689A73369";
paths = (
{
closed = 1;
nodes = (
"138.048 1009.604 LINE",
"124.362 995.918 LINE",
"124.362 0 LINE",
"167.652 -7.372 OFFCURVE",
"223.686 -11.058 OFFCURVE",
"273.604 -11.058 CURVE SMOOTH",
"324.894 -11.058 OFFCURVE",
"380.928 -7.372 OFFCURVE",
"422.532 0 CURVE",
"422.532 793.898 LINE SMOOTH",
"422.532 926.71 OFFCURVE",
"365.324 1009.604 OFFCURVE",
"250.744 1009.604 CURVE SMOOTH"
);
},
{
closed = 1;
nodes = (
"974.266 662.71 LINE SMOOTH",
"974.266 867.802 OFFCURVE",
"879.604 1014.86 OFFCURVE",
"696.348 1014.86 CURVE SMOOTH",
"553.72 1014.86 OFFCURVE",
"443.556 928.43 OFFCURVE",
"350.812 835.29 CURVE",
"350.812 572.328 LINE",
"411.754 696.758 OFFCURVE",
"518.116 747.236 OFFCURVE",
"585.106 747.236 CURVE SMOOTH",
"655.898 747.236 OFFCURVE",
"676.096 702.84 OFFCURVE",
"676.096 606.594 CURVE SMOOTH",
"676.096 169.358 LINE SMOOTH",
"676.096 50.034 OFFCURVE",
"716.328 -15.372 OFFCURVE",
"835.768 -15.372 CURVE SMOOTH",
"909.918 -15.372 OFFCURVE",
"977.952 11.802 OFFCURVE",
"1021.556 48.348 CURVE",
"986.696 99.092 OFFCURVE",
"974.266 167.522 OFFCURVE",
"974.266 245.01 CURVE SMOOTH"
);
}
);
width = 1093.372;
}
);
leftKerningGroup = m;
rightKerningGroup = h;
unicode = 006E;
},
{
glyphname = o;
lastChange = "2020-04-09 11:32:39 +0000";
layers = (
{
anchors = (
{
name = bottom;
position = "{518, 0}";
},
{
name = ogonek;
position = "{661, 0}";
},
{
name = top;
position = "{518, 1084}";
},
{
name = topright;
position = "{772, 960}";
}
);
layerId = "FA2AC253-0460-4F3F-AE23-6289F77EFFDF";
paths = (
{
closed = 1;
nodes = (
"931.16 783.445 OFFCURVE",
"792.46 1003.61 OFFCURVE",
"517.94 1003.61 CURVE SMOOTH",
"247.435 1003.61 OFFCURVE",
"106.75 784.43 OFFCURVE",
"106.75 489.85 CURVE SMOOTH",
"106.75 197.27 OFFCURVE",
"244.435 -23.91 OFFCURVE",
"517.94 -23.91 CURVE SMOOTH",
"790.475 -23.91 OFFCURVE",
"931.16 193.24 OFFCURVE",
"931.16 489.85 CURVE SMOOTH"
);
},
{
closed = 1;
nodes = (
"247.87 688.39 OFFCURVE",
"314.65 897.65 OFFCURVE",
"519.97 897.65 CURVE SMOOTH",
"723.26 897.65 OFFCURVE",
"790.04 688.39 OFFCURVE",
"790.04 489.85 CURVE SMOOTH",
"790.04 289.28 OFFCURVE",
"723.26 84.08 OFFCURVE",
"519.97 84.08 CURVE SMOOTH",
"314.65 84.08 OFFCURVE",
"247.87 289.28 OFFCURVE",
"247.87 489.85 CURVE SMOOTH"
);
}
);
width = 1037.91;
},
{
anchors = (
{
name = bottom;
position = "{521, 0}";
},
{
name = ogonek;
position = "{697, 0}";
},
{
name = top;
position = "{521, 1084}";
},
{
name = topright;
position = "{855, 968}";
}
);
layerId = "E5C657BD-868A-4531-8053-230689A73369";
paths = (
{
closed = 1;
nodes = (
"979.208 815.191 OFFCURVE",
"823.348 1025.918 OFFCURVE",
"521.372 1025.918 CURVE SMOOTH",
"222.553 1025.918 OFFCURVE",
"63.85 817.034 OFFCURVE",
"63.85 498.43 CURVE SMOOTH",
"63.85 181.826 OFFCURVE",
"219.553 -29.058 OFFCURVE",
"521.372 -29.058 CURVE SMOOTH",
"820.505 -29.058 OFFCURVE",
"979.208 179.512 OFFCURVE",
"979.208 498.43 CURVE SMOOTH"
);
},
{
closed = 1;
nodes = (
"369.706 666.082 OFFCURVE",
"391.87 803.27 OFFCURVE",
"521.686 803.27 CURVE SMOOTH",
"651.188 803.27 OFFCURVE",
"673.352 666.082 OFFCURVE",
"673.352 498.43 CURVE SMOOTH",
"673.352 330.464 OFFCURVE",
"651.188 193.904 OFFCURVE",
"521.686 193.904 CURVE SMOOTH",
"391.87 193.904 OFFCURVE",
"369.706 330.464 OFFCURVE",
"369.706 498.43 CURVE SMOOTH"
);
}
);
width = 1043.058;
}
);
leftKerningGroup = c;
rightKerningGroup = o;
unicode = 006F;
},
{
glyphname = p;
lastChange = "2020-04-09 11:32:38 +0000";
layers = (
{
anchors = (
{
name = top;
position = "{524, 1084}";
}
);
layerId = "FA2AC253-0460-4F3F-AE23-6289F77EFFDF";
paths = (
{
closed = 1;
nodes = (
"192.96 985.58 LINE",
"180.99 973.61 LINE",
"180.99 -418 LINE",
"192.96 -429.97 LINE",
"241.79 -429.97 LINE SMOOTH",
"304.83 -429.97 OFFCURVE",
"314.2 -396.21 OFFCURVE",
"314.2 -335.47 CURVE SMOOTH",
"314.2 892.31 LINE SMOOTH",
"314.2 952.66 OFFCURVE",
"305.4 985.58 OFFCURVE",
"242.42 985.58 CURVE SMOOTH"
);
},
{
closed = 1;
nodes = (
"944.92 799.76 OFFCURVE",
"828.92 1003.61 OFFCURVE",
"611.34 1003.61 CURVE SMOOTH",
"429.58 1003.61 OFFCURVE",
"296 876.21 OFFCURVE",
"245.49 758.93 CURVE",
"268.74 621.56 LINE",
"318.68 780.72 OFFCURVE",
"461.25 883.71 OFFCURVE",
"586.24 883.71 CURVE SMOOTH",
"700.96 883.71 OFFCURVE",
"807.86 775.23 OFFCURVE",
"807.86 501.82 CURVE SMOOTH",
"807.86 218.23 OFFCURVE",
"684.51 104.26 OFFCURVE",
"562.09 104.26 CURVE SMOOTH",
"439.16 104.26 OFFCURVE",
"332.8 182.68 OFFCURVE",
"256.83 240.59 CURVE",
"251.55 116.15 LINE",
"347.67 39.79 OFFCURVE",
"453.7 -15.94 OFFCURVE",
"573.4 -15.94 CURVE SMOOTH",
"744.62 -15.94 OFFCURVE",
"944.92 135.49 OFFCURVE",
"944.92 501.85 CURVE SMOOTH"
);
}
);
width = 1049.58;
},
{
anchors = (
{
name = top;
position = "{524, 1084}";
}
);
layerId = "E5C657BD-868A-4531-8053-230689A73369";
paths = (
{
closed = 1;
nodes = (
"138.048 1009.604 LINE",
"124.362 995.918 LINE",
"124.362 -418 LINE",
"138.048 -431.686 LINE",
"253.802 -431.686 LINE SMOOTH",
"371.754 -431.686 OFFCURVE",
"417.16 -384.198 OFFCURVE",
"417.16 -251.386 CURVE SMOOTH",
"417.16 760.178 LINE SMOOTH",
"417.16 914.908 OFFCURVE",
"339.72 1009.604 OFFCURVE",
"218.396 1009.604 CURVE SMOOTH"
);
},
{
closed = 1;
nodes = (
"1006.696 813.488 OFFCURVE",
"890.696 1025.918 OFFCURVE",
"649.092 1025.918 CURVE SMOOTH",
"453.604 1025.918 OFFCURVE",
"296 864.198 OFFCURVE",
"274.662 705.734 CURVE",
"340.812 532.328 LINE",
"394.184 739.536 OFFCURVE",
"504.15 785.898 OFFCURVE",
"572.512 785.898 CURVE SMOOTH",
"646.048 785.898 OFFCURVE",
"701.468 704.874 OFFCURVE",
"701.468 512.116 CURVE SMOOTH",
"701.468 319.474 OFFCURVE",
"655.338 203.788 OFFCURVE",
"556.942 203.788 CURVE SMOOTH",
"487.208 203.788 OFFCURVE",
"401.44 258.184 OFFCURVE",
"323.754 321.242 CURVE",
"277.29 107.57 LINE",
"366.546 51.802 OFFCURVE",
"470.86 -19.372 OFFCURVE",
"607.72 -19.372 CURVE SMOOTH",
"823.556 -19.372 OFFCURVE",
"1006.696 164.662 OFFCURVE",
"1006.696 510.43 CURVE SMOOTH"
);
}
);
width = 1073.604;
}
);
leftKerningGroup = m;
rightKerningGroup = p;
unicode = 0070;
},
{
glyphname = q;
lastChange = "2020-04-09 11:32:38 +0000";
layers = (
{
layerId = "FA2AC253-0460-4F3F-AE23-6289F77EFFDF";
paths = (
{
closed = 1;
nodes = (
"104.66 183.85 OFFCURVE",
"220.66 -15.94 OFFCURVE",
"444.33 -15.94 CURVE SMOOTH",
"614.81 -15.94 OFFCURVE",
"740.75 104.66 OFFCURVE",
"788.45 180.06 CURVE",
"766.81 304.56 LINE",
"708.72 196.56 OFFCURVE",
"586.06 103.96 OFFCURVE",
"461.34 103.96 CURVE SMOOTH",
"346.59 103.96 OFFCURVE",
"241.72 214.47 OFFCURVE",
"241.72 487.88 CURVE SMOOTH",
"241.72 769.41 OFFCURVE",
"365.07 883.41 OFFCURVE",
"491.55 883.41 CURVE SMOOTH",
"610.3 883.41 OFFCURVE",
"730.69 807.44 OFFCURVE",
"796.51 722.4 CURVE",
"809.91 850.36 LINE",
"731.46 932.27 OFFCURVE",
"635.61 1003.61 OFFCURVE",
"474.15 1003.61 CURVE SMOOTH",
"304.93 1003.61 OFFCURVE",
"104.66 850.15 OFFCURVE",
"104.66 487.85 CURVE SMOOTH"
);
},
{
closed = 1;
nodes = (
"733.35 -335.47 LINE SMOOTH",
"733.35 -396.21 OFFCURVE",
"742.75 -429.97 OFFCURVE",
"805.79 -429.97 CURVE SMOOTH",
"854.62 -429.97 LINE",
"866.59 -418 LINE",
"866.59 703.91 LINE SMOOTH",
"866.59 790.27 OFFCURVE",
"872.32 874.72 OFFCURVE",
"922.59 923.11 CURVE",
"912.62 948.63 OFFCURVE",
"886.92 979.94 OFFCURVE",
"857.07 993.67 CURVE",
"756.27 953.07 OFFCURVE",
"733.35 857.64 OFFCURVE",
"733.35 754.66 CURVE SMOOTH"
);
}
);
width = 1045.49;
},
{
layerId = "E5C657BD-868A-4531-8053-230689A73369";
paths = (
{
closed = 1;
nodes = (
"66.908 192.43 OFFCURVE",
"182.908 -19.372 OFFCURVE",
"425.454 -19.372 CURVE SMOOTH",
"568.478 -19.372 OFFCURVE",
"697.85 66.908 OFFCURVE",
"762.71 176.628 CURVE",
"720.478 386.928 LINE",
"667.536 278.928 OFFCURVE",
"582.628 220.648 OFFCURVE",
"499.092 220.648 CURVE SMOOTH",
"427.242 220.648 OFFCURVE",
"372.136 301.986 OFFCURVE",
"372.136 494.744 CURVE SMOOTH",
"372.136 688.758 OFFCURVE",
"418.266 802.758 OFFCURVE",
"517.29 802.758 CURVE SMOOTH",
"593.14 802.758 OFFCURVE",
"691.222 725.072 OFFCURVE",
"767.338 585.12 CURVE",
"815.058 829.768 LINE",
"762.348 916.826 OFFCURVE",
"657.918 1025.918 OFFCURVE",
"465.57 1025.918 CURVE SMOOTH",
"251.734 1025.918 OFFCURVE",
"66.908 841.57 OFFCURVE",
"66.908 496.43 CURVE SMOOTH"
);
},
{
closed = 1;
nodes = (
"656.13 -251.386 LINE SMOOTH",
"656.13 -384.198 OFFCURVE",
"699.85 -431.686 OFFCURVE",
"817.802 -431.686 CURVE SMOOTH",
"933.556 -431.686 LINE",
"947.242 -418 LINE",
"947.242 709.058 LINE SMOOTH",
"947.242 774.826 OFFCURVE",
"968.416 833.536 OFFCURVE",
"1003.242 859.618 CURVE",
"991.556 912.594 OFFCURVE",
"948.696 983.372 OFFCURVE",
"910.266 1012.546 CURVE",
"740.826 1006.266 OFFCURVE",
"656.13 878.232 OFFCURVE",
"656.13 716.908 CURVE SMOOTH"
);
}
);
width = 1074.662;
}
);
leftKerningGroup = d;
unicode = 0071;
},
{
glyphname = r;
lastChange = "2020-04-09 11:32:39 +0000";
layers = (
{
anchors = (
{
name = bottom;
position = "{268, 0}";
},
{
name = top;
position = "{394, 1084}";
}
);
layerId = "FA2AC253-0460-4F3F-AE23-6289F77EFFDF";
paths = (
{
closed = 1;
nodes = (
"644.26 991.79 OFFCURVE",
"612.26 993.7 OFFCURVE",
"592.92 993.7 CURVE SMOOTH",
"369.1 993.7 OFFCURVE",
"278.56 778.12 OFFCURVE",
"278.8 610.96 CURVE",
"304.65 579.2 LINE",
"328.11 676.51 OFFCURVE",
"400.32 858.16 OFFCURVE",
"583.55 858.16 CURVE",
"605.34 858.22 OFFCURVE",
"629.19 858.28 OFFCURVE",
"650.98 856.46 CURVE",
"674.53 891.62 OFFCURVE",
"682.23 942.33 OFFCURVE",
"682.23 985.85 CURVE"
);
},
{
closed = 1;
nodes = (
"163.14 880.81 OFFCURVE",
"199.02 810.75 OFFCURVE",
"199.02 713.08 CURVE SMOOTH",
"199.02 0 LINE",
"216.57 -3.94 OFFCURVE",
"240 -5.91 OFFCURVE",
"267.61 -5.91 CURVE SMOOTH",
"293.16 -5.91 OFFCURVE",
"316.59 -3.94 OFFCURVE",
"334.17 0 CURVE",
"334.17 726.93 LINE",
"330.41 857.82 OFFCURVE",
"287.16 955.28 OFFCURVE",
"188.54 993.67 CURVE",
"160.72 977.91 OFFCURVE",
"135.02 942.54 OFFCURVE",
"127.08 917.02 CURVE"
);
}
);
width = 698.47;
},
{
anchors = (
{
name = bottom;
position = "{290, 0}";
},
{
name = top;
position = "{416, 1084}";
}
);
layerId = "E5C657BD-868A-4531-8053-230689A73369";
paths = (
{
closed = 1;
nodes = (
"743.788 1003.802 OFFCURVE",
"711.788 1010.86 OFFCURVE",
"654.696 1010.86 CURVE SMOOTH",
"420.58 1010.86 OFFCURVE",
"360.928 771.256 OFFCURVE",
"347.44 556.048 CURVE",
"381.87 510.56 LINE",
"436.218 647.338 OFFCURVE",
"496.416 734.608 OFFCURVE",
"609.29 734.608 CURVE",
"643.092 731.236 OFFCURVE",
"675.522 727.864 OFFCURVE",
"709.324 715.748 CURVE",
"758.614 798.956 OFFCURVE",
"783.474 923.454 OFFCURVE",
"783.474 994.43 CURVE"
);
},
{
closed = 1;
nodes = (
"97.932 834.478 OFFCURVE",
"140.676 767.85 OFFCURVE",
"140.676 651.304 CURVE SMOOTH",
"140.676 0 LINE",
"183.966 -7.372 OFFCURVE",
"240 -11.058 OFFCURVE",
"289.918 -11.058 CURVE SMOOTH",
"341.208 -11.058 OFFCURVE",
"397.242 -7.372 OFFCURVE",
"438.846 0 CURVE",
"438.846 673.734 LINE",
"421.358 868.116 OFFCURVE",
"335.208 996.464 OFFCURVE",
"157.652 1012.546 CURVE",
"119.536 983.058 OFFCURVE",
"76.676 911.652 OFFCURVE",
"65.304 858.676 CURVE"
);
}
);
width = 785.986;
}
);
leftKerningGroup = r;
rightKerningGroup = r;
unicode = 0072;
},
{
glyphname = s;
lastChange = "2020-04-09 11:32:39 +0000";
layers = (
{
anchors = (
{
name = bottom;
position = "{426, 0}";
},
{
name = top;
position = "{431, 1084}";
}
);
layerId = "FA2AC253-0460-4F3F-AE23-6289F77EFFDF";
paths = (
{
closed = 1;
nodes = (
"158.405 24.15 OFFCURVE",
"272.075 -23.91 OFFCURVE",
"412.03 -23.91 CURVE SMOOTH",
"623.07 -23.91 OFFCURVE",
"776.95 79.73 OFFCURVE",
"776.95 255.34 CURVE SMOOTH",
"776.95 398.92 OFFCURVE",
"679.22 487.785 OFFCURVE",
"531.28 542.8 CURVE SMOOTH",
"408.295 588.83 LINE SMOOTH",
"305.515 627.13 OFFCURVE",
"253.035 669.46 OFFCURVE",
"253.035 740.03 CURVE SMOOTH",
"253.035 832.96 OFFCURVE",
"329.815 891.44 OFFCURVE",
"438.685 891.44 CURVE SMOOTH",
"540.805 891.44 OFFCURVE",
"636.715 859.53 OFFCURVE",
"698.385 831.68 CURVE",
"726.025 859.53 OFFCURVE",
"741.635 902.51 OFFCURVE",
"741.695 939.94 CURVE",
"661.815 975.82 OFFCURVE",
"540.355 1003.61 OFFCURVE",
"442.805 1003.61 CURVE SMOOTH",
"263.705 1003.61 OFFCURVE",
"111.705 902.03 OFFCURVE",
"111.705 732.57 CURVE SMOOTH",
"111.705 586.81 OFFCURVE",
"231.885 506.93 OFFCURVE",
"367.795 456.96 CURVE SMOOTH",
"486.93 412.9 LINE SMOOTH",
"581.41 377.705 OFFCURVE",
"635.86 314.15 OFFCURVE",
"635.86 245.67 CURVE SMOOTH",
"633.83 150.8 OFFCURVE",
"547.08 84.2 OFFCURVE",
"416.21 84.2 CURVE SMOOTH",
"314.075 84.2 OFFCURVE",
"214 130.35 OFFCURVE",
"132.09 176.35 CURVE",
"104.39 154.77 OFFCURVE",
"78.6 109.58 OFFCURVE",
"76.6 76.12 CURVE"
);
}
);
width = 867.7;
},
{
anchors = (
{
name = bottom;
position = "{444, 0}";
},
{
name = top;
position = "{444, 1084}";
}
);
layerId = "E5C657BD-868A-4531-8053-230689A73369";
paths = (
{
closed = 1;
nodes = (
"135.239 15.57 OFFCURVE",
"267.785 -29.058 OFFCURVE",
"410.314 -29.058 CURVE SMOOTH",
"676.266 -29.058 OFFCURVE",
"837.01 95.174 OFFCURVE",
"837.01 293.092 CURVE SMOOTH",
"837.01 460.696 OFFCURVE",
"723.836 557.283 OFFCURVE",
"572.464 611.44 CURVE SMOOTH",
"448.621 655.754 LINE SMOOTH",
"390.457 676.894 OFFCURVE",
"365.433 700.348 OFFCURVE",
"365.433 738.314 CURVE SMOOTH",
"365.433 778.048 OFFCURVE",
"397.597 809.072 OFFCURVE",
"456.703 809.072 CURVE SMOOTH",
"551.959 809.072 OFFCURVE",
"653.017 772.014 OFFCURVE",
"733.563 735.584 CURVE",
"781.795 772.014 OFFCURVE",
"819.713 873.338 OFFCURVE",
"816.341 943.372 CURVE",
"729.597 986.116 OFFCURVE",
"577.249 1025.918 OFFCURVE",
"453.959 1025.918 CURVE SMOOTH",
"223.379 1025.918 OFFCURVE",
"71.379 900.314 OFFCURVE",
"71.379 699.966 CURVE SMOOTH",
"71.379 540.478 OFFCURVE",
"181.263 453.734 OFFCURVE",
"322.321 402.048 CURVE SMOOTH",
"433.734 361.42 LINE SMOOTH",
"500.758 337.379 OFFCURVE",
"529.468 305.57 OFFCURVE",
"529.468 264.546 CURVE SMOOTH",
"529.154 219.44 OFFCURVE",
"485.304 187.16 OFFCURVE",
"404.198 187.16 CURVE SMOOTH",
"309.785 187.16 OFFCURVE",
"214 224.73 OFFCURVE",
"126.942 270.73 CURVE",
"82.082 225.126 OFFCURVE",
"44.28 133.604 OFFCURVE",
"42.28 69.256 CURVE"
);
}
);
width = 884.86;
}
);
leftKerningGroup = s;
rightKerningGroup = s;
unicode = 0073;
},
{
glyphname = t;
lastChange = "2020-04-09 11:32:39 +0000";
layers = (
{
anchors = (
{
name = bottom;
position = "{386, 0}";
},
{
name = top;
position = "{313, 1360}";
},
{
name = topright;
position = "{348, 980}";
}
);
layerId = "FA2AC253-0460-4F3F-AE23-6289F77EFFDF";
paths = (
{
closed = 1;
nodes = (
"214.87 150.11 LINE SMOOTH",
"214.87 47.52 OFFCURVE",
"284.66 -7.97 OFFCURVE",
"391.46 -7.97 CURVE SMOOTH",
"469.43 -7.97 OFFCURVE",
"528.68 -4.06 OFFCURVE",
"590.5 3.91 CURVE",
"592.44 11.7 OFFCURVE",
"592.41 21.43 OFFCURVE",
"592.41 31.22 CURVE SMOOTH",
"592.41 58.89 OFFCURVE",
"588.5 86.44 OFFCURVE",
"580.62 106.05 CURVE",
"425.93 106.05 LINE SMOOTH",
"368.02 106.05 OFFCURVE",
"348.11 140.05 OFFCURVE",
"348.11 187.84 CURVE SMOOTH",
"348.11 1277.88 LINE",
"336.14 1289.85 LINE",
"287.31 1289.85 LINE SMOOTH",
"224.27 1289.85 OFFCURVE",
"214.87 1256.09 OFFCURVE",
"214.87 1195.35 CURVE SMOOTH"
);
},
{
closed = 1;
nodes = (
"303.43 977.73 LINE",
"75.14 981.7 LINE",
"71.23 962 OFFCURVE",
"69.26 948.36 OFFCURVE",
"69.26 928.6 CURVE SMOOTH",
"69.26 908.9 OFFCURVE",
"71.23 893.26 OFFCURVE",
"75.14 875.56 CURVE",
"305.61 879.53 LINE",
"602.38 875.56 LINE",
"606.29 893.26 OFFCURVE",
"608.26 908.9 OFFCURVE",
"608.26 928.6 CURVE SMOOTH",
"608.26 948.36 OFFCURVE",
"606.29 962 OFFCURVE",
"602.38 981.7 CURVE"
);
}
);
width = 668.71;
},
{
anchors = (
{
name = bottom;
position = "{416, 0}";
},
{
name = top;
position = "{340, 1368}";
},
{
name = topright;
position = "{456, 997}";
}
);
layerId = "E5C657BD-868A-4531-8053-230689A73369";
paths = (
{
closed = 1;
nodes = (
"165.106 258.218 LINE SMOOTH",
"165.106 74.976 OFFCURVE",
"246.908 -9.686 OFFCURVE",
"422.348 -9.686 CURVE SMOOTH",
"502.034 -9.686 OFFCURVE",
"604.184 -0.628 OFFCURVE",
"676.3 9.058 CURVE",
"681.672 28.86 OFFCURVE",
"683.358 54.034 OFFCURVE",
"683.358 75.836 CURVE SMOOTH",
"683.358 122.382 OFFCURVE",
"674.3 175.672 OFFCURVE",
"659.556 217.59 CURVE",
"544.334 217.59 LINE SMOOTH",
"481.276 217.59 OFFCURVE",
"456.218 251.59 OFFCURVE",
"456.218 311.392 CURVE SMOOTH",
"456.218 1284.744 LINE",
"442.532 1298.43 LINE",
"326.778 1298.43 LINE SMOOTH",
"208.826 1298.43 OFFCURVE",
"165.106 1250.942 OFFCURVE",
"165.106 1118.13 CURVE SMOOTH"
);
},
{
closed = 1;
nodes = (
"336.034 993.174 LINE",
"9.932 998.86 LINE",
"0.874 962 OFFCURVE",
"-2.812 927.768 OFFCURVE",
"-2.812 894.28 CURVE SMOOTH",
"-2.812 857.42 OFFCURVE",
"0.874 821.188 OFFCURVE",
"9.932 786.328 CURVE",
"327.918 792.014 LINE",
"695.044 786.328 LINE",
"704.102 821.188 OFFCURVE",
"707.788 857.42 OFFCURVE",
"707.788 894.28 CURVE SMOOTH",
"707.788 927.768 OFFCURVE",
"704.102 962 OFFCURVE",
"695.044 998.86 CURVE"
);
}
);
width = 742.498;
}
);
leftKerningGroup = t;
rightKerningGroup = t;
unicode = 0074;
},
{
glyphname = u;
lastChange = "2020-04-09 11:32:39 +0000";
layers = (
{
anchors = (
{
name = bottom;
position = "{536, 0}";
},
{
name = ogonek;
position = "{899, -14}";
},
{
name = top;
position = "{538, 1084}";
},
{
name = topright;
position = "{909, 980}";
}
);
layerId = "FA2AC253-0460-4F3F-AE23-6289F77EFFDF";
paths = (
{
closed = 1;
nodes = (
"908.95 979.7 LINE",
"891.4 983.64 OFFCURVE",
"867.97 985.61 OFFCURVE",
"840.36 985.61 CURVE SMOOTH",
"814.81 985.61 OFFCURVE",
"791.38 983.64 OFFCURVE",
"773.8 979.7 CURVE",
"773.8 224.98 LINE SMOOTH",
"773.8 122 OFFCURVE",
"798.66 26.63 OFFCURVE",
"899.43 -13.97 CURVE",
"929.28 -0.24 OFFCURVE",
"954.98 31.13 OFFCURVE",
"964.95 56.65 CURVE",
"914.68 105.04 OFFCURVE",
"908.95 189.49 OFFCURVE",
"908.95 275.85 CURVE SMOOTH"
);
},
{
closed = 1;
nodes = (
"168.87 291.25 LINE SMOOTH",
"168.87 123.91 OFFCURVE",
"234.36 -18 OFFCURVE",
"424.48 -18 CURVE SMOOTH",
"570.54 -18 OFFCURVE",
"725.32 59.85 OFFCURVE",
"811.2 170.15 CURVE",
"811.2 318.14 LINE",
"745.11 202.29 OFFCURVE",
"582.12 105.48 OFFCURVE",
"455.07 105.48 CURVE SMOOTH",
"336.23 105.48 OFFCURVE",
"304.02 173.9 OFFCURVE",
"304.02 337.07 CURVE SMOOTH",
"304.02 901.29 LINE SMOOTH",
"304.02 962.27 OFFCURVE",
"284.38 991.64 OFFCURVE",
"233.58 991.64 CURVE SMOOTH",
"202.33 991.64 OFFCURVE",
"166.9 979.91 OFFCURVE",
"147.32 962.24 CURVE",
"165.02 918.36 OFFCURVE",
"168.87 858.51 OFFCURVE",
"168.87 794.75 CURVE SMOOTH"
);
}
);
width = 1091.91;
},
{
anchors = (
{
name = bottom;
position = "{539, 0}";
},
{
name = ogonek;
position = "{932, -16}";
},
{
name = top;
position = "{531, 1084}";
},
{
name = topright;
position = "{969, 997}";
}
);
layerId = "E5C657BD-868A-4531-8053-230689A73369";
paths = (
{
closed = 1;
nodes = (
"969.01 996.86 LINE",
"925.72 1004.232 OFFCURVE",
"869.686 1007.918 OFFCURVE",
"819.768 1007.918 CURVE SMOOTH",
"768.478 1007.918 OFFCURVE",
"712.444 1004.232 OFFCURVE",
"670.84 996.86 CURVE",
"670.84 283.324 LINE SMOOTH",
"670.84 122 OFFCURVE",
"760.908 -9.406 OFFCURVE",
"932.034 -15.686 CURVE",
"970.464 13.488 OFFCURVE",
"1013.324 80.894 OFFCURVE",
"1025.01 133.87 CURVE",
"990.184 159.952 OFFCURVE",
"969.01 218.662 OFFCURVE",
"969.01 284.43 CURVE SMOOTH"
);
},
{
closed = 1;
nodes = (
"119.106 334.15 LINE SMOOTH",
"119.106 129.058 OFFCURVE",
"213.768 -18 OFFCURVE",
"397.024 -18 CURVE SMOOTH",
"539.652 -18 OFFCURVE",
"649.816 68.43 OFFCURVE",
"742.56 161.57 CURVE",
"742.56 424.532 LINE",
"681.618 300.102 OFFCURVE",
"575.256 249.624 OFFCURVE",
"508.266 249.624 CURVE SMOOTH",
"437.474 249.624 OFFCURVE",
"417.276 294.02 OFFCURVE",
"417.276 390.266 CURVE SMOOTH",
"417.276 827.502 LINE SMOOTH",
"417.276 946.826 OFFCURVE",
"377.044 1012.232 OFFCURVE",
"257.604 1012.232 CURVE SMOOTH",
"183.454 1012.232 OFFCURVE",
"115.42 985.058 OFFCURVE",
"71.816 948.512 CURVE",
"106.676 897.768 OFFCURVE",
"119.106 829.338 OFFCURVE",
"119.106 751.85 CURVE SMOOTH"
);
}
);
width = 1097.058;
}
);
leftKerningGroup = u;
rightKerningGroup = u;
unicode = 0075;
},
{
glyphname = v;
lastChange = "2020-04-09 11:32:39 +0000";
layers = (
{
anchors = (
{
name = bottom;
position = "{443, 0}";
},
{
name = top;
position = "{439, 1084}";
}
);
layerId = "FA2AC253-0460-4F3F-AE23-6289F77EFFDF";
paths = (
{
closed = 1;
nodes = (
"455.31 120.11 LINE",
"443.31 120.11 OFFCURVE",
"441.37 122.14 OFFCURVE",
"437.34 136.11 CURVE SMOOTH",
"421.25 198.14 OFFCURVE",
"376.77 344.8 OFFCURVE",
"338.47 459.4 CURVE SMOOTH",
"175.3 943.17 LINE SMOOTH",
"163.51 980.03 OFFCURVE",
"140.05 993.64 OFFCURVE",
"109.13 993.64 CURVE SMOOTH",
"85.58 993.64 OFFCURVE",
"64.3 989.88 OFFCURVE",
"24.54 969.94 CURVE",
"327.56 83.13 LINE SMOOTH",
"355.44 -0.24 OFFCURVE",
"374.75 -9.97 OFFCURVE",
"431.76 -9.97 CURVE SMOOTH",
"460.95 -9.97 OFFCURVE",
"496.14 -8 OFFCURVE",
"525.51 0 CURVE",
"601.57 211.7 OFFCURVE",
"754.02 653.58 OFFCURVE",
"856.38 972.03 CURVE",
"852.47 977.91 LINE",
"830.89 983.7 OFFCURVE",
"811.55 987.67 OFFCURVE",
"786 987.67 CURVE SMOOTH",
"770.36 987.67 OFFCURVE",
"752.69 987.73 OFFCURVE",
"730.93 981.76 CURVE"
);
}
);
width = 878.71;
},
{
anchors = (
{
name = bottom;
position = "{481, 0}";
},
{
name = top;
position = "{475, 1084}";
}
);
layerId = "E5C657BD-868A-4531-8053-230689A73369";
paths = (
{
closed = 1;
nodes = (
"494.778 228.218 LINE",
"482.778 228.218 OFFCURVE",
"477.406 228.532 OFFCURVE",
"475.092 244.218 CURVE SMOOTH",
"464.15 304.532 OFFCURVE",
"447.126 413.44 OFFCURVE",
"425.986 493.72 CURVE SMOOTH",
"329.74 876.246 LINE SMOOTH",
"305.938 978.314 OFFCURVE",
"251.59 1014.232 OFFCURVE",
"158.894 1014.232 CURVE SMOOTH",
"109.604 1014.232 OFFCURVE",
"47.14 996.744 OFFCURVE",
"-6.348 973.372 CURVE",
"238.328 132.894 LINE SMOOTH",
"273.072 13.488 OFFCURVE",
"331.85 -11.686 OFFCURVE",
"445.488 -11.686 CURVE SMOOTH",
"521.01 -11.686 OFFCURVE",
"602.532 -8 OFFCURVE",
"667.938 0 CURVE",
"740.566 228.86 OFFCURVE",
"867.276 677.604 OFFCURVE",
"949.044 970.314 CURVE",
"939.986 983.058 LINE",
"894.382 1000.86 OFFCURVE",
"837.29 1006.546 OFFCURVE",
"786 1006.546 CURVE SMOOTH",
"749.768 1006.546 OFFCURVE",
"713.222 1003.174 OFFCURVE",
"677.734 995.488 CURVE"
);
}
);
width = 952.498;
}
);
leftKerningGroup = v;
rightKerningGroup = v;
unicode = 0076;
},
{
glyphname = w;
lastChange = "2020-04-09 11:32:39 +0000";
layers = (
{
anchors = (
{
name = bottom;
position = "{707, 0}";
},
{
name = top;
position = "{707, 1084}";
}
);
layerId = "FA2AC253-0460-4F3F-AE23-6289F77EFFDF";
paths = (
{
closed = 1;
nodes = (
"285.32 83.19 LINE SMOOTH",
"305.2 1.79 OFFCURVE",
"344.93 -7.94 OFFCURVE",
"383.67 -7.94 CURVE SMOOTH",
"419.04 -7.94 OFFCURVE",
"470.32 -5.97 OFFCURVE",
"501.78 0 CURVE",
"600.47 402.87 LINE SMOOTH",
"626.65 513.05 OFFCURVE",
"668.98 697.8 OFFCURVE",
"701.25 843.95 CURVE",
"709.19 843.95 LINE",
"743.49 697.83 OFFCURVE",
"779.73 513.11 OFFCURVE",
"803.88 402.93 CURVE SMOOTH",
"876.51 83.25 LINE SMOOTH",
"894.51 1.91 OFFCURVE",
"934.21 -7.94 OFFCURVE",
"985.1 -7.94 CURVE SMOOTH",
"1018.47 -7.94 OFFCURVE",
"1065.72 -5.94 OFFCURVE",
"1091.12 -2.03 CURVE",
"1341.39 972.12 LINE",
"1337.48 977.91 LINE",
"1321.93 983.64 OFFCURVE",
"1300.86 987.64 OFFCURVE",
"1275.13 987.64 CURVE SMOOTH",
"1249.31 987.64 OFFCURVE",
"1223.67 985.67 OFFCURVE",
"1207.97 981.76 CURVE",
"1085.43 464.47 LINE SMOOTH",
"1057.37 348.59 OFFCURVE",
"1031.22 234.59 OFFCURVE",
"1000.95 101.93 CURVE",
"990.98 101.93 OFFCURVE",
"988.98 103.9 OFFCURVE",
"984.95 119.96 CURVE SMOOTH",
"789.63 979.88 LINE",
"772.11 983.76 OFFCURVE",
"731.01 985.73 OFFCURVE",
"707.28 985.73 CURVE SMOOTH",
"685.55 985.73 OFFCURVE",
"642.33 983.76 OFFCURVE",
"622.81 979.88 CURVE",
"415.25 101.93 LINE",
"407.31 101.93 OFFCURVE",
"403.28 103.9 OFFCURVE",
"399.25 119.96 CURVE SMOOTH",
"381.07 200.14 OFFCURVE",
"352.92 342.59 OFFCURVE",
"324.89 464.47 CURVE SMOOTH",
"216.14 940.93 LINE SMOOTH",
"206.26 986.3 OFFCURVE",
"178.32 993.64 OFFCURVE",
"153.52 993.64 CURVE SMOOTH",
"132.06 993.64 OFFCURVE",
"106.6 989.79 OFFCURVE",
"68.96 971.88 CURVE"
);
}
);
width = 1400.2;
},
{
anchors = (
{
name = bottom;
position = "{750, 0}";
},
{
name = top;
position = "{750, 1084}";
}
);
layerId = "E5C657BD-868A-4531-8053-230689A73369";
paths = (
{
closed = 1;
nodes = (
"209.816 129.522 LINE SMOOTH",
"236.56 13.802 OFFCURVE",
"291.734 -11.372 OFFCURVE",
"402.546 -11.372 CURVE SMOOTH",
"473.952 -11.372 OFFCURVE",
"566.416 -7.686 OFFCURVE",
"628.764 0 CURVE",
"687.986 353.106 LINE SMOOTH",
"703.87 452.99 OFFCURVE",
"727.324 594.84 OFFCURVE",
"744.15 732.41 CURVE",
"755.522 732.41 LINE",
"772.662 593.154 OFFCURVE",
"795.174 449.618 OFFCURVE",
"810.744 349.734 CURVE SMOOTH",
"847.338 126.15 LINE SMOOTH",
"865.338 7.058 OFFCURVE",
"922.198 -11.372 OFFCURVE",
"1036.58 -11.372 CURVE SMOOTH",
"1105.986 -11.372 OFFCURVE",
"1196.136 -9.372 OFFCURVE",
"1255.856 -0.314 CURVE",
"1490.682 965.256 LINE",
"1481.624 983.058 LINE",
"1440.334 1004.232 OFFCURVE",
"1366.068 1008.232 OFFCURVE",
"1324.894 1008.232 CURVE SMOOTH",
"1288.778 1008.232 OFFCURVE",
"1242.546 1004.546 OFFCURVE",
"1209.686 995.488 CURVE",
"1118.034 551.986 LINE SMOOTH",
"1093.406 429.242 OFFCURVE",
"1075.836 315.242 OFFCURVE",
"1061.01 220.334 CURVE",
"1049.324 220.334 OFFCURVE",
"1047.324 224.02 OFFCURVE",
"1045.01 236.648 CURVE SMOOTH",
"925.194 986.744 LINE",
"880.218 997.488 OFFCURVE",
"787.638 1001.174 OFFCURVE",
"748.464 1001.174 CURVE SMOOTH",
"711.29 1001.174 OFFCURVE",
"623.454 997.488 OFFCURVE",
"576.478 986.744 CURVE",
"458.15 220.334 LINE",
"446.778 220.334 OFFCURVE",
"444.464 224.02 OFFCURVE",
"442.15 236.648 CURVE SMOOTH",
"434.266 306.532 OFFCURVE",
"414.696 423.242 OFFCURVE",
"388.382 551.986 CURVE SMOOTH",
"322.532 887.734 LINE SMOOTH",
"305.788 969.14 OFFCURVE",
"274.416 1014.232 OFFCURVE",
"180.976 1014.232 CURVE SMOOTH",
"128.628 1014.232 OFFCURVE",
"72.28 1001.802 OFFCURVE",
"14.048 978.744 CURVE"
);
}
);
width = 1503.16;
}
);
leftKerningGroup = w;
rightKerningGroup = w;
unicode = 0077;
},
{
glyphname = x;
lastChange = "2020-04-09 11:32:39 +0000";
layers = (
{
anchors = (
{
name = top;
position = "{438, 1084}";
}
);
layerId = "FA2AC253-0460-4F3F-AE23-6289F77EFFDF";
paths = (
{
closed = 1;
nodes = (
"681.47 27.22 LINE",
"699.11 1.82 OFFCURVE",
"716.66 -13.94 OFFCURVE",
"749.94 -13.94 CURVE SMOOTH",
"781.31 -13.94 OFFCURVE",
"820.65 3.91 OFFCURVE",
"846.08 19.49 CURVE",
"237.45 954.54 LINE SMOOTH",
"219.84 979.91 OFFCURVE",
"202.17 995.64 OFFCURVE",
"168.89 995.64 CURVE SMOOTH",
"137.43 995.64 OFFCURVE",
"98.06 977.67 OFFCURVE",
"74.78 962.21 CURVE"
);
},
{
closed = 1;
nodes = (
"433.85 596.98 LINE",
"384.33 541.22 LINE",
"46.69 15.76 LINE",
"52.63 3.88 LINE",
"66.09 -3.97 OFFCURVE",
"91.58 -9.97 OFFCURVE",
"117.01 -9.97 CURVE SMOOTH",
"136.59 -9.97 OFFCURVE",
"170.44 -5.94 OFFCURVE",
"180.08 -2.03 CURVE",
"461.01 447.11 LINE",
"504.53 494.72 LINE",
"801.9 963.94 LINE",
"795.93 975.79 LINE",
"784.5 981.67 OFFCURVE",
"758.89 987.64 OFFCURVE",
"729.34 987.64 CURVE SMOOTH",
"709.73 987.64 OFFCURVE",
"679.97 983.64 OFFCURVE",
"670.36 979.7 CURVE"
);
}
);
width = 892.89;
},
{
anchors = (
{
name = top;
position = "{476, 1084}";
}
);
layerId = "E5C657BD-868A-4531-8053-230689A73369";
paths = (
{
closed = 1;
nodes = (
"597.386 71.836 LINE",
"635.618 12.116 OFFCURVE",
"678.908 -17.372 OFFCURVE",
"753.372 -17.372 CURVE SMOOTH",
"820.778 -17.372 OFFCURVE",
"897.87 9.058 OFFCURVE",
"955.904 48.662 CURVE",
"383.31 923.652 LINE SMOOTH",
"343.392 985.058 OFFCURVE",
"306.846 1016.232 OFFCURVE",
"232.382 1016.232 CURVE SMOOTH",
"170.034 1016.232 OFFCURVE",
"94.628 996.546 OFFCURVE",
"30.164 950.198 CURVE"
);
},
{
closed = 1;
nodes = (
"442.43 655.324 LINE",
"365.454 585.836 LINE",
"7.222 29.488 LINE",
"16.594 10.744 LINE",
"60.942 -5.686 OFFCURVE",
"115.604 -11.686 OFFCURVE",
"173.638 -11.686 CURVE SMOOTH",
"217.242 -11.686 OFFCURVE",
"259.672 -9.372 OFFCURVE",
"289.904 -0.314 CURVE",
"517.638 383.618 LINE",
"588.614 453.536 LINE",
"922.02 967.372 LINE",
"914.334 987.802 LINE",
"870.3 1000.546 OFFCURVE",
"822.382 1008.232 OFFCURVE",
"767.092 1008.232 CURVE SMOOTH",
"725.174 1008.232 OFFCURVE",
"681.686 1004.232 OFFCURVE",
"649.768 996.86 CURVE"
);
}
);
width = 956.382;
}
);
unicode = 0078;
},
{
glyphname = y;
lastChange = "2020-04-09 11:32:39 +0000";
layers = (
{
anchors = (
{
name = bottom;
position = "{683, -132}";
},
{
name = top;
position = "{447, 1084}";
}
);
layerId = "FA2AC253-0460-4F3F-AE23-6289F77EFFDF";
paths = (
{
closed = 1;
nodes = (
"864.08 972.09 LINE",
"860.2 977.85 LINE",
"842.83 983.64 OFFCURVE",
"819.37 987.64 OFFCURVE",
"793.82 987.64 CURVE SMOOTH",
"772.09 987.64 OFFCURVE",
"748.51 985.67 OFFCURVE",
"728.75 981.76 CURVE",
"479.55 89.9 LINE",
"469.55 89.9 OFFCURVE",
"463.52 91.9 OFFCURVE",
"459.49 103.9 CURVE SMOOTH",
"435.25 186.17 OFFCURVE",
"398.95 310.08 OFFCURVE",
"364.68 418.74 CURVE SMOOTH",
"201.57 928.75 LINE SMOOTH",
"185.72 979.91 OFFCURVE",
"160.11 993.64 OFFCURVE",
"128.83 993.64 CURVE SMOOTH",
"107.31 993.64 OFFCURVE",
"84.18 985.73 OFFCURVE",
"48.63 969.94 CURVE",
"331.44 87.61 LINE SMOOTH",
"355.41 15.97 OFFCURVE",
"384.69 -3.85 OFFCURVE",
"450 -7.91 CURVE",
"444.03 -27.76 LINE SMOOTH",
"387.61 -213.11 OFFCURVE",
"331.76 -332.04 OFFCURVE",
"174.86 -332.04 CURVE SMOOTH",
"131.22 -332.04 OFFCURVE",
"73.43 -322.16 OFFCURVE",
"47.7 -312.22 CURVE",
"30.09 -333.8 OFFCURVE",
"14.3 -376.81 OFFCURVE",
"16.21 -410.21 CURVE SMOOTH",
"49.88 -422.09 OFFCURVE",
"121.28 -435.97 OFFCURVE",
"172.83 -435.97 CURVE SMOOTH",
"407.6 -435.97 OFFCURVE",
"491.21 -290.72 OFFCURVE",
"587.6 34.12 CURVE SMOOTH"
);
}
);
width = 896.44;
},
{
anchors = (
{
name = bottom;
position = "{860, -34}";
},
{
name = top;
position = "{490, 1084}";
}
);
layerId = "E5C657BD-868A-4531-8053-230689A73369";
paths = (
{
closed = 1;
nodes = (
"973.904 966.942 LINE",
"963.16 986.43 LINE",
"909.754 1004.232 OFFCURVE",
"855.406 1008.232 OFFCURVE",
"804.116 1008.232 CURVE SMOOTH",
"766.942 1008.232 OFFCURVE",
"719.338 1004.546 OFFCURVE",
"685.85 995.488 CURVE",
"505.29 210.02 LINE",
"495.29 210.02 OFFCURVE",
"490.976 212.02 OFFCURVE",
"488.662 224.02 CURVE SMOOTH",
"478.15 290.846 OFFCURVE",
"459.01 419.904 OFFCURVE",
"440.184 490.812 CURVE SMOOTH",
"340.566 885.85 LINE SMOOTH",
"316.136 985.058 OFFCURVE",
"268.218 1014.232 OFFCURVE",
"195.754 1014.232 CURVE SMOOTH",
"146.778 1014.232 OFFCURVE",
"73.884 1001.174 OFFCURVE",
"12.594 973.372 CURVE",
"249.072 109.918 LINE SMOOTH",
"274.758 17.686 OFFCURVE",
"345.222 -12.43 OFFCURVE",
"450 -13.058 CURVE",
"442.314 -41.488 LINE SMOOTH",
"409.918 -149.618 OFFCURVE",
"345.488 -215.352 OFFCURVE",
"240.068 -215.352 CURVE SMOOTH",
"175.836 -215.352 OFFCURVE",
"106.034 -198.608 OFFCURVE",
"64.86 -185.236 CURVE",
"24.942 -230.84 OFFCURVE",
"-2.86 -330.478 OFFCURVE",
"4.198 -398.198 CURVE SMOOTH",
"56.744 -416.942 OFFCURVE",
"162.464 -437.686 OFFCURVE",
"239.754 -437.686 CURVE SMOOTH",
"544.88 -437.686 OFFCURVE",
"650.798 -249.536 OFFCURVE",
"724.88 27.256 CURVE SMOOTH"
);
}
);
width = 985.672;
}
);
leftKerningGroup = y;
rightKerningGroup = y;
unicode = 0079;
},
{
glyphname = z;
lastChange = "2020-04-09 11:32:39 +0000";
layers = (
{
anchors = (
{
name = bottom;
position = "{448, 0}";
},
{
name = top;
position = "{448, 1084}";
}
);
layerId = "FA2AC253-0460-4F3F-AE23-6289F77EFFDF";
paths = (
{
closed = 1;
nodes = (
"108.24 146.05 LINE SMOOTH",
"90.48 120.32 OFFCURVE",
"84.57 102.65 OFFCURVE",
"84.57 86.95 CURVE SMOOTH",
"84.57 65.19 OFFCURVE",
"90.51 49.61 OFFCURVE",
"108.39 0 CURVE",
"700.21 0 LINE SMOOTH",
"781.52 0 OFFCURVE",
"805.22 25.52 OFFCURVE",
"805.22 70.92 CURVE SMOOTH",
"805.22 92.59 OFFCURVE",
"801.31 118.47 OFFCURVE",
"793.55 137.93 CURVE",
"747.7 120.08 OFFCURVE",
"669.58 114.08 OFFCURVE",
"558.77 114.08 CURVE SMOOTH",
"446.08 114.08 LINE SMOOTH",
"398.11 114.08 OFFCURVE",
"313.57 112.11 OFFCURVE",
"243.36 108.17 CURVE",
"237.36 114.11 LINE",
"283.27 174.23 OFFCURVE",
"349.45 254.41 OFFCURVE",
"395.48 318.5 CURVE SMOOTH",
"773.61 835.62 LINE SMOOTH",
"789.535 857.545 OFFCURVE",
"797.52 875.23 OFFCURVE",
"797.52 891.02 CURVE SMOOTH",
"797.52 910.63 OFFCURVE",
"791.67 932.15 OFFCURVE",
"773.79 979.7 CURVE",
"124.57 979.7 LINE",
"118.63 956 OFFCURVE",
"116.72 926.27 OFFCURVE",
"116.72 914.84 CURVE SMOOTH",
"116.72 905.17 OFFCURVE",
"116.66 883.38 OFFCURVE",
"120.6 867.62 CURVE",
"368.1 867.62 LINE SMOOTH",
"456.34 867.62 OFFCURVE",
"599 871.56 OFFCURVE",
"644.55 877.53 CURVE",
"650.55 871.59 LINE",
"598.43 805.32 OFFCURVE",
"538.58 735.41 OFFCURVE",
"494.64 675.47 CURVE SMOOTH"
);
}
);
width = 887.82;
},
{
anchors = (
{
name = bottom;
position = "{450, 0}";
},
{
name = top;
position = "{450, 1084}";
}
);
layerId = "E5C657BD-868A-4531-8053-230689A73369";
paths = (
{
closed = 1;
nodes = (
"94.512 257.59 LINE SMOOTH",
"63.024 216.416 OFFCURVE",
"51.966 179.87 OFFCURVE",
"51.966 147.01 CURVE SMOOTH",
"51.966 111.522 OFFCURVE",
"61.338 71.918 OFFCURVE",
"86.082 0 CURVE",
"688.198 0 LINE SMOOTH",
"808.976 0 OFFCURVE",
"849.836 52.976 OFFCURVE",
"849.836 132.696 CURVE SMOOTH",
"849.836 173.242 OFFCURVE",
"840.778 205.986 OFFCURVE",
"819.29 256.334 CURVE",
"764.86 229.904 OFFCURVE",
"693.604 223.904 OFFCURVE",
"629.126 223.904 CURVE SMOOTH",
"555.904 223.904 LINE SMOOTH",
"506.218 223.904 OFFCURVE",
"452.566 220.218 OFFCURVE",
"394.368 212.846 CURVE",
"388.368 222.218 LINE",
"439.426 275.474 OFFCURVE",
"495.31 345.358 OFFCURVE",
"539.624 404.3 CURVE SMOOTH",
"795.918 742.956 LINE SMOOTH",
"816.133 769.171 OFFCURVE",
"824.976 804.874 OFFCURVE",
"824.976 832.676 CURVE SMOOTH",
"824.976 874.594 OFFCURVE",
"810.546 923.57 OFFCURVE",
"785.802 996.86 CURVE",
"91.966 996.86 LINE",
"82.594 956 OFFCURVE",
"75.536 910.826 OFFCURVE",
"75.536 866.792 CURVE SMOOTH",
"75.536 838.246 OFFCURVE",
"78.908 804.444 OFFCURVE",
"86.28 774.956 CURVE",
"247.98 774.956 LINE SMOOTH",
"322.492 774.956 OFFCURVE",
"427.4 782.328 OFFCURVE",
"498.69 790.014 CURVE",
"504.69 780.642 LINE",
"459.434 729.816 OFFCURVE",
"391.004 654.758 OFFCURVE",
"343.632 591.386 CURVE SMOOTH"
);
}
);
width = 898.116;
}
);
leftKerningGroup = z;
rightKerningGroup = z;
unicode = 007A;
},
{
glyphname = quotesingle;
lastChange = "2020-04-09 11:32:38 +0000";
layers = (
{
layerId = "FA2AC253-0460-4F3F-AE23-6289F77EFFDF";
paths = (
{
closed = 1;
nodes = (
"95.18 1359.46 OFFCURVE",
"116.925 1182.09 OFFCURVE",
"146.835 986.09 CURVE",
"166.61 976.27 OFFCURVE",
"203.89 976.27 OFFCURVE",
"220.62 986.09 CURVE",
"250.53 1180.06 OFFCURVE",
"271.26 1359.46 OFFCURVE",
"271.26 1387.22 CURVE SMOOTH",
"271.26 1412.95 OFFCURVE",
"268.305 1438.71 OFFCURVE",
"261.32 1466.56 CURVE",
"246.71 1476.35 OFFCURVE",
"213.89 1486.32 OFFCURVE",
"183.22 1486.32 CURVE SMOOTH",
"148.49 1486.32 OFFCURVE",
"122.775 1476.35 OFFCURVE",
"105.12 1466.56 CURVE",
"98.135 1438.71 OFFCURVE",
"95.18 1412.95 OFFCURVE",
"95.18 1387.22 CURVE SMOOTH"
);
}
);
width = 380.35;
},
{
layerId = "E5C657BD-868A-4531-8053-230689A73369";
paths = (
{
closed = 1;
nodes = (
"84.884 1390.348 OFFCURVE",
"121.215 1176.942 OFFCURVE",
"156.273 980.942 CURVE",
"188.918 960.826 OFFCURVE",
"267.382 960.826 OFFCURVE",
"299.556 980.942 CURVE",
"334.614 1176.628 OFFCURVE",
"370.788 1390.348 OFFCURVE",
"370.788 1431.836 CURVE SMOOTH",
"370.788 1473.01 OFFCURVE",
"365.259 1512.498 OFFCURVE",
"357.416 1548.928 CURVE",
"320.498 1570.73 OFFCURVE",
"277.382 1582.416 OFFCURVE",
"227.836 1582.416 CURVE SMOOTH",
"177.662 1582.416 OFFCURVE",
"135.645 1570.73 OFFCURVE",
"98.256 1548.928 CURVE",
"90.413 1512.498 OFFCURVE",
"84.884 1473.01 OFFCURVE",
"84.884 1431.836 CURVE SMOOTH"
);
}
);
width = 474.73;
}
);
unicode = 0027;
},
{
glyphname = numbersign;
lastChange = "2020-04-09 11:32:38 +0000";
layers = (
{
layerId = "FA2AC253-0460-4F3F-AE23-6289F77EFFDF";
paths = (
{
closed = 1;
nodes = (
"484.12 1261.34 LINE",
"500.85 1266.175 OFFCURVE",
"525.4 1269.1 OFFCURVE",
"548.95 1269.1 CURVE SMOOTH",
"573.5 1269.1 OFFCURVE",
"597.065 1266.175 OFFCURVE",
"613.84 1261.34 CURVE",
"338.02 28.06 LINE",
"323.32 21.195 OFFCURVE",
"298.77 18.27 OFFCURVE",
"273.19 18.27 CURVE SMOOTH",
"248.625 18.27 OFFCURVE",
"223.045 21.195 OFFCURVE",
"208.3 28.06 CURVE"
);
},
{
closed = 1;
nodes = (
"874.2 1261.34 LINE",
"890.93 1266.175 OFFCURVE",
"915.48 1269.1 OFFCURVE",
"939.03 1269.1 CURVE SMOOTH",
"963.58 1269.1 OFFCURVE",
"987.145 1266.175 OFFCURVE",
"1003.92 1261.34 CURVE",
"728.1 28.06 LINE",
"713.4 21.195 OFFCURVE",
"688.85 18.27 OFFCURVE",
"663.27 18.27 CURVE SMOOTH",
"638.705 18.27 OFFCURVE",
"613.125 21.195 OFFCURVE",
"598.38 28.06 CURVE"
);
},
{
closed = 1;
nodes = (
"62.12 339.2 LINE",
"56.225 354.885 OFFCURVE",
"53.27 377.54 OFFCURVE",
"53.27 400.21 CURVE SMOOTH",
"53.27 422.865 OFFCURVE",
"56.225 445.535 OFFCURVE",
"62.12 461.22 CURVE",
"1048.25 461.22 LINE",
"1054.145 445.535 OFFCURVE",
"1057.085 422.865 OFFCURVE",
"1057.085 400.21 CURVE SMOOTH",
"1057.085 377.54 OFFCURVE",
"1054.145 354.885 OFFCURVE",
"1048.25 339.2 CURVE"
);
},
{
closed = 1;
nodes = (
"149.82 828.18 LINE",
"143.925 843.865 OFFCURVE",
"140.97 866.52 OFFCURVE",
"140.97 889.19 CURVE SMOOTH",
"140.97 911.845 OFFCURVE",
"143.925 934.515 OFFCURVE",
"149.82 950.2 CURVE",
"1135.95 950.2 LINE",
"1141.845 934.515 OFFCURVE",
"1144.785 911.845 OFFCURVE",
"1144.785 889.19 CURVE SMOOTH",
"1144.785 866.52 OFFCURVE",
"1141.845 843.865 OFFCURVE",
"1135.95 828.18 CURVE"
);
}
);
width = 1194.13;
},
{
layerId = "E5C657BD-868A-4531-8053-230689A73369";
paths = (
{
closed = 1;
nodes = (
"477.256 1299.092 LINE",
"509.43 1313.365 OFFCURVE",
"559.72 1320.58 OFFCURVE",
"609.01 1320.58 CURVE SMOOTH",
"659.3 1320.58 OFFCURVE",
"707.747 1313.365 OFFCURVE",
"737.392 1299.092 CURVE",
"451.276 24.628 LINE",
"419.416 10.041 OFFCURVE",
"369.126 2.826 OFFCURVE",
"319.522 2.826 CURVE SMOOTH",
"270.075 2.826 OFFCURVE",
"220.471 10.041 OFFCURVE",
"191.14 24.628 CURVE"
);
},
{
closed = 1;
nodes = (
"977.16 1299.092 LINE",
"1009.334 1313.365 OFFCURVE",
"1059.624 1320.58 OFFCURVE",
"1108.914 1320.58 CURVE SMOOTH",
"1159.204 1320.58 OFFCURVE",
"1207.651 1313.365 OFFCURVE",
"1237.296 1299.092 CURVE",
"951.18 24.628 LINE",
"919.32 10.041 OFFCURVE",
"869.03 2.826 OFFCURVE",
"819.426 2.826 CURVE SMOOTH",
"769.979 2.826 OFFCURVE",
"720.375 10.041 OFFCURVE",
"691.044 24.628 CURVE"
);
},
{
closed = 1;
nodes = (
"55.256 270.56 LINE",
"43.355 304.263 OFFCURVE",
"37.826 346.652 OFFCURVE",
"37.826 388.198 CURVE SMOOTH",
"37.826 430.587 OFFCURVE",
"43.355 472.133 OFFCURVE",
"55.256 505.836 CURVE",
"1262.75 505.836 LINE",
"1274.651 472.133 OFFCURVE",
"1281.023 430.587 OFFCURVE",
"1281.023 388.198 CURVE SMOOTH",
"1281.023 346.652 OFFCURVE",
"1274.651 304.263 OFFCURVE",
"1262.75 270.56 CURVE"
);
},
{
closed = 1;
nodes = (
"160.116 817.884 LINE",
"148.215 851.587 OFFCURVE",
"142.686 893.976 OFFCURVE",
"142.686 935.522 CURVE SMOOTH",
"142.686 977.911 OFFCURVE",
"148.215 1019.457 OFFCURVE",
"160.116 1053.16 CURVE",
"1367.61 1053.16 LINE",
"1379.511 1019.457 OFFCURVE",
"1385.883 977.911 OFFCURVE",
"1385.883 935.522 CURVE SMOOTH",
"1385.883 893.976 OFFCURVE",
"1379.511 851.587 OFFCURVE",
"1367.61 817.884 CURVE"
);
}
);
width = 1415.494;
}
);
unicode = 0023;
},
{
glyphname = ampersand;
lastChange = "2020-04-09 11:32:38 +0000";
layers = (
{
layerId = "FA2AC253-0460-4F3F-AE23-6289F77EFFDF";
paths = (
{
closed = 1;
nodes = (
"598.95 789.04 LINE SMOOTH",
"403.99 789.04 OFFCURVE",
"319.66 893.94 OFFCURVE",
"319.66 1032.45 CURVE SMOOTH",
"319.66 1171.35 OFFCURVE",
"414.32 1269.92 OFFCURVE",
"573.1 1269.92 CURVE SMOOTH",
"687.34 1269.92 OFFCURVE",
"779.22 1245.95 OFFCURVE",
"867.19 1220.01 CURVE SMOOTH",
"892.74 1247.53 OFFCURVE",
"906.47 1296.75 OFFCURVE",
"906.53 1336.12 CURVE",
"827.01 1366 OFFCURVE",
"699.49 1389.91 OFFCURVE",
"578.06 1389.91 CURVE SMOOTH",
"314.09 1389.91 OFFCURVE",
"170.51 1225.64 OFFCURVE",
"170.51 1038.12 CURVE SMOOTH",
"170.51 866.21 OFFCURVE",
"306.72 724.12 OFFCURVE",
"460.54 718.09 CURVE",
"460.54 746.03 LINE",
"290.54 741.97 OFFCURVE",
"114.57 575.76 OFFCURVE",
"114.57 360.03 CURVE SMOOTH",
"114.57 135.79 OFFCURVE",
"244.48 -23.91 OFFCURVE",
"492.36 -23.91 CURVE SMOOTH",
"606.21 -23.91 OFFCURVE",
"724.3 16 OFFCURVE",
"818.6 77.91 CURVE",
"830.45 0.06 LINE",
"848.18 -3.85 OFFCURVE",
"869.64 -5.79 OFFCURVE",
"897.25 -5.79 CURVE SMOOTH",
"924.8 -5.79 OFFCURVE",
"946.32 -3.85 OFFCURVE",
"964.02 0 CURVE",
"956.02 86.865 OFFCURVE",
"952.05 196.445 OFFCURVE",
"952.05 291.55 CURVE SMOOTH",
"952.05 541.26 LINE SMOOTH",
"952.05 586.87 OFFCURVE",
"950.05 676.6 OFFCURVE",
"948.14 727.94 CURVE",
"818.69 727.94 LINE",
"816.78 676.6 OFFCURVE",
"814.78 588.9 OFFCURVE",
"814.78 539.23 CURVE SMOOTH",
"814.78 200.59 LINE",
"748.39 144.26 OFFCURVE",
"631.64 96.14 OFFCURVE",
"513.25 96.14 CURVE SMOOTH",
"356.08 96.14 OFFCURVE",
"263.72 198.95 OFFCURVE",
"263.72 359.55 CURVE SMOOTH",
"263.72 491.58 OFFCURVE",
"343.69 667.32 OFFCURVE",
"581.04 667.32 CURVE SMOOTH",
"1024.53 667.32 LINE SMOOTH",
"1091.69 667.32 OFFCURVE",
"1149.51 678.69 OFFCURVE",
"1149.51 746.06 CURVE SMOOTH",
"1149.51 767.49 OFFCURVE",
"1143.66 797.04 OFFCURVE",
"1129.84 814.83 CURVE",
"1092.17 796.95 OFFCURVE",
"1022.29 789.04 OFFCURVE",
"954.44 789.04 CURVE SMOOTH"
);
}
);
width = 1200.2;
},
{
layerId = "E5C657BD-868A-4531-8053-230689A73369";
paths = (
{
closed = 1;
nodes = (
"659.01 843.952 LINE SMOOTH",
"518.962 843.952 OFFCURVE",
"453.508 897.372 OFFCURVE",
"453.508 1006.71 CURVE SMOOTH",
"453.508 1094.13 OFFCURVE",
"510.416 1160.096 OFFCURVE",
"624.58 1160.096 CURVE SMOOTH",
"725.092 1160.096 OFFCURVE",
"823.836 1134.41 OFFCURVE",
"913.522 1105.038 CURVE SMOOTH",
"964.812 1160.014 OFFCURVE",
"993.986 1253.85 OFFCURVE",
"990.614 1329.256 CURVE",
"883.638 1366 OFFCURVE",
"728.662 1395.058 OFFCURVE",
"574.628 1395.058 CURVE SMOOTH",
"308.942 1395.058 OFFCURVE",
"141.338 1246.232 OFFCURVE",
"141.338 1031.256 CURVE SMOOTH",
"141.338 854.198 OFFCURVE",
"265.536 717.256 OFFCURVE",
"429.652 712.942 CURVE",
"429.652 744.314 LINE",
"259.652 743.686 OFFCURVE",
"81.966 589.488 OFFCURVE",
"81.966 358.314 CURVE SMOOTH",
"81.966 147.802 OFFCURVE",
"217.024 -29.058 OFFCURVE",
"471.768 -29.058 CURVE SMOOTH",
"594.198 -29.058 OFFCURVE",
"707.14 16 OFFCURVE",
"784.28 83.058 CURVE",
"804.71 -3.372 LINE",
"837.884 -12.43 OFFCURVE",
"890.232 -17.802 OFFCURVE",
"940.15 -17.802 CURVE SMOOTH",
"993.44 -17.802 OFFCURVE",
"1042.416 -12.43 OFFCURVE",
"1077.276 0 CURVE",
"1069.276 94.587 OFFCURVE",
"1063.59 228.191 OFFCURVE",
"1063.59 317.29 CURVE SMOOTH",
"1063.59 469.188 LINE SMOOTH",
"1063.59 537.106 OFFCURVE",
"1061.59 642.28 OFFCURVE",
"1054.532 731.372 CURVE",
"779.222 731.372 LINE",
"772.164 642.28 OFFCURVE",
"770.164 537.42 OFFCURVE",
"770.164 468.874 CURVE SMOOTH",
"770.164 281.242 LINE",
"726.082 243.788 OFFCURVE",
"652.232 202.532 OFFCURVE",
"556.15 202.532 CURVE SMOOTH",
"465.904 202.532 OFFCURVE",
"394.136 259.01 OFFCURVE",
"394.136 385.29 CURVE SMOOTH",
"394.136 515.604 OFFCURVE",
"475.822 591.816 OFFCURVE",
"635.952 591.816 CURVE SMOOTH",
"1108.614 591.816 LINE SMOOTH",
"1223.822 591.816 OFFCURVE",
"1291.938 639.222 OFFCURVE",
"1291.938 742.628 CURVE SMOOTH",
"1291.938 796.662 OFFCURVE",
"1277.508 851.952 OFFCURVE",
"1253.392 881.754 CURVE",
"1196.846 857.01 OFFCURVE",
"1120.102 843.952 OFFCURVE",
"1043.672 843.952 CURVE SMOOTH"
);
}
);
width = 1303.16;
}
);
unicode = 0026;
},
{
glyphname = asterisk;
lastChange = "2020-04-09 11:32:38 +0000";
layers = (
{
layerId = "FA2AC253-0460-4F3F-AE23-6289F77EFFDF";
paths = (
{
closed = 1;
nodes = (
"424.36 1362.51 LINE SMOOTH",
"422.24 1270.48 OFFCURVE",
"443.97 1168.42 OFFCURVE",
"459.79 1092.66 CURVE",
"471.79 1076.63 OFFCURVE",
"483.7 1070.66 OFFCURVE",
"493.58 1070.66 CURVE SMOOTH",
"503.46 1070.66 OFFCURVE",
"515.37 1078.66 OFFCURVE",
"527.37 1092.66 CURVE",
"541.16 1168.42 OFFCURVE",
"564.92 1270.48 OFFCURVE",
"562.8 1362.51 CURVE SMOOTH",
"560.65 1462.03 LINE",
"525.01 1477.91 OFFCURVE",
"460.15 1477.91 OFFCURVE",
"426.51 1462.03 CURVE"
);
},
{
closed = 1;
nodes = (
"193.94 1095.35 LINE SMOOTH",
"281.97 1063.2 OFFCURVE",
"385.94 1054.99 OFFCURVE",
"461.64 1046.87 CURVE",
"481.67 1050.84 OFFCURVE",
"489.61 1060.78 OFFCURVE",
"493.58 1070.66 CURVE SMOOTH",
"497.55 1080.54 OFFCURVE",
"493.52 1094.48 OFFCURVE",
"483.52 1110.48 CURVE",
"415.67 1144.15 OFFCURVE",
"325.55 1199.94 OFFCURVE",
"237.49 1227.88 CURVE SMOOTH",
"143.91 1255.58 LINE",
"116.12 1225.88 OFFCURVE",
"96.48 1164.96 OFFCURVE",
"100.45 1129.38 CURVE"
);
},
{
closed = 1;
nodes = (
"377.04 793.2 LINE SMOOTH",
"435.19 867.17 OFFCURVE",
"475.37 963.11 OFFCURVE",
"507.4 1034.81 CURVE",
"509.46 1052.81 OFFCURVE",
"501.46 1064.75 OFFCURVE",
"493.58 1070.66 CURVE SMOOTH",
"485.7 1076.57 OFFCURVE",
"471.76 1078.57 OFFCURVE",
"451.73 1072.54 CURVE",
"398.06 1020.6 OFFCURVE",
"318.24 950.39 OFFCURVE",
"264.27 874.3 CURVE SMOOTH",
"208.69 794.63 LINE",
"230.51 758.93 OFFCURVE",
"281.58 723.62 OFFCURVE",
"317.19 715.71 CURVE"
);
},
{
closed = 1;
nodes = (
"722.92 874.33 LINE SMOOTH",
"671.01 950.42 OFFCURVE",
"591.1 1020.6 OFFCURVE",
"533.4 1072.54 CURVE",
"515.4 1080.6 OFFCURVE",
"501.46 1076.57 OFFCURVE",
"493.58 1070.66 CURVE SMOOTH",
"485.7 1064.75 OFFCURVE",
"479.73 1052.81 OFFCURVE",
"479.76 1032.78 CURVE",
"513.82 963.08 OFFCURVE",
"552 867.2 OFFCURVE",
"610.15 793.23 CURVE SMOOTH",
"667.94 715.74 LINE",
"709.61 723.62 OFFCURVE",
"758.68 760.93 OFFCURVE",
"776.47 792.6 CURVE"
);
},
{
closed = 1;
nodes = (
"749.67 1227.94 LINE SMOOTH",
"661.61 1202.06 OFFCURVE",
"571.49 1148.18 OFFCURVE",
"503.64 1108.45 CURVE",
"491.58 1094.48 OFFCURVE",
"489.61 1080.54 OFFCURVE",
"493.58 1070.66 CURVE SMOOTH",
"497.55 1060.78 OFFCURVE",
"505.46 1052.87 OFFCURVE",
"527.55 1046.87 CURVE",
"601.25 1057.02 OFFCURVE",
"705.19 1065.26 OFFCURVE",
"793.22 1095.38 CURVE SMOOTH",
"886.68 1127.35 LINE",
"890.68 1168.99 OFFCURVE",
"869.04 1229.94 OFFCURVE",
"845.28 1253.58 CURVE"
);
}
);
width = 987.13;
},
{
layerId = "E5C657BD-868A-4531-8053-230689A73369";
paths = (
{
closed = 1;
nodes = (
"403.768 1333.338 LINE SMOOTH",
"408.512 1243.024 OFFCURVE",
"445.686 1144.396 OFFCURVE",
"471.802 1054.908 CURVE",
"483.802 1040.594 OFFCURVE",
"500.86 1032.908 OFFCURVE",
"517.604 1032.908 CURVE SMOOTH",
"534.348 1032.908 OFFCURVE",
"551.406 1040.908 OFFCURVE",
"563.406 1054.908 CURVE",
"589.208 1144.396 OFFCURVE",
"626.696 1243.024 OFFCURVE",
"631.44 1333.338 CURVE SMOOTH",
"637.87 1460.314 LINE",
"581.638 1483.058 OFFCURVE",
"451.57 1483.058 OFFCURVE",
"397.338 1460.314 CURVE"
);
},
{
closed = 1;
nodes = (
"197.372 1018.13 LINE SMOOTH",
"283.686 994.56 OFFCURVE",
"389.372 998.362 OFFCURVE",
"482.232 997.106 CURVE",
"500.546 1002.792 OFFCURVE",
"511.918 1016.164 OFFCURVE",
"517.604 1032.908 CURVE SMOOTH",
"523.29 1049.652 OFFCURVE",
"520.976 1067.024 OFFCURVE",
"510.976 1083.024 CURVE",
"434.546 1135.57 OFFCURVE",
"351.29 1203.372 OFFCURVE",
"266.662 1234.744 CURVE SMOOTH",
"149.058 1279.604 LINE",
"109.256 1232.744 OFFCURVE",
"69.024 1110.048 OFFCURVE",
"74.71 1050.444 CURVE"
);
},
{
closed = 1;
nodes = (
"431.952 724.56 LINE SMOOTH",
"481.522 800.246 OFFCURVE",
"511.406 899.618 OFFCURVE",
"541.72 988.478 CURVE",
"540.348 1006.478 OFFCURVE",
"532.348 1021.85 OFFCURVE",
"517.604 1032.908 CURVE SMOOTH",
"502.86 1043.966 OFFCURVE",
"485.488 1045.966 OFFCURVE",
"467.174 1041.652 CURVE",
"394.628 986.28 OFFCURVE",
"304.512 928.082 OFFCURVE",
"248.826 857.14 CURVE SMOOTH",
"169.222 758.594 LINE",
"201.338 705.734 OFFCURVE",
"305.604 630.956 OFFCURVE",
"363.522 617.898 CURVE"
);
},
{
closed = 1;
nodes = (
"784.696 855.454 LINE SMOOTH",
"727.638 926.396 OFFCURVE",
"642.58 986.28 OFFCURVE",
"567.72 1041.652 CURVE",
"549.72 1046.28 OFFCURVE",
"532.348 1043.966 OFFCURVE",
"517.604 1032.908 CURVE SMOOTH",
"502.86 1021.85 OFFCURVE",
"495.174 1006.478 OFFCURVE",
"493.488 988.164 CURVE",
"524.116 901.304 OFFCURVE",
"552 798.56 OFFCURVE",
"601.57 722.874 CURVE SMOOTH",
"671.372 616.212 LINE",
"731.918 630.956 OFFCURVE",
"834.184 707.734 OFFCURVE",
"863.986 758.28 CURVE"
);
},
{
closed = 1;
nodes = (
"768.546 1231.372 LINE SMOOTH",
"683.918 1198.628 OFFCURVE",
"600.662 1137.884 OFFCURVE",
"524.232 1082.71 CURVE",
"515.604 1067.024 OFFCURVE",
"511.918 1049.652 OFFCURVE",
"517.604 1032.908 CURVE SMOOTH",
"523.29 1016.164 OFFCURVE",
"536.348 1003.106 OFFCURVE",
"553.29 997.106 CURVE",
"644.15 998.676 OFFCURVE",
"751.522 993.188 OFFCURVE",
"837.836 1016.444 CURVE SMOOTH",
"962.184 1050.13 LINE",
"966.184 1112.362 OFFCURVE",
"923.952 1233.372 OFFCURVE",
"886.464 1277.604 CURVE"
);
}
);
width = 1036.894;
}
);
unicode = 002A;
},
{
glyphname = comma;
lastChange = "2020-04-09 11:32:38 +0000";
layers = (
{
layerId = "FA2AC253-0460-4F3F-AE23-6289F77EFFDF";
paths = (
{
closed = 1;
nodes = (
"340.8 188.59 OFFCURVE",
"291.07 196.47 OFFCURVE",
"259.4 196.47 CURVE SMOOTH",
"225.7 196.47 OFFCURVE",
"173.91 184.53 OFFCURVE",
"158.24 176.74 CURVE",
"148.3 162.92 OFFCURVE",
"142.36 119.16 OFFCURVE",
"142.36 89.31 CURVE SMOOTH",
"142.36 59.46 OFFCURVE",
"150.33 21.7 OFFCURVE",
"158.24 7.88 CURVE",
"174.18 -4.06 OFFCURVE",
"212.24 -14.06 OFFCURVE",
"234.06 -18.03 CURVE",
"234.3 -101.88 OFFCURVE",
"172.57 -175.88 OFFCURVE",
"82.63 -220.06 CURVE",
"80.69 -247.61 OFFCURVE",
"96.51 -283.19 OFFCURVE",
"122.06 -296.98 CURVE",
"293.01 -233.13 OFFCURVE",
"376.41 -92 OFFCURVE",
"376.41 61.43 CURVE SMOOTH",
"376.41 103.19 OFFCURVE",
"368.38 153.22 OFFCURVE",
"356.5 176.74 CURVE"
);
}
);
width = 502.59;
},
{
layerId = "E5C657BD-868A-4531-8053-230689A73369";
paths = (
{
closed = 1;
nodes = (
"409.44 269.242 OFFCURVE",
"344.266 283.986 OFFCURVE",
"293.72 283.986 CURVE SMOOTH",
"242.86 283.986 OFFCURVE",
"179.058 268.614 OFFCURVE",
"144.512 248.812 CURVE",
"131.14 224.696 OFFCURVE",
"121.768 167.208 OFFCURVE",
"121.768 128.778 CURVE SMOOTH",
"121.768 90.348 OFFCURVE",
"131.454 38.86 OFFCURVE",
"144.512 14.744 CURVE",
"163.884 -0.628 OFFCURVE",
"198.512 -10.628 OFFCURVE",
"230.628 -16.314 CURVE",
"217.14 -108.744 OFFCURVE",
"139.966 -182.744 OFFCURVE",
"46.594 -216.628 CURVE",
"41.222 -269.918 OFFCURVE",
"67.338 -329.522 OFFCURVE",
"118.628 -355.324 CURVE",
"349.638 -282.894 OFFCURVE",
"467.358 -92 OFFCURVE",
"467.358 94.034 CURVE SMOOTH",
"467.358 149.522 OFFCURVE",
"461.044 197.836 OFFCURVE",
"442.3 248.812 CURVE"
);
}
);
width = 583.242;
}
);
leftKerningGroup = comma;
rightKerningGroup = comma;
unicode = 002C;
},
{
glyphname = period;
lastChange = "2020-04-09 11:32:38 +0000";
layers = (
{
layerId = "FA2AC253-0460-4F3F-AE23-6289F77EFFDF";
paths = (
{
closed = 1;
nodes = (
"132.42 67.28 OFFCURVE",
"138.42 21.52 OFFCURVE",
"148.3 5.85 CURVE",
"165.94 -3.91 OFFCURVE",
"211.64 -13.88 OFFCURVE",
"247.37 -13.88 CURVE SMOOTH",
"279.04 -13.88 OFFCURVE",
"332.86 -3.91 OFFCURVE",
"346.44 5.85 CURVE",
"356.32 21.52 OFFCURVE",
"362.32 67.28 OFFCURVE",
"362.32 91.28 CURVE SMOOTH",
"362.32 115.28 OFFCURVE",
"356.32 161.04 OFFCURVE",
"346.44 176.71 CURVE",
"330.83 186.5 OFFCURVE",
"279.04 196.44 OFFCURVE",
"247.37 196.44 CURVE SMOOTH",
"211.64 196.44 OFFCURVE",
"165.94 186.5 OFFCURVE",
"148.3 176.71 CURVE",
"138.42 161.04 OFFCURVE",
"132.42 115.28 OFFCURVE",
"132.42 91.28 CURVE SMOOTH"
);
}
);
width = 494.74;
},
{
layerId = "E5C657BD-868A-4531-8053-230689A73369";
paths = (
{
closed = 1;
nodes = (
"108.396 108.464 OFFCURVE",
"114.396 48.976 OFFCURVE",
"131.14 14.43 CURVE",
"169.372 -9.058 OFFCURVE",
"232.232 -20.744 OFFCURVE",
"283.406 -20.744 CURVE SMOOTH",
"333.952 -20.744 OFFCURVE",
"398.068 -9.058 OFFCURVE",
"435.672 14.43 CURVE",
"452.416 48.976 OFFCURVE",
"458.416 108.464 OFFCURVE",
"458.416 132.464 CURVE SMOOTH",
"458.416 156.464 OFFCURVE",
"452.416 215.952 OFFCURVE",
"435.672 250.498 CURVE",
"397.754 272.3 OFFCURVE",
"333.952 285.672 OFFCURVE",
"283.406 285.672 CURVE SMOOTH",
"232.232 285.672 OFFCURVE",
"169.372 272.3 OFFCURVE",
"131.14 250.498 CURVE",
"114.396 215.952 OFFCURVE",
"108.396 156.464 OFFCURVE",
"108.396 132.464 CURVE SMOOTH"
);
}
);
width = 566.812;
}
);
leftKerningGroup = comma;
rightKerningGroup = comma;
unicode = 002E;
},
{
glyphname = question;
lastChange = "2020-04-09 11:32:38 +0000";
layers = (
{
layerId = "FA2AC253-0460-4F3F-AE23-6289F77EFFDF";
paths = (
{
closed = 1;
nodes = (
"38.51 1254.84 OFFCURVE",
"64.12 1207.68 OFFCURVE",
"85.52 1186.04 CURVE",
"171.79 1228.1 OFFCURVE",
"270.12 1262.13 OFFCURVE",
"366.36 1262.13 CURVE SMOOTH",
"502.87 1262.13 OFFCURVE",
"589.41 1177.62 OFFCURVE",
"589.41 1050.84 CURVE SMOOTH",
"589.41 916.12 OFFCURVE",
"485.065 819.535 OFFCURVE",
"322.21 732.95 CURVE SMOOTH",
"232.54 684.98 LINE",
"220.75 667.19 LINE",
"228.6 369.19 LINE",
"244.24 363.28 OFFCURVE",
"265.85 361.31 OFFCURVE",
"285.58 361.31 CURVE SMOOTH",
"303.25 361.31 OFFCURVE",
"320.89 363.28 OFFCURVE",
"336.56 369.19 CURVE",
"350.47 606.54 LINE",
"478.59 680.72 LINE SMOOTH",
"622.5 764.81 OFFCURVE",
"738.56 886.87 OFFCURVE",
"738.56 1062.48 CURVE SMOOTH",
"738.56 1264.33 OFFCURVE",
"594.53 1387.85 OFFCURVE",
"395.7 1387.85 CURVE SMOOTH",
"268.18 1387.85 OFFCURVE",
"140.42 1350.03 OFFCURVE",
"34.51 1296.24 CURVE"
);
},
{
closed = 1;
nodes = (
"249.88 180.53 OFFCURVE",
"214.21 172.59 OFFCURVE",
"194.51 160.74 CURVE",
"186.6 146.92 OFFCURVE",
"180.63 105.16 OFFCURVE",
"180.63 83.4 CURVE SMOOTH",
"180.63 61.64 OFFCURVE",
"186.6 19.85 OFFCURVE",
"194.51 6.03 CURVE",
"214.21 -5.82 OFFCURVE",
"249.88 -13.76 OFFCURVE",
"283.55 -13.76 CURVE SMOOTH",
"315.19 -13.76 OFFCURVE",
"354.92 -5.82 OFFCURVE",
"374.65 6.03 CURVE",
"382.53 19.85 OFFCURVE",
"388.5 61.64 OFFCURVE",
"388.5 83.4 CURVE SMOOTH",
"388.5 105.16 OFFCURVE",
"382.53 146.92 OFFCURVE",
"374.65 160.74 CURVE",
"354.92 172.59 OFFCURVE",
"315.19 180.53 OFFCURVE",
"283.55 180.53 CURVE SMOOTH"
);
}
);
width = 758.68;
},
{
layerId = "E5C657BD-868A-4531-8053-230689A73369";
paths = (
{
closed = 1;
nodes = (
"9.338 1206.792 OFFCURVE",
"57.256 1111.584 OFFCURVE",
"112.976 1069.352 CURVE",
"183.802 1107.98 OFFCURVE",
"263.256 1140.294 OFFCURVE",
"345.768 1140.294 CURVE SMOOTH",
"453.106 1140.294 OFFCURVE",
"508.758 1084.956 OFFCURVE",
"508.758 1002.792 CURVE SMOOTH",
"508.758 909.256 OFFCURVE",
"424.147 846.133 OFFCURVE",
"310.198 793.01 CURVE SMOOTH",
"201.652 743.324 LINE",
"177.85 713.522 LINE",
"194.28 415.522 LINE",
"230.512 404.464 OFFCURVE",
"274.43 400.778 OFFCURVE",
"309.604 400.778 CURVE SMOOTH",
"346.15 400.778 OFFCURVE",
"384.382 404.464 OFFCURVE",
"418.928 415.522 CURVE",
"437.986 575.652 LINE",
"559.242 639.536 LINE SMOOTH",
"708.3 718.478 OFFCURVE",
"820.928 837.106 OFFCURVE",
"820.928 1035.024 CURVE SMOOTH",
"820.928 1245.454 OFFCURVE",
"678.614 1396.43 OFFCURVE",
"412.86 1396.43 CURVE SMOOTH",
"257.884 1396.43 OFFCURVE",
"116.396 1348.314 OFFCURVE",
"5.338 1282.512 CURVE"
);
},
{
closed = 1;
nodes = (
"256.744 264.614 OFFCURVE",
"202.198 253.242 OFFCURVE",
"165.338 232.812 CURVE",
"152.28 208.696 OFFCURVE",
"144.594 153.208 OFFCURVE",
"144.594 117.72 CURVE SMOOTH",
"144.594 82.232 OFFCURVE",
"152.28 28.43 OFFCURVE",
"165.338 4.314 CURVE",
"202.198 -16.116 OFFCURVE",
"256.744 -27.488 OFFCURVE",
"309.29 -27.488 CURVE SMOOTH",
"361.522 -27.488 OFFCURVE",
"416.696 -16.116 OFFCURVE",
"451.87 4.314 CURVE",
"466.614 28.43 OFFCURVE",
"474.3 82.232 OFFCURVE",
"474.3 117.72 CURVE SMOOTH",
"474.3 153.208 OFFCURVE",
"466.614 208.696 OFFCURVE",
"451.87 232.812 CURVE",
"416.696 253.242 OFFCURVE",
"361.522 264.614 OFFCURVE",
"309.29 264.614 CURVE SMOOTH"
);
}
);
width = 834.184;
}
);
unicode = 003F;
},
{
glyphname = exclam;
lastChange = "2020-04-09 11:32:38 +0000";
layers = (
{
layerId = "FA2AC253-0460-4F3F-AE23-6289F77EFFDF";
paths = (
{
closed = 1;
nodes = (
"234.21 363.31 OFFCURVE",
"253.7 361.31 OFFCURVE",
"273.58 361.31 CURVE SMOOTH",
"293.4 361.31 OFFCURVE",
"313.01 363.31 OFFCURVE",
"328.59 369.22 CURVE",
"340.47 639.43 OFFCURVE",
"352.05 909.67 OFFCURVE",
"352.05 1179.88 CURVE SMOOTH",
"352.05 1364 LINE",
"312.8 1375.79 OFFCURVE",
"234.36 1375.79 OFFCURVE",
"195.11 1366.03 CURVE",
"195.11 1179.82 LINE SMOOTH",
"195.11 909.67 OFFCURVE",
"208.81 641.46 OFFCURVE",
"218.6 369.22 CURVE"
);
},
{
closed = 1;
nodes = (
"239.91 180.44 OFFCURVE",
"204.24 172.5 OFFCURVE",
"184.54 160.65 CURVE",
"176.63 146.83 OFFCURVE",
"170.66 105.07 OFFCURVE",
"170.66 83.31 CURVE SMOOTH",
"170.66 61.55 OFFCURVE",
"176.63 19.76 OFFCURVE",
"184.54 5.94 CURVE",
"204.24 -5.91 OFFCURVE",
"239.91 -13.85 OFFCURVE",
"273.58 -13.85 CURVE SMOOTH",
"305.22 -13.85 OFFCURVE",
"342.92 -5.91 OFFCURVE",
"362.65 5.94 CURVE",
"370.53 19.76 OFFCURVE",
"376.5 61.55 OFFCURVE",
"376.5 83.31 CURVE SMOOTH",
"376.5 105.07 OFFCURVE",
"370.53 146.83 OFFCURVE",
"362.65 160.65 CURVE",
"342.92 172.5 OFFCURVE",
"305.22 180.44 OFFCURVE",
"273.58 180.44 CURVE SMOOTH"
);
}
);
width = 548.92;
},
{
layerId = "E5C657BD-868A-4531-8053-230689A73369";
paths = (
{
closed = 1;
nodes = (
"222.198 402.778 OFFCURVE",
"270.86 400.778 OFFCURVE",
"297.604 400.778 CURVE SMOOTH",
"327.72 400.778 OFFCURVE",
"369.638 402.778 OFFCURVE",
"409.242 413.836 CURVE",
"427.986 672.034 OFFCURVE",
"463.59 928.546 OFFCURVE",
"463.59 1186.744 CURVE SMOOTH",
"463.59 1364 LINE",
"381.44 1387.802 OFFCURVE",
"213.768 1387.802 OFFCURVE",
"131.618 1364.314 CURVE",
"131.618 1190.116 LINE SMOOTH",
"131.618 928.546 OFFCURVE",
"162.478 672.348 OFFCURVE",
"184.28 413.836 CURVE"
);
},
{
closed = 1;
nodes = (
"245.058 269.672 OFFCURVE",
"190.512 258.3 OFFCURVE",
"153.652 237.87 CURVE",
"140.594 213.754 OFFCURVE",
"132.908 158.266 OFFCURVE",
"132.908 122.778 CURVE SMOOTH",
"132.908 87.29 OFFCURVE",
"140.594 33.488 OFFCURVE",
"153.652 9.372 CURVE",
"190.512 -11.058 OFFCURVE",
"245.058 -22.43 OFFCURVE",
"297.604 -22.43 CURVE SMOOTH",
"349.836 -22.43 OFFCURVE",
"404.696 -11.058 OFFCURVE",
"439.87 9.372 CURVE",
"454.614 33.488 OFFCURVE",
"462.3 87.29 OFFCURVE",
"462.3 122.778 CURVE SMOOTH",
"462.3 158.266 OFFCURVE",
"454.614 213.754 OFFCURVE",
"439.87 237.87 CURVE",
"404.696 258.3 OFFCURVE",
"349.836 269.672 OFFCURVE",
"297.604 269.672 CURVE SMOOTH"
);
}
);
width = 610.696;
}
);
unicode = 0021;
},
{
glyphname = at;
lastChange = "2020-04-09 11:32:38 +0000";
layers = (
{
layerId = "FA2AC253-0460-4F3F-AE23-6289F77EFFDF";
paths = (
{
closed = 1;
nodes = (
"1280.23 826.06 LINE",
"1198.14 900 OFFCURVE",
"1086.8 955.73 OFFCURVE",
"955.19 955.73 CURVE SMOOTH",
"701.58 955.73 OFFCURVE",
"561.79 719.34 OFFCURVE",
"561.79 451.97 CURVE SMOOTH",
"561.79 184 OFFCURVE",
"686 20.42 OFFCURVE",
"875.58 20.42 CURVE SMOOTH",
"1027.37 20.42 OFFCURVE",
"1173.19 140 OFFCURVE",
"1221.13 258.06 CURVE",
"1165.97 337.13 LINE",
"1127.94 238.92 OFFCURVE",
"1001.25 136.56 OFFCURVE",
"900.83 136.56 CURVE SMOOTH",
"759.81 136.56 OFFCURVE",
"699.21 275.58 OFFCURVE",
"699.21 451.73 CURVE SMOOTH",
"699.21 668.69 OFFCURVE",
"792.32 849.5 OFFCURVE",
"955.19 849.5 CURVE SMOOTH",
"1035.85 849.5 OFFCURVE",
"1110.6 811.05 OFFCURVE",
"1146.72 772.81 CURVE",
"1146.72 263.1 LINE SMOOTH",
"1146.72 121.64 OFFCURVE",
"1227.73 30.48 OFFCURVE",
"1374.77 30.48 CURVE SMOOTH",
"1574.53 30.48 OFFCURVE",
"1759.81 228.84 OFFCURVE",
"1759.81 571.67 CURVE SMOOTH",
"1759.81 1031.04 OFFCURVE",
"1438.8 1343.55 OFFCURVE",
"961.19 1343.55 CURVE SMOOTH",
"461.82 1343.55 OFFCURVE",
"116.63 957.52 OFFCURVE",
"116.63 456.21 CURVE SMOOTH",
"116.63 -62.71 OFFCURVE",
"436.12 -357.22 OFFCURVE",
"873.22 -357.22 CURVE SMOOTH",
"1033.16 -357.22 OFFCURVE",
"1184.32 -329.49 OFFCURVE",
"1334.71 -275.52 CURVE",
"1334.71 -238 OFFCURVE",
"1314.8 -192.69 OFFCURVE",
"1293.28 -175.32 CURVE",
"1173.37 -225.35 OFFCURVE",
"1033.25 -247.26 OFFCURVE",
"878.92 -247.26 CURVE SMOOTH",
"512.56 -247.26 OFFCURVE",
"253.84 7.7 OFFCURVE",
"253.84 456.21 CURVE SMOOTH",
"253.84 896.69 OFFCURVE",
"532.35 1239.56 OFFCURVE",
"961.19 1239.56 CURVE SMOOTH",
"1364.06 1239.56 OFFCURVE",
"1624.57 970.51 OFFCURVE",
"1624.57 577.64 CURVE SMOOTH",
"1624.57 255.01 OFFCURVE",
"1497.52 140.62 OFFCURVE",
"1384.92 140.62 CURVE SMOOTH",
"1314.5 140.62 OFFCURVE",
"1280.23 184.86 OFFCURVE",
"1280.23 305.64 CURVE SMOOTH"
);
}
);
width = 1856.35;
},
{
layerId = "E5C657BD-868A-4531-8053-230689A73369";
paths = (
{
closed = 1;
nodes = (
"1381.474 822.628 LINE",
"1304.532 900 OFFCURVE",
"1155.44 971.174 OFFCURVE",
"1001.522 971.174 CURVE SMOOTH",
"725.604 971.174 OFFCURVE",
"573.802 757.092 OFFCURVE",
"573.802 453.686 CURVE SMOOTH",
"573.802 184 OFFCURVE",
"686 -3.604 OFFCURVE",
"899.604 -3.604 CURVE SMOOTH",
"1063.406 -3.604 OFFCURVE",
"1219.522 140 OFFCURVE",
"1270.894 254.628 CURVE",
"1167.686 386.894 LINE",
"1131.372 300.696 OFFCURVE",
"1044.15 218.928 OFFCURVE",
"967.754 218.928 CURVE SMOOTH",
"885.078 218.928 OFFCURVE",
"858.798 299.604 OFFCURVE",
"858.798 467.174 CURVE SMOOTH",
"858.798 629.222 OFFCURVE",
"888.416 763.7 OFFCURVE",
"1001.522 763.7 CURVE SMOOTH",
"1044.43 763.7 OFFCURVE",
"1076.28 750.99 OFFCURVE",
"1105.536 726.478 CURVE",
"1105.536 314.58 LINE SMOOTH",
"1105.536 142.232 OFFCURVE",
"1243.174 3.024 OFFCURVE",
"1445.126 3.024 CURVE SMOOTH",
"1658.614 3.024 OFFCURVE",
"1885.078 180.792 OFFCURVE",
"1885.078 590.546 CURVE SMOOTH",
"1885.078 1085.952 OFFCURVE",
"1507.44 1369.29 OFFCURVE",
"1007.522 1369.29 CURVE SMOOTH",
"472.116 1369.29 OFFCURVE",
"80.594 984.976 OFFCURVE",
"80.594 444.198 CURVE SMOOTH",
"80.594 -136.498 OFFCURVE",
"429.256 -401.836 OFFCURVE",
"917.836 -401.836 CURVE SMOOTH",
"1081.208 -401.836 OFFCURVE",
"1280.416 -358.662 OFFCURVE",
"1408.498 -302.976 CURVE",
"1408.498 -238 OFFCURVE",
"1383.44 -153.222 OFFCURVE",
"1334.464 -99.816 CURVE",
"1209.406 -148.13 OFFCURVE",
"1076.15 -175.188 OFFCURVE",
"940.696 -175.188 CURVE SMOOTH",
"594.928 -175.188 OFFCURVE",
"377.392 24.86 OFFCURVE",
"377.392 444.198 CURVE SMOOTH",
"377.392 857.222 OFFCURVE",
"626.73 1150.328 OFFCURVE",
"1007.522 1150.328 CURVE SMOOTH",
"1360.628 1150.328 OFFCURVE",
"1591.966 941.338 OFFCURVE",
"1591.966 598.232 CURVE SMOOTH",
"1591.966 311.638 OFFCURVE",
"1524.976 219.556 OFFCURVE",
"1446.696 219.556 CURVE SMOOTH",
"1400.3 219.556 OFFCURVE",
"1381.474 250.068 OFFCURVE",
"1381.474 326.232 CURVE SMOOTH"
);
}
);
width = 1950.73;
}
);
unicode = 0040;
},
{
glyphname = parenleft;
lastChange = "2020-04-09 11:32:38 +0000";
layers = (
{
layerId = "FA2AC253-0460-4F3F-AE23-6289F77EFFDF";
paths = (
{
closed = 1;
nodes = (
"283.45 876.69 OFFCURVE",
"371.48 1202.57 OFFCURVE",
"579.9 1460.6 CURVE",
"560.2 1506 OFFCURVE",
"528.83 1529.49 OFFCURVE",
"493.4 1539.25 CURVE",
"262.12 1307.73 OFFCURVE",
"130.21 900 OFFCURVE",
"130.21 552.12 CURVE SMOOTH",
"130.21 204.24 OFFCURVE",
"262.12 -203.49 OFFCURVE",
"493.4 -435.01 CURVE",
"528.83 -425.25 OFFCURVE",
"560.2 -401.76 OFFCURVE",
"579.9 -356.36 CURVE",
"371.48 -98.33 OFFCURVE",
"283.45 227.55 OFFCURVE",
"283.45 552.12 CURVE SMOOTH"
);
}
);
width = 605.69;
},
{
layerId = "E5C657BD-868A-4531-8053-230689A73369";
paths = (
{
closed = 1;
nodes = (
"429.31 837.222 OFFCURVE",
"515.624 1169.966 OFFCURVE",
"700.02 1426.28 CURVE",
"663.16 1506 OFFCURVE",
"595.754 1558.662 OFFCURVE",
"527.72 1582.15 CURVE",
"255.256 1323.174 OFFCURVE",
"118.198 900 OFFCURVE",
"118.198 545.256 CURVE SMOOTH",
"118.198 190.512 OFFCURVE",
"255.256 -232.662 OFFCURVE",
"527.72 -491.638 CURVE",
"595.754 -468.15 OFFCURVE",
"663.16 -415.488 OFFCURVE",
"700.02 -335.768 CURVE",
"515.624 -79.454 OFFCURVE",
"429.31 253.29 OFFCURVE",
"429.31 545.256 CURVE SMOOTH"
);
}
);
width = 737.822;
}
);
unicode = 0028;
},
{
glyphname = parenright;
lastChange = "2020-04-09 11:32:38 +0000";
layers = (
{
layerId = "FA2AC253-0460-4F3F-AE23-6289F77EFFDF";
paths = (
{
closed = 1;
nodes = (
"322.24 876.69 OFFCURVE",
"234.21 1202.57 OFFCURVE",
"25.79 1460.6 CURVE",
"45.49 1506 OFFCURVE",
"76.86 1529.49 OFFCURVE",
"112.29 1539.25 CURVE",
"343.57 1307.73 OFFCURVE",
"475.48 900 OFFCURVE",
"475.48 552.12 CURVE SMOOTH",
"475.48 204.24 OFFCURVE",
"343.57 -203.49 OFFCURVE",
"112.29 -435.01 CURVE",
"76.86 -425.25 OFFCURVE",
"45.49 -401.76 OFFCURVE",
"25.79 -356.36 CURVE",
"234.21 -98.33 OFFCURVE",
"322.24 227.55 OFFCURVE",
"322.24 552.12 CURVE SMOOTH"
);
}
);
width = 605.69;
},
{
layerId = "E5C657BD-868A-4531-8053-230689A73369";
paths = (
{
closed = 1;
nodes = (
"308.512 837.222 OFFCURVE",
"222.198 1169.966 OFFCURVE",
"37.802 1426.28 CURVE",
"74.662 1506 OFFCURVE",
"142.068 1558.662 OFFCURVE",
"210.102 1582.15 CURVE",
"482.566 1323.174 OFFCURVE",
"619.624 900 OFFCURVE",
"619.624 545.256 CURVE SMOOTH",
"619.624 190.512 OFFCURVE",
"482.566 -232.662 OFFCURVE",
"210.102 -491.638 CURVE",
"142.068 -468.15 OFFCURVE",
"74.662 -415.488 OFFCURVE",
"37.802 -335.768 CURVE",
"222.198 -79.454 OFFCURVE",
"308.512 253.29 OFFCURVE",
"308.512 545.256 CURVE SMOOTH"
);
}
);
width = 737.822;
}
);
unicode = 0029;
},
{
glyphname = bracketleft;
lastChange = "2020-04-09 11:32:38 +0000";
layers = (
{
layerId = "FA2AC253-0460-4F3F-AE23-6289F77EFFDF";
paths = (
{
closed = 1;
nodes = (
"200.06 -367.28 LINE",
"341.45 -319.76 LINE",
"341.45 1450.24 LINE",
"200.06 1501.37 LINE"
);
},
{
closed = 1;
nodes = (
"555.48 -365.28 LINE",
"559.42 -349.34 OFFCURVE",
"559.36 -335.82 OFFCURVE",
"559.36 -321.97 CURVE SMOOTH",
"559.36 -302.45 OFFCURVE",
"553.48 -276.9 OFFCURVE",
"547.54 -258.99 CURVE",
"211.85 -251.08 LINE",
"200.06 -367.28 LINE",
"211.97 -379.22 LINE"
);
},
{
closed = 1;
nodes = (
"211.97 1513.31 LINE",
"200.06 1501.37 LINE",
"211.85 1385.17 LINE",
"547.54 1393.08 LINE",
"553.48 1410.99 OFFCURVE",
"559.36 1436.54 OFFCURVE",
"559.36 1456.06 CURVE SMOOTH",
"559.36 1469.91 OFFCURVE",
"559.42 1483.43 OFFCURVE",
"555.48 1499.37 CURVE"
);
}
);
width = 619.27;
},
{
layerId = "E5C657BD-868A-4531-8053-230689A73369";
paths = (
{
closed = 1;
nodes = (
"196.628 -408.464 LINE",
"487.31 -333.488 LINE",
"487.31 1436.512 LINE",
"196.628 1537.406 LINE"
);
},
{
closed = 1;
nodes = (
"699.624 -406.464 LINE",
"706.996 -387.092 OFFCURVE",
"710.368 -346.116 OFFCURVE",
"710.368 -323.686 CURVE SMOOTH",
"710.368 -276.71 OFFCURVE",
"697.624 -225.42 OFFCURVE",
"688.252 -202.362 CURVE",
"220.43 -189.304 LINE",
"196.628 -408.464 LINE",
"213.686 -423.836 LINE"
);
},
{
closed = 1;
nodes = (
"213.686 1552.778 LINE",
"196.628 1537.406 LINE",
"220.43 1318.246 LINE",
"688.252 1331.304 LINE",
"697.624 1354.362 OFFCURVE",
"710.368 1405.652 OFFCURVE",
"710.368 1452.628 CURVE SMOOTH",
"710.368 1475.058 OFFCURVE",
"706.996 1516.034 OFFCURVE",
"699.624 1535.406 CURVE"
);
}
);
width = 775.426;
}
);
unicode = 005B;
},
{
glyphname = bracketright;
lastChange = "2020-04-09 11:32:38 +0000";
layers = (
{
layerId = "FA2AC253-0460-4F3F-AE23-6289F77EFFDF";
paths = (
{
closed = 1;
nodes = (
"419.21 -367.28 LINE",
"277.82 -319.76 LINE",
"277.82 1450.24 LINE",
"419.21 1501.37 LINE"
);
},
{
closed = 1;
nodes = (
"63.79 -365.28 LINE",
"59.85 -349.34 OFFCURVE",
"59.91 -335.82 OFFCURVE",
"59.91 -321.97 CURVE SMOOTH",
"59.91 -302.45 OFFCURVE",
"65.79 -276.9 OFFCURVE",
"71.73 -258.99 CURVE",
"407.42 -251.08 LINE",
"419.21 -367.28 LINE",
"407.3 -379.22 LINE"
);
},
{
closed = 1;
nodes = (
"407.3 1513.31 LINE",
"419.21 1501.37 LINE",
"407.42 1385.17 LINE",
"71.73 1393.08 LINE",
"65.79 1410.99 OFFCURVE",
"59.91 1436.54 OFFCURVE",
"59.91 1456.06 CURVE SMOOTH",
"59.91 1469.91 OFFCURVE",
"59.85 1483.43 OFFCURVE",
"63.79 1499.37 CURVE"
);
}
);
width = 619.27;
},
{
layerId = "E5C657BD-868A-4531-8053-230689A73369";
paths = (
{
closed = 1;
nodes = (
"578.798 -408.464 LINE",
"288.116 -333.488 LINE",
"288.116 1436.512 LINE",
"578.798 1537.406 LINE"
);
},
{
closed = 1;
nodes = (
"75.802 -406.464 LINE",
"68.43 -387.092 OFFCURVE",
"65.058 -346.116 OFFCURVE",
"65.058 -323.686 CURVE SMOOTH",
"65.058 -276.71 OFFCURVE",
"77.802 -225.42 OFFCURVE",
"87.174 -202.362 CURVE",
"554.996 -189.304 LINE",
"578.798 -408.464 LINE",
"561.74 -423.836 LINE"
);
},
{
closed = 1;
nodes = (
"561.74 1552.778 LINE",
"578.798 1537.406 LINE",
"554.996 1318.246 LINE",
"87.174 1331.304 LINE",
"77.802 1354.362 OFFCURVE",
"65.058 1405.652 OFFCURVE",
"65.058 1452.628 CURVE SMOOTH",
"65.058 1475.058 OFFCURVE",
"68.43 1516.034 OFFCURVE",
"75.802 1535.406 CURVE"
);
}
);
width = 775.426;
}
);
unicode = 005D;
},
{
glyphname = braceleft;
lastChange = "2020-04-09 11:32:38 +0000";
layers = (
{
layerId = "FA2AC253-0460-4F3F-AE23-6289F77EFFDF";
paths = (
{
closed = 1;
nodes = (
"72.03 573.49 OFFCURVE",
"72.03 522.27 OFFCURVE",
"81.88 500.72 CURVE",
"169.7 464.42 OFFCURVE",
"241.73 380.63 OFFCURVE",
"241.73 254.27 CURVE SMOOTH",
"241.73 -100.27 LINE SMOOTH",
"241.73 -279.79 OFFCURVE",
"351.31 -381.55 OFFCURVE",
"500.71 -407.49 CURVE SMOOTH",
"581.87 -421.37 LINE",
"601.51 -399.76 OFFCURVE",
"613.24 -354.78 OFFCURVE",
"605.3 -318.96 CURVE",
"519.87 -293.2 LINE SMOOTH",
"427.03 -264.96 OFFCURVE",
"382.97 -198.66 OFFCURVE",
"382.97 -98.27 CURVE SMOOTH",
"382.97 250.27 LINE SMOOTH",
"382.97 370 OFFCURVE",
"321.09 491.85 OFFCURVE",
"223.24 539.88 CURVE",
"223.24 555.88 LINE",
"321.09 603.91 OFFCURVE",
"382.97 725.76 OFFCURVE",
"382.97 845.49 CURVE SMOOTH",
"382.97 1192 LINE SMOOTH",
"382.97 1292.39 OFFCURVE",
"427.03 1358.69 OFFCURVE",
"519.87 1386.93 CURVE SMOOTH",
"605.3 1412.69 LINE",
"613.24 1448.51 OFFCURVE",
"601.51 1493.49 OFFCURVE",
"581.87 1515.1 CURVE",
"500.71 1501.22 LINE SMOOTH",
"351.31 1475.28 OFFCURVE",
"241.73 1373.52 OFFCURVE",
"241.73 1194 CURVE SMOOTH",
"241.73 841.49 LINE SMOOTH",
"241.73 713.1 OFFCURVE",
"169.7 631.34 OFFCURVE",
"81.88 595.04 CURVE"
);
}
);
width = 623.21;
},
{
layerId = "E5C657BD-868A-4531-8053-230689A73369";
paths = (
{
closed = 1;
nodes = (
"70.314 602.662 OFFCURVE",
"70.314 506.826 OFFCURVE",
"88.744 459.536 CURVE",
"186.86 440.396 OFFCURVE",
"257.174 344.594 OFFCURVE",
"257.174 238.826 CURVE SMOOTH",
"257.174 -84.826 LINE SMOOTH",
"257.174 -291.802 OFFCURVE",
"390.778 -407.29 OFFCURVE",
"574.498 -436.662 CURVE SMOOTH",
"703.706 -457.406 LINE",
"743.938 -413.488 OFFCURVE",
"771.112 -310.164 OFFCURVE",
"759.74 -264.048 CURVE",
"641.706 -224.56 LINE SMOOTH",
"596.914 -210.048 OFFCURVE",
"556.286 -160.908 OFFCURVE",
"556.286 -82.826 CURVE SMOOTH",
"556.286 234.826 LINE SMOOTH",
"556.286 370 OFFCURVE",
"487.542 500.43 OFFCURVE",
"381.112 546.744 CURVE",
"381.112 562.744 LINE",
"487.542 609.058 OFFCURVE",
"556.286 739.488 OFFCURVE",
"556.286 874.662 CURVE SMOOTH",
"556.286 1192 LINE SMOOTH",
"556.286 1270.082 OFFCURVE",
"596.914 1319.222 OFFCURVE",
"641.706 1333.734 CURVE SMOOTH",
"759.74 1373.222 LINE",
"771.112 1419.338 OFFCURVE",
"743.938 1522.662 OFFCURVE",
"703.706 1566.58 CURVE",
"574.498 1545.836 LINE SMOOTH",
"390.778 1516.464 OFFCURVE",
"257.174 1400.976 OFFCURVE",
"257.174 1194 CURVE SMOOTH",
"257.174 870.662 LINE SMOOTH",
"257.174 764.58 OFFCURVE",
"186.86 669.092 OFFCURVE",
"88.744 649.952 CURVE"
);
}
);
width = 782.798;
}
);
unicode = 007B;
},
{
glyphname = braceright;
lastChange = "2020-04-09 11:32:38 +0000";
layers = (
{
layerId = "FA2AC253-0460-4F3F-AE23-6289F77EFFDF";
paths = (
{
closed = 1;
nodes = (
"551.18 573.49 OFFCURVE",
"551.18 522.27 OFFCURVE",
"541.33 500.72 CURVE",
"453.51 464.42 OFFCURVE",
"381.48 380.63 OFFCURVE",
"381.48 254.27 CURVE SMOOTH",
"381.48 -100.27 LINE SMOOTH",
"381.48 -279.79 OFFCURVE",
"271.9 -381.55 OFFCURVE",
"122.5 -407.49 CURVE SMOOTH",
"41.34 -421.37 LINE",
"21.7 -399.76 OFFCURVE",
"9.97 -354.78 OFFCURVE",
"17.91 -318.96 CURVE",
"103.34 -293.2 LINE SMOOTH",
"196.18 -264.96 OFFCURVE",
"240.24 -198.66 OFFCURVE",
"240.24 -98.27 CURVE SMOOTH",
"240.24 250.27 LINE SMOOTH",
"240.24 370 OFFCURVE",
"302.12 491.85 OFFCURVE",
"399.97 539.88 CURVE",
"399.97 555.88 LINE",
"302.12 603.91 OFFCURVE",
"240.24 725.76 OFFCURVE",
"240.24 845.49 CURVE SMOOTH",
"240.24 1192 LINE SMOOTH",
"240.24 1292.39 OFFCURVE",
"196.18 1358.69 OFFCURVE",
"103.34 1386.93 CURVE SMOOTH",
"17.91 1412.69 LINE",
"9.97 1448.51 OFFCURVE",
"21.7 1493.49 OFFCURVE",
"41.34 1515.1 CURVE",
"122.5 1501.22 LINE SMOOTH",
"271.9 1475.28 OFFCURVE",
"381.48 1373.52 OFFCURVE",
"381.48 1194 CURVE SMOOTH",
"381.48 841.49 LINE SMOOTH",
"381.48 713.1 OFFCURVE",
"453.51 631.34 OFFCURVE",
"541.33 595.04 CURVE"
);
}
);
width = 623.21;
},
{
layerId = "E5C657BD-868A-4531-8053-230689A73369";
paths = (
{
closed = 1;
nodes = (
"712.484 602.662 OFFCURVE",
"712.484 506.826 OFFCURVE",
"694.054 459.536 CURVE",
"595.938 440.396 OFFCURVE",
"525.624 344.594 OFFCURVE",
"525.624 238.826 CURVE SMOOTH",
"525.624 -84.826 LINE SMOOTH",
"525.624 -291.802 OFFCURVE",
"392.02 -407.29 OFFCURVE",
"208.3 -436.662 CURVE SMOOTH",
"79.092 -457.406 LINE",
"38.86 -413.488 OFFCURVE",
"11.686 -310.164 OFFCURVE",
"23.058 -264.048 CURVE",
"141.092 -224.56 LINE SMOOTH",
"185.884 -210.048 OFFCURVE",
"226.512 -160.908 OFFCURVE",
"226.512 -82.826 CURVE SMOOTH",
"226.512 234.826 LINE SMOOTH",
"226.512 370 OFFCURVE",
"295.256 500.43 OFFCURVE",
"401.686 546.744 CURVE",
"401.686 562.744 LINE",
"295.256 609.058 OFFCURVE",
"226.512 739.488 OFFCURVE",
"226.512 874.662 CURVE SMOOTH",
"226.512 1192 LINE SMOOTH",
"226.512 1270.082 OFFCURVE",
"185.884 1319.222 OFFCURVE",
"141.092 1333.734 CURVE SMOOTH",
"23.058 1373.222 LINE",
"11.686 1419.338 OFFCURVE",
"38.86 1522.662 OFFCURVE",
"79.092 1566.58 CURVE",
"208.3 1545.836 LINE SMOOTH",
"392.02 1516.464 OFFCURVE",
"525.624 1400.976 OFFCURVE",
"525.624 1194 CURVE SMOOTH",
"525.624 870.662 LINE SMOOTH",
"525.624 764.58 OFFCURVE",
"595.938 669.092 OFFCURVE",
"694.054 649.952 CURVE"
);
}
);
width = 782.798;
}
);
unicode = 007D;
},
{
glyphname = "leftanglebracket-math";
lastChange = "2020-04-09 11:32:38 +0000";
layers = (
{
layerId = "FA2AC253-0460-4F3F-AE23-6289F77EFFDF";
paths = (
{
closed = 1;
nodes = (
"77.225 560.075 LINE",
"445.845 1537.295 LINE",
"486.155 1537.325 OFFCURVE",
"532.3 1520.76 OFFCURVE",
"554.94 1495.27 CURVE",
"249.375 552.135 LINE",
"554.94 -391 LINE",
"532.3 -416.49 OFFCURVE",
"486.155 -433.055 OFFCURVE",
"445.845 -433.025 CURVE",
"77.225 544.195 LINE"
);
}
);
width = 609.33;
},
{
layerId = "E5C657BD-868A-4531-8053-230689A73369";
paths = (
{
closed = 1;
nodes = (
"64.355 555.785 LINE",
"511.911 1577.621 LINE",
"591.689 1575.935 OFFCURVE",
"686.74 1534.488 OFFCURVE",
"729.972 1479.826 CURVE",
"399.525 544.413 LINE",
"729.972 -391 LINE",
"686.74 -445.662 OFFCURVE",
"591.689 -487.109 OFFCURVE",
"511.911 -488.795 CURVE",
"64.355 533.041 LINE"
);
}
);
width = 762.054;
}
);
unicode = 27E8;
},
{
glyphname = "rightanglebracket-math";
lastChange = "2020-04-09 11:32:38 +0000";
layers = (
{
layerId = "FA2AC253-0460-4F3F-AE23-6289F77EFFDF";
paths = (
{
closed = 1;
nodes = (
"163.485 -433.025 LINE",
"123.175 -433.055 OFFCURVE",
"77.03 -416.49 OFFCURVE",
"54.39 -391 CURVE",
"359.955 552.135 LINE",
"54.39 1495.27 LINE",
"77.03 1520.76 OFFCURVE",
"123.175 1537.325 OFFCURVE",
"163.485 1537.295 CURVE",
"532.105 560.075 LINE",
"532.105 544.195 LINE"
);
}
);
width = 609.33;
},
{
layerId = "E5C657BD-868A-4531-8053-230689A73369";
paths = (
{
closed = 1;
nodes = (
"250.143 -488.795 LINE",
"170.365 -487.109 OFFCURVE",
"75.314 -445.662 OFFCURVE",
"32.082 -391 CURVE",
"362.529 544.413 LINE",
"32.082 1479.826 LINE",
"75.314 1534.488 OFFCURVE",
"170.365 1575.935 OFFCURVE",
"250.143 1577.621 CURVE",
"697.699 555.785 LINE",
"697.699 533.041 LINE"
);
}
);
width = 762.054;
}
);
unicode = 27E9;
},
{
glyphname = backslash;
lastChange = "2020-04-09 11:32:38 +0000";
layers = (
{
layerId = "FA2AC253-0460-4F3F-AE23-6289F77EFFDF";
paths = (
{
closed = 1;
nodes = (
"28.36 1368.54 LINE",
"63.7 1396.03 OFFCURVE",
"110.89 1413.82 OFFCURVE",
"150.05 1413.64 CURVE",
"784.14 -264.42 LINE",
"750.83 -289.88 OFFCURVE",
"699.58 -307.67 OFFCURVE",
"662.45 -309.52 CURVE"
);
}
);
width = 806.47;
},
{
layerId = "E5C657BD-868A-4531-8053-230689A73369";
paths = (
{
closed = 1;
nodes = (
"7.768 1337.652 LINE",
"80.86 1394.314 OFFCURVE",
"174.382 1424.116 OFFCURVE",
"261.59 1434.232 CURVE",
"890.532 -240.396 LINE",
"817.754 -296.744 OFFCURVE",
"723.604 -326.546 OFFCURVE",
"636.71 -336.976 CURVE"
);
}
);
width = 893.986;
}
);
unicode = 005C;
},
{
glyphname = slash;
lastChange = "2020-04-09 11:32:38 +0000";
layers = (
{
layerId = "FA2AC253-0460-4F3F-AE23-6289F77EFFDF";
paths = (
{
closed = 1;
nodes = (
"22.33 -264.42 LINE",
"57.67 -291.91 OFFCURVE",
"104.86 -309.7 OFFCURVE",
"144.02 -309.52 CURVE",
"778.11 1368.54 LINE",
"744.8 1394 OFFCURVE",
"693.55 1411.79 OFFCURVE",
"656.42 1413.64 CURVE"
);
}
);
width = 806.47;
},
{
layerId = "E5C657BD-868A-4531-8053-230689A73369";
paths = (
{
closed = 1;
nodes = (
"3.454 -240.396 LINE",
"76.546 -297.058 OFFCURVE",
"170.068 -326.86 OFFCURVE",
"257.276 -336.976 CURVE",
"886.218 1337.652 LINE",
"813.44 1394 OFFCURVE",
"719.29 1423.802 OFFCURVE",
"632.396 1434.232 CURVE"
);
}
);
width = 893.986;
}
);
unicode = 002F;
},
{
glyphname = brokenbar;
lastChange = "2020-04-09 11:32:38 +0000";
layers = (
{
layerId = "FA2AC253-0460-4F3F-AE23-6289F77EFFDF";
paths = (
{
closed = 1;
nodes = (
"174.87 -279.94 LINE",
"192.42 -283.82 OFFCURVE",
"215.7 -285.82 OFFCURVE",
"237.52 -285.82 CURVE SMOOTH",
"263.34 -285.82 OFFCURVE",
"284.8 -283.82 OFFCURVE",
"304.35 -279.94 CURVE",
"304.35 494.06 LINE",
"284.8 497.94 OFFCURVE",
"263.34 499.94 OFFCURVE",
"237.52 499.94 CURVE SMOOTH",
"215.7 499.94 OFFCURVE",
"192.42 497.94 OFFCURVE",
"174.87 494.06 CURVE"
);
},
{
closed = 1;
nodes = (
"174.87 776.06 LINE",
"192.42 772.18 OFFCURVE",
"215.7 770.18 OFFCURVE",
"237.52 770.18 CURVE SMOOTH",
"263.34 770.18 OFFCURVE",
"284.8 772.18 OFFCURVE",
"304.35 776.06 CURVE",
"304.35 1550.06 LINE",
"284.8 1553.94 OFFCURVE",
"263.34 1555.94 OFFCURVE",
"237.52 1555.94 CURVE SMOOTH",
"215.7 1555.94 OFFCURVE",
"192.42 1553.94 OFFCURVE",
"174.87 1550.06 CURVE"
);
}
);
width = 479.22;
},
{
layerId = "E5C657BD-868A-4531-8053-230689A73369";
paths = (
{
closed = 1;
nodes = (
"125.106 -283.372 LINE",
"168.396 -294.116 OFFCURVE",
"232.86 -296.116 OFFCURVE",
"264.976 -296.116 CURVE SMOOTH",
"301.092 -296.116 OFFCURVE",
"353.44 -294.116 OFFCURVE",
"398.73 -283.372 CURVE",
"398.73 490.628 LINE",
"353.44 501.372 OFFCURVE",
"301.092 503.372 OFFCURVE",
"264.976 503.372 CURVE SMOOTH",
"232.86 503.372 OFFCURVE",
"168.396 501.372 OFFCURVE",
"125.106 490.628 CURVE"
);
},
{
closed = 1;
nodes = (
"125.106 772.628 LINE",
"168.396 761.884 OFFCURVE",
"232.86 759.884 OFFCURVE",
"264.976 759.884 CURVE SMOOTH",
"301.092 759.884 OFFCURVE",
"353.44 761.884 OFFCURVE",
"398.73 772.628 CURVE",
"398.73 1546.628 LINE",
"353.44 1557.372 OFFCURVE",
"301.092 1559.372 OFFCURVE",
"264.976 1559.372 CURVE SMOOTH",
"232.86 1559.372 OFFCURVE",
"168.396 1557.372 OFFCURVE",
"125.106 1546.628 CURVE"
);
}
);
width = 523.836;
}
);
unicode = 00A6;
},
{
glyphname = bar;
lastChange = "2020-04-09 11:32:38 +0000";
layers = (
{
layerId = "FA2AC253-0460-4F3F-AE23-6289F77EFFDF";
paths = (
{
closed = 1;
nodes = (
"180.9 -279.94 LINE",
"198.45 -283.82 OFFCURVE",
"221.7 -285.82 OFFCURVE",
"243.52 -285.82 CURVE SMOOTH",
"269.34 -285.82 OFFCURVE",
"290.77 -283.82 OFFCURVE",
"310.32 -279.94 CURVE",
"310.32 1550.06 LINE",
"290.77 1553.94 OFFCURVE",
"269.34 1555.94 OFFCURVE",
"243.52 1555.94 CURVE SMOOTH",
"221.7 1555.94 OFFCURVE",
"198.45 1553.94 OFFCURVE",
"180.9 1550.06 CURVE"
);
}
);
width = 491.22;
},
{
layerId = "E5C657BD-868A-4531-8053-230689A73369";
paths = (
{
closed = 1;
nodes = (
"129.42 -283.372 LINE",
"172.71 -294.116 OFFCURVE",
"238.86 -296.116 OFFCURVE",
"270.976 -296.116 CURVE SMOOTH",
"307.092 -296.116 OFFCURVE",
"361.126 -294.116 OFFCURVE",
"406.416 -283.372 CURVE",
"406.416 1546.628 LINE",
"361.126 1557.372 OFFCURVE",
"307.092 1559.372 OFFCURVE",
"270.976 1559.372 CURVE SMOOTH",
"238.86 1559.372 OFFCURVE",
"172.71 1557.372 OFFCURVE",
"129.42 1546.628 CURVE"
);
}
);
width = 535.836;
}
);
unicode = 007C;
},
{
glyphname = underscore;
lastChange = "2020-04-09 11:32:38 +0000";
layers = (
{
layerId = "FA2AC253-0460-4F3F-AE23-6289F77EFFDF";
paths = (
{
closed = 1;
nodes = (
"1012.08 -280.83 LINE",
"1015.99 -267.25 OFFCURVE",
"1017.96 -251.52 OFFCURVE",
"1017.96 -225.82 CURVE",
"1017.96 -198.09 OFFCURVE",
"1015.99 -182.33 OFFCURVE",
"1012.08 -166.75 CURVE",
"0.03 -166.75 LINE",
"-3.85 -182.33 OFFCURVE",
"-5.85 -197.7 OFFCURVE",
"-5.85 -225.82 CURVE SMOOTH",
"-5.85 -251.85 OFFCURVE",
"-3.85 -267.25 OFFCURVE",
"0.03 -280.83 CURVE"
);
}
);
width = 1012.11;
},
{
layerId = "E5C657BD-868A-4531-8053-230689A73369";
paths = (
{
closed = 1;
nodes = (
"1121.904 -347.754 LINE",
"1130.962 -310.15 OFFCURVE",
"1134.648 -278.976 OFFCURVE",
"1134.648 -236.116 CURVE",
"1134.648 -192.942 OFFCURVE",
"1130.962 -163.454 OFFCURVE",
"1121.904 -123.85 CURVE",
"-1.686 -123.85 LINE",
"-12.43 -163.454 OFFCURVE",
"-14.43 -214.86 OFFCURVE",
"-14.43 -236.116 CURVE SMOOTH",
"-14.43 -260.43 OFFCURVE",
"-12.43 -310.15 OFFCURVE",
"-1.686 -347.754 CURVE"
);
}
);
width = 1120.218;
}
);
unicode = 005F;
},
{
color = (0,243,255,1);
glyphname = hyphen;
lastChange = "2020-04-09 11:32:38 +0000";
layers = (
{
layerId = "FA2AC253-0460-4F3F-AE23-6289F77EFFDF";
paths = (
{
closed = 1;
nodes = (
"558.41 464.81 LINE",
"562.29 482.42 OFFCURVE",
"564.29 501.85 OFFCURVE",
"564.29 527.82 CURVE SMOOTH",
"564.29 555.82 OFFCURVE",
"562.29 575.25 OFFCURVE",
"558.41 594.89 CURVE",
"106.18 594.89 LINE",
"102.3 575.25 OFFCURVE",
"100.3 555.82 OFFCURVE",
"100.3 527.82 CURVE SMOOTH",
"100.3 501.85 OFFCURVE",
"102.3 482.42 OFFCURVE",
"106.18 464.81 CURVE"
);
}
);
width = 664.59;
},
{
layerId = "E5C657BD-868A-4531-8053-230689A73369";
paths = (
{
closed = 1;
nodes = (
"649.358 418.478 LINE",
"660.102 458.396 OFFCURVE",
"662.102 510.43 OFFCURVE",
"662.102 538.116 CURVE SMOOTH",
"662.102 566.116 OFFCURVE",
"660.102 618.15 OFFCURVE",
"649.358 658.382 CURVE",
"95.884 658.382 LINE",
"85.14 618.15 OFFCURVE",
"83.14 566.116 OFFCURVE",
"83.14 538.116 CURVE SMOOTH",
"83.14 510.43 OFFCURVE",
"85.14 458.396 OFFCURVE",
"95.884 418.478 CURVE"
);
}
);
width = 745.242;
}
);
leftKerningGroup = hyphen;
rightKerningGroup = hyphen;
unicode = 002D;
},
{
color = (0,243,255,1);
glyphname = endash;
lastChange = "2020-04-09 11:32:38 +0000";
layers = (
{
layerId = "FA2AC253-0460-4F3F-AE23-6289F77EFFDF";
paths = (
{
closed = 1;
nodes = (
"894.5 466.87 LINE",
"898.38 484.48 OFFCURVE",
"900.38 499.94 OFFCURVE",
"900.38 525.91 CURVE SMOOTH",
"900.38 553.91 OFFCURVE",
"898.38 569.37 OFFCURVE",
"894.5 589.01 CURVE",
"134.15 589.01 LINE",
"130.27 569.37 OFFCURVE",
"128.27 553.91 OFFCURVE",
"128.27 525.91 CURVE SMOOTH",
"128.27 499.94 OFFCURVE",
"130.27 484.48 OFFCURVE",
"134.15 466.87 CURVE"
);
}
);
width = 1028.68;
},
{
layerId = "E5C657BD-868A-4531-8053-230689A73369";
paths = (
{
closed = 1;
nodes = (
"980.3 417.106 LINE",
"991.044 457.024 OFFCURVE",
"993.044 503.372 OFFCURVE",
"993.044 531.058 CURVE SMOOTH",
"993.044 559.058 OFFCURVE",
"991.044 605.406 OFFCURVE",
"980.3 645.638 CURVE",
"125.57 645.638 LINE",
"114.826 605.406 OFFCURVE",
"112.826 559.058 OFFCURVE",
"112.826 531.058 CURVE SMOOTH",
"112.826 503.372 OFFCURVE",
"114.826 457.024 OFFCURVE",
"125.57 417.106 CURVE"
);
}
);
width = 1104.184;
}
);
leftKerningGroup = equal;
rightKerningGroup = equal;
unicode = 2013;
},
{
color = (0,243,255,1);
glyphname = emdash;
lastChange = "2020-04-09 11:32:38 +0000";
layers = (
{
layerId = "FA2AC253-0460-4F3F-AE23-6289F77EFFDF";
paths = (
{
closed = 1;
nodes = (
"1408.8 466.87 LINE",
"1412.68 484.48 OFFCURVE",
"1414.68 499.94 OFFCURVE",
"1414.68 525.91 CURVE SMOOTH",
"1414.68 553.91 OFFCURVE",
"1412.68 569.37 OFFCURVE",
"1408.8 589.01 CURVE",
"166.3 589.01 LINE",
"162.42 569.37 OFFCURVE",
"160.42 553.91 OFFCURVE",
"160.42 525.91 CURVE SMOOTH",
"160.42 499.94 OFFCURVE",
"162.42 484.48 OFFCURVE",
"166.3 466.87 CURVE"
);
}
);
width = 1575.1;
},
{
layerId = "E5C657BD-868A-4531-8053-230689A73369";
paths = (
{
closed = 1;
nodes = (
"1477.44 417.106 LINE",
"1488.184 457.024 OFFCURVE",
"1490.184 503.372 OFFCURVE",
"1490.184 531.058 CURVE SMOOTH",
"1490.184 559.058 OFFCURVE",
"1488.184 605.406 OFFCURVE",
"1477.44 645.638 CURVE",
"149.14 645.638 LINE",
"138.396 605.406 OFFCURVE",
"136.396 559.058 OFFCURVE",
"136.396 531.058 CURVE SMOOTH",
"136.396 503.372 OFFCURVE",
"138.396 457.024 OFFCURVE",
"149.14 417.106 CURVE"
);
}
);
width = 1626.58;
}
);
leftKerningGroup = equal;
rightKerningGroup = equal;
unicode = 2014;
},
{
glyphname = horizontalbar;
lastChange = "2020-04-09 11:32:38 +0000";
layers = (
{
layerId = "FA2AC253-0460-4F3F-AE23-6289F77EFFDF";
paths = (
{
closed = 1;
nodes = (
"1448.68 466.87 LINE",
"1452.56 484.48 OFFCURVE",
"1454.56 499.94 OFFCURVE",
"1454.56 525.91 CURVE SMOOTH",
"1454.56 553.91 OFFCURVE",
"1452.56 569.37 OFFCURVE",
"1448.68 589.01 CURVE",
"245.88 589.01 LINE",
"242 569.37 OFFCURVE",
"240 553.91 OFFCURVE",
"240 525.91 CURVE SMOOTH",
"240 499.94 OFFCURVE",
"242 484.48 OFFCURVE",
"245.88 466.87 CURVE"
);
}
);
width = 1694.56;
},
{
layerId = "E5C657BD-868A-4531-8053-230689A73369";
paths = (
{
closed = 1;
nodes = (
"1524.184 417.106 LINE",
"1534.928 457.024 OFFCURVE",
"1536.928 503.372 OFFCURVE",
"1536.928 531.058 CURVE SMOOTH",
"1536.928 559.058 OFFCURVE",
"1534.928 605.406 OFFCURVE",
"1524.184 645.638 CURVE",
"252.744 645.638 LINE",
"242 605.406 OFFCURVE",
"240 559.058 OFFCURVE",
"240 531.058 CURVE SMOOTH",
"240 503.372 OFFCURVE",
"242 457.024 OFFCURVE",
"252.744 417.106 CURVE"
);
}
);
width = 1776.928;
}
);
unicode = 2015;
},
